<svg width="640" height="547" viewBox="0 0 640 547" fill="none" xmlns="http://www.w3.org/2000/svg">
<path fill-rule="evenodd" clip-rule="evenodd" d="M307.585 201.304H557.593C574.5 201.304 588.207 187.32 588.207 170.074V39.7962C588.207 38.8947 588.17 38.002 588.096 37.1199H277.082C277.009 38.002 276.971 38.8947 276.971 39.7962V170.074C276.971 187.32 290.679 201.304 307.585 201.304Z" fill="#7798B6"/>
<path fill-rule="evenodd" clip-rule="evenodd" d="M479.13 165.475C479.13 169.398 475.947 172.581 472.022 172.581C468.099 172.581 464.916 169.398 464.916 165.475C464.916 163.015 466.166 160.847 468.065 159.572H444.565C443.773 159.572 443.135 158.932 443.135 158.142C443.135 157.352 443.773 156.714 444.565 156.714H530.673L533.186 145.573L439.713 129.796C439.102 129.693 438.629 129.211 438.536 128.6L432.315 87.5725C432.252 87.1613 432.372 86.7425 432.645 86.4284C432.915 86.1124 433.311 85.9296 433.728 85.9296H545.682L549.945 67.067C550.092 66.416 550.671 65.9535 551.339 65.9535H558.846C559.369 64.5955 560.686 63.6312 562.229 63.6312H576.08C578.082 63.6312 579.706 65.2549 579.706 67.2556V67.5069C579.706 69.5095 578.082 71.1313 576.08 71.1313H562.229C560.686 71.1313 559.368 70.1677 558.845 68.8088H552.481L548.217 87.6733C548.214 87.6848 548.212 87.6962 548.209 87.7075L536.31 144.707C536.305 144.731 536.299 144.756 536.293 144.78L533.209 158.456C533.062 159.107 532.484 159.572 531.816 159.572H510.41C512.309 160.847 513.558 163.015 513.558 165.475C513.558 169.398 510.378 172.581 506.45 172.581C502.527 172.581 499.346 169.398 499.346 165.475C499.346 163.015 500.596 160.847 502.494 159.572H475.981C477.88 160.847 479.13 163.015 479.13 165.475ZM533.795 142.778L441.207 127.15L439.507 115.941L537.402 125.496L533.795 142.778ZM437.439 102.302L439.139 113.514L537.892 123.153L541.609 105.34L437.439 102.302ZM542.103 102.975L437.077 99.9121L435.39 88.7869H545.064L542.103 102.975Z" fill="#E5ECF1"/>
<path d="M414.661 56.013H363.474C362.739 56.013 362.145 55.4172 362.145 54.6805C362.145 53.9457 362.739 53.3499 363.474 53.3499H414.661C415.398 53.3499 415.994 53.9457 415.994 54.6805C415.994 55.4172 415.398 56.013 414.661 56.013Z" fill="#E5ECF1"/>
<path d="M414.661 73.7695H363.474C362.739 73.7695 362.145 73.1737 362.145 72.4389C362.145 71.7022 362.739 71.1064 363.474 71.1064H414.661C415.398 71.1064 415.994 71.7022 415.994 72.4389C415.994 73.1737 415.398 73.7695 414.661 73.7695Z" fill="#E5ECF1"/>
<path d="M414.661 91.5262H363.474C362.739 91.5262 362.145 90.9304 362.145 90.1956C362.145 89.4608 362.739 88.865 363.474 88.865H414.661C415.398 88.865 415.994 89.4608 415.994 90.1956C415.994 90.9304 415.398 91.5262 414.661 91.5262Z" fill="#E5ECF1"/>
<path d="M414.661 109.283H363.474C362.739 109.283 362.145 108.689 362.145 107.952C362.145 107.218 362.739 106.622 363.474 106.622H414.661C415.398 106.622 415.994 107.218 415.994 107.952C415.994 108.689 415.398 109.283 414.661 109.283Z" fill="#E5ECF1"/>
<path d="M414.661 127.039H363.474C362.739 127.039 362.145 126.446 362.145 125.709C362.145 124.974 362.739 124.378 363.474 124.378H414.661C415.398 124.378 415.994 124.974 415.994 125.709C415.994 126.446 415.398 127.039 414.661 127.039Z" fill="#E5ECF1"/>
<path d="M414.661 144.798H363.474C362.739 144.798 362.145 144.202 362.145 143.467C362.145 142.731 362.739 142.135 363.474 142.135H414.661C415.398 142.135 415.994 142.731 415.994 143.467C415.994 144.202 415.398 144.798 414.661 144.798Z" fill="#E5ECF1"/>
<path d="M414.661 162.555H363.474C362.739 162.555 362.145 161.959 362.145 161.224C362.145 160.487 362.739 159.891 363.474 159.891H414.661C415.398 159.891 415.994 160.487 415.994 161.224C415.994 161.959 415.398 162.555 414.661 162.555Z" fill="#E5ECF1"/>
<path d="M414.661 180.311H363.474C362.739 180.311 362.145 179.715 362.145 178.981C362.145 178.246 362.739 177.65 363.474 177.65H414.661C415.398 177.65 415.994 178.246 415.994 178.981C415.994 179.715 415.398 180.311 414.661 180.311Z" fill="#E5ECF1"/>
<path d="M353.115 56.013H301.927C301.193 56.013 300.597 55.4172 300.597 54.6805C300.597 53.9457 301.193 53.3499 301.927 53.3499H353.115C353.851 53.3499 354.447 53.9457 354.447 54.6805C354.447 55.4172 353.851 56.013 353.115 56.013Z" fill="#E5ECF1"/>
<path d="M353.115 73.7695H301.927C301.193 73.7695 300.597 73.1737 300.597 72.4389C300.597 71.7022 301.193 71.1064 301.927 71.1064H353.115C353.851 71.1064 354.447 71.7022 354.447 72.4389C354.447 73.1737 353.851 73.7695 353.115 73.7695Z" fill="#E5ECF1"/>
<path d="M353.115 91.5262H301.927C301.193 91.5262 300.597 90.9304 300.597 90.1956C300.597 89.4608 301.193 88.865 301.927 88.865H353.115C353.851 88.865 354.447 89.4608 354.447 90.1956C354.447 90.9304 353.851 91.5262 353.115 91.5262Z" fill="#E5ECF1"/>
<path d="M353.115 109.283H301.927C301.193 109.283 300.597 108.689 300.597 107.952C300.597 107.218 301.193 106.622 301.927 106.622H353.115C353.851 106.622 354.447 107.218 354.447 107.952C354.447 108.689 353.851 109.283 353.115 109.283Z" fill="#E5ECF1"/>
<path d="M353.115 127.039H301.927C301.193 127.039 300.597 126.446 300.597 125.709C300.597 124.974 301.193 124.378 301.927 124.378H353.115C353.851 124.378 354.447 124.974 354.447 125.709C354.447 126.446 353.851 127.039 353.115 127.039Z" fill="#E5ECF1"/>
<path d="M353.115 144.798H301.927C301.193 144.798 300.597 144.202 300.597 143.467C300.597 142.731 301.193 142.135 301.927 142.135H353.115C353.851 142.135 354.447 142.731 354.447 143.467C354.447 144.202 353.851 144.798 353.115 144.798Z" fill="#E5ECF1"/>
<path d="M353.115 162.555H301.927C301.193 162.555 300.597 161.959 300.597 161.224C300.597 160.487 301.193 159.891 301.927 159.891H353.115C353.851 159.891 354.447 160.487 354.447 161.224C354.447 161.959 353.851 162.555 353.115 162.555Z" fill="#E5ECF1"/>
<path d="M353.115 180.311H301.927C301.193 180.311 300.597 179.715 300.597 178.981C300.597 178.246 301.193 177.65 301.927 177.65H353.115C353.851 177.65 354.447 178.246 354.447 178.981C354.447 179.715 353.851 180.311 353.115 180.311Z" fill="#E5ECF1"/>
<path d="M588.803 30.2613V41.4601H276.526V30.2613C276.526 26.1648 279.846 22.843 283.944 22.843H581.385C585.483 22.843 588.803 26.1648 588.803 30.2613Z" fill="#283A4A"/>
<path d="M548.019 32.1515C548.019 34.5557 546.072 36.5031 543.667 36.5031C541.263 36.5031 539.316 34.5557 539.316 32.1515C539.316 29.7492 541.263 27.7999 543.667 27.7999C546.072 27.7999 548.019 29.7492 548.019 32.1515Z" fill="#E5ECF1"/>
<path d="M563.189 32.1515C563.189 34.5557 561.239 36.5031 558.839 36.5031C556.435 36.5031 554.487 34.5557 554.487 32.1515C554.487 29.7492 556.435 27.7999 558.839 27.7999C561.239 27.7999 563.189 29.7492 563.189 32.1515Z" fill="#E5ECF1"/>
<path d="M578.293 32.1515C578.293 34.5557 576.346 36.5031 573.942 36.5031C571.54 36.5031 569.59 34.5557 569.59 32.1515C569.59 29.7492 571.54 27.7999 573.942 27.7999C576.346 27.7999 578.293 29.7492 578.293 32.1515Z" fill="#E5ECF1"/>
<path d="M198.93 252.251H116.627C103.005 252.251 91.9621 241.209 91.9621 227.587V36.9314C91.9621 23.3094 103.005 12.2666 116.627 12.2666H198.93C212.552 12.2666 223.595 23.3094 223.595 36.9314V227.587C223.595 241.209 212.552 252.251 198.93 252.251Z" fill="#7798B6"/>
<path d="M197.872 138.491V158.047C197.872 160.552 195.841 162.583 193.336 162.583H124.793C123.992 162.583 123.242 162.378 122.591 162.014L122.022 161.635L119.635 160.061L120.98 160.501C120.522 159.794 120.257 158.953 120.257 158.047V138.491C120.257 135.983 122.288 133.953 124.793 133.953H193.336L193.45 133.955L193.334 133.036L195.843 134.707L195.846 134.711C197.067 135.524 197.872 136.913 197.872 138.491Z" fill="#31A552"/>
<path d="M188.236 160.872H124.755C120.851 160.872 117.687 157.708 117.687 153.804V139.308C117.687 135.404 120.851 132.24 124.755 132.24H188.236C192.14 132.24 195.304 135.404 195.304 139.308V153.804C195.304 157.708 192.14 160.872 188.236 160.872Z" fill="#44FC78"/>
<path d="M141.526 149.19C141.526 148.339 140.913 147.889 139.681 147.889H136.325V150.492H139.681C140.913 150.492 141.526 150.042 141.526 149.19ZM136.325 141.741V144.2H138.925C140.178 144.2 140.745 143.776 140.745 142.971C140.745 142.167 140.178 141.741 138.925 141.741H136.325ZM147.155 149.829C147.155 152.713 144.72 154.392 140.155 154.392H130.839V137.84H139.681C144.246 137.84 146.374 139.66 146.374 142.167C146.374 143.705 145.594 144.981 144.08 145.736C146.018 146.447 147.155 147.867 147.155 149.829Z" fill="#E5ECF1"/>
<path d="M148.974 146.943V137.84H154.556V146.778C154.556 149.308 155.527 150.254 157.086 150.254C158.646 150.254 159.617 149.308 159.617 146.778V137.84H165.102V146.943C165.102 151.91 162.122 154.771 157.04 154.771C151.955 154.771 148.974 151.91 148.974 146.943Z" fill="#E5ECF1"/>
<path d="M177.258 148.386V154.392H171.677V148.316L165.435 137.84H171.323L174.705 143.563L178.109 137.84H183.5L177.258 148.386Z" fill="#E5ECF1"/>
<path d="M189.134 78.0551C187.602 83.3186 186.423 95.6595 185.845 102.684C185.595 105.758 185.458 107.818 185.458 107.818H180.6L179.26 102.684L174.745 85.3782C174.745 85.3782 168.086 92.6556 164.256 99.0364C163.472 100.338 162.703 101.572 162 102.684C160.091 105.708 158.641 107.818 158.641 107.818H123.763C123.763 107.818 123.565 105.579 124.369 102.684C125.324 99.2268 127.7 94.8352 133.525 92.193C133.831 92.0502 134.147 91.917 134.477 91.7895C139.384 89.844 143.907 87.0191 147.8 84.0171L147.844 83.9848L147.918 83.9334C149.802 82.5895 173.62 65.581 177.427 61.7814L180.6 59.7617C180.6 59.7617 184.008 56.8359 187.183 59.7617C190.352 62.6894 191.331 70.5017 189.134 78.0551Z" fill="#405D76"/>
<path d="M177.29 66.8347C174.332 71.8316 138.64 94.8136 133.525 92.1924C133.832 92.0496 134.147 91.9164 134.477 91.7888C139.384 89.8434 143.907 87.0184 147.8 84.0165L147.844 83.9841L147.918 83.9327C149.803 82.5888 173.62 65.5803 177.427 61.7808C178.44 62.6412 178.884 64.1526 177.29 66.8347Z" fill="#283A4A"/>
<path d="M185.845 102.685H179.261L180.599 107.819H185.459C185.459 107.819 185.594 105.757 185.845 102.685Z" fill="#283A4A"/>
<path d="M123.762 107.819H158.643C158.643 107.819 160.09 105.708 161.999 102.685H124.369C123.567 105.58 123.762 107.819 123.762 107.819Z" fill="#283A4A"/>
<path d="M205.477 185.047H110.082C109.384 185.047 108.818 184.482 108.818 183.783C108.818 183.087 109.384 182.519 110.082 182.519H205.477C206.175 182.519 206.741 183.087 206.741 183.783C206.741 184.482 206.175 185.047 205.477 185.047Z" fill="#E5ECF1"/>
<path d="M205.477 195.881H110.082C109.384 195.881 108.818 195.315 108.818 194.617C108.818 193.918 109.384 193.353 110.082 193.353H205.477C206.175 193.353 206.741 193.918 206.741 194.617C206.741 195.315 206.175 195.881 205.477 195.881Z" fill="#E5ECF1"/>
<path d="M205.477 206.714H110.082C109.384 206.714 108.818 206.149 108.818 205.45C108.818 204.751 109.384 204.188 110.082 204.188H205.477C206.175 204.188 206.741 204.751 206.741 205.45C206.741 206.149 206.175 206.714 205.477 206.714Z" fill="#E5ECF1"/>
<path d="M205.477 217.547H110.082C109.384 217.547 108.818 216.982 108.818 216.283C108.818 215.587 109.384 215.019 110.082 215.019H205.477C206.175 215.019 206.741 215.587 206.741 216.283C206.741 216.982 206.175 217.547 205.477 217.547Z" fill="#E5ECF1"/>
<path d="M205.477 228.381H110.082C109.384 228.381 108.818 227.815 108.818 227.117C108.818 226.42 109.384 225.854 110.082 225.854H205.477C206.175 225.854 206.741 226.42 206.741 227.117C206.741 227.815 206.175 228.381 205.477 228.381Z" fill="#E5ECF1"/>
<path d="M223.597 17.7243V30.7543H91.9621V17.7243C91.9621 14.711 94.4044 12.2668 97.4197 12.2668H218.139C221.153 12.2668 223.597 14.711 223.597 17.7243Z" fill="#283A4A"/>
<path d="M190.084 21.5106C190.084 23.7131 188.299 25.4967 186.096 25.4967C183.894 25.4967 182.108 23.7131 182.108 21.5106C182.108 19.3082 183.894 17.5226 186.096 17.5226C188.299 17.5226 190.084 19.3082 190.084 21.5106Z" fill="#E5ECF1"/>
<path d="M203.986 21.5106C203.986 23.7131 202.201 25.4967 199.998 25.4967C197.796 25.4967 196.01 23.7131 196.01 21.5106C196.01 19.3082 197.796 17.5226 199.998 17.5226C202.201 17.5226 203.986 19.3082 203.986 21.5106Z" fill="#E5ECF1"/>
<path d="M217.827 21.5106C217.827 23.7131 216.042 25.4967 213.839 25.4967C211.637 25.4967 209.851 23.7131 209.851 21.5106C209.851 19.3082 211.637 17.5226 213.839 17.5226C216.042 17.5226 217.827 19.3082 217.827 21.5106Z" fill="#E5ECF1"/>
<path d="M565.823 488.361C553.151 480.445 523.181 502.548 508.114 528.488L520.737 487.799C525.726 483.088 534.526 476.406 548.483 470.785C570.19 462.049 591.759 448.886 579.062 440.956C567.167 433.522 540.024 452.552 524.279 476.372L540.488 424.12C543.796 421.347 548.864 417.934 556.189 414.985C569.866 409.478 583.461 401.182 575.461 396.185C568.516 391.849 553.333 401.81 543.246 415.231L548.5 398.294C551.019 393.332 554.601 386.243 560.44 379.668C573.972 364.435 583.975 347.52 572.963 345.594C561.94 343.665 545.276 373.1 543.555 399.132L540.852 407.848C542.437 388.898 534.701 366.364 525.216 365.952C515.793 365.545 522.305 380.079 530.466 392.359C536.679 401.709 538.605 409.253 539.199 413.175L526.432 454.338C528.857 424.322 516.61 388.767 501.602 388.118C486.649 387.471 496.98 410.529 509.932 430.018C519.718 444.744 522.802 456.656 523.771 462.915L508.46 512.273C510.295 482.638 498.229 448.414 483.506 447.778C468.554 447.131 476.303 464.044 490.812 486.093C500.671 501.078 504.198 514.757 505.447 521.987L498.16 545.479L502.433 546.804L505.377 537.311C509.785 532.672 519.04 524.715 535.244 518.192C556.948 509.454 578.518 496.291 565.823 488.361Z" fill="#CFDBE5"/>
<path d="M524.526 455.769C524.334 455.71 524.19 455.535 524.174 455.322C522.242 425 506.6 403.447 506.442 403.232C506.279 403.011 506.328 402.697 506.549 402.534C506.772 402.37 507.084 402.416 507.25 402.64C507.409 402.855 523.223 424.63 525.176 455.257C525.193 455.535 524.983 455.773 524.707 455.79L524.526 455.769Z" fill="#7798B6"/>
<path d="M549.263 387.44L549.229 387.427C548.97 387.328 548.845 387.035 548.945 386.78C557.993 363.916 570.313 351.601 570.435 351.482C570.633 351.285 570.951 351.287 571.143 351.485C571.339 351.681 571.335 351.999 571.139 352.193C571.018 352.313 558.842 364.494 549.876 387.147C549.781 387.393 549.513 387.518 549.263 387.44Z" fill="#7798B6"/>
<path d="M545.096 417.772L544.925 417.681C544.714 417.504 544.681 417.188 544.859 416.974C553.32 406.699 569.881 399.692 570.049 399.623C570.304 399.515 570.595 399.637 570.703 399.89C570.81 400.145 570.69 400.438 570.433 400.545C570.269 400.613 553.933 407.531 545.63 417.612C545.498 417.774 545.283 417.829 545.096 417.772Z" fill="#7798B6"/>
<path d="M525.577 480.697L525.438 480.626C525.21 480.468 525.157 480.156 525.316 479.93C541.223 457.374 567.052 449.333 567.311 449.255C567.574 449.175 567.856 449.324 567.936 449.59C568.016 449.853 567.867 450.133 567.603 450.215C567.346 450.291 541.838 458.24 526.135 480.508C526.005 480.689 525.777 480.76 525.577 480.697Z" fill="#7798B6"/>
<path d="M509.286 530.249L509.115 530.156C508.902 529.979 508.871 529.664 509.048 529.451C526.552 508.257 554.97 495.862 555.258 495.741C555.509 495.632 555.806 495.75 555.913 496.003C556.023 496.257 555.905 496.552 555.654 496.66C555.37 496.784 527.167 509.085 509.819 530.089C509.688 530.251 509.475 530.306 509.286 530.249Z" fill="#7798B6"/>
<path d="M506.581 513.623C506.391 513.564 506.246 513.391 506.231 513.181C504.021 482.075 488.891 460.498 488.739 460.285C488.579 460.06 488.632 459.748 488.857 459.586C489.082 459.426 489.394 459.479 489.556 459.704C489.71 459.919 504.997 481.711 507.228 513.109C507.248 513.385 507.042 513.623 506.764 513.644L506.581 513.623Z" fill="#7798B6"/>
<path d="M539.057 404.422C538.862 404.363 538.718 404.19 538.704 403.977C537.682 387.996 527.546 375.731 527.443 375.607C527.268 375.396 527.294 375.08 527.506 374.901C527.719 374.726 528.033 374.753 528.212 374.966C528.315 375.09 538.661 387.594 539.706 403.914C539.721 404.188 539.512 404.426 539.237 404.445L539.057 404.422Z" fill="#7798B6"/>
<path d="M187.337 350.488C195.976 372.558 192.418 393.414 172.758 401.515C172.758 401.515 151.483 396.347 149.249 370.43C148.514 361.926 148.523 352.433 148.009 343.022C146.964 323.733 143.728 304.781 127.475 295.381C127.475 295.381 150.067 297.229 173.249 326.453C179.438 334.256 184.197 342.453 187.337 350.488Z" fill="#7798B6"/>
<path d="M177.614 397.916C177.287 398.165 176.82 398.157 176.496 397.879C164.076 387.09 164.974 370.681 165.928 353.307C165.998 352.062 166.067 350.809 166.13 349.557C167.039 331.697 153.218 319.532 153.075 319.41C152.706 319.088 152.666 318.528 152.985 318.157C153.307 317.786 153.867 317.744 154.238 318.066C154.834 318.582 168.857 330.902 167.904 349.646C167.839 350.903 167.77 352.155 167.702 353.406C166.773 370.331 165.895 386.321 177.662 396.539C178.033 396.859 178.071 397.421 177.749 397.79L177.614 397.916Z" fill="#CFDBE5"/>
<path d="M171.875 453.437C171.581 454.233 171.269 454.966 170.955 455.638C169.244 459.299 167.422 461.084 167.422 461.084C167.422 461.084 124.462 461.571 123.486 425.487C123.39 421.969 122.991 418.501 122.319 415.094C116.166 383.604 87.4698 357.508 70.1433 344.842C70.1433 344.842 114.512 344.908 152.043 392.136C153.749 394.28 155.329 396.37 156.794 398.409C176.658 426.06 175.33 444.102 171.875 453.437Z" fill="#7798B6"/>
<path d="M171.877 453.439C171.581 454.233 171.271 454.968 170.957 455.638C146.877 457.73 140.612 432.884 135.558 412.843C134.403 408.26 133.312 403.927 132.076 400.095C125.391 379.38 106.113 366.841 105.921 366.718C105.432 366.407 105.293 365.76 105.603 365.271C105.914 364.786 106.561 364.647 107.046 364.959C107.865 365.482 127.15 378.031 134.068 399.456C135.322 403.348 136.422 407.715 137.587 412.333C142.776 432.913 148.655 456.228 171.877 453.439Z" fill="#CFDBE5"/>
<path d="M182.222 384.137C182.906 387.596 183.418 391.413 183.772 395.706C186.504 428.472 197.099 436.888 192.11 450.373C189.854 456.474 188.725 458.139 182.814 459.179C182.007 459.321 181.198 459.434 180.399 459.521C174.163 460.212 168.654 459.382 168.654 459.382C168.654 459.382 148.118 457.049 142.957 409.438C142.369 404.017 141.844 399.254 141.349 395.034C137.509 362.182 135.533 361.774 120.232 333.653C102.963 301.912 106.3 271.19 106.3 271.19C106.3 271.19 113.935 305.419 141.6 331.568C165.644 354.295 177.686 361.207 182.222 384.137Z" fill="#CFDBE5"/>
<path d="M182.816 459.179C182.007 459.323 181.198 459.434 180.399 459.521C176.338 455.979 170.822 449.499 164.873 437.727C158.388 424.886 157.674 413.373 156.918 401.178C156.297 391.207 155.658 380.896 151.74 369.227C143.258 343.97 131.562 336.788 131.444 336.719C131.025 336.472 130.885 335.923 131.134 335.505C131.381 335.082 131.926 334.941 132.348 335.189C132.847 335.484 144.701 342.691 153.423 368.661C157.419 380.551 158.064 390.983 158.692 401.072C159.431 413.074 160.137 424.412 166.459 436.926C172.946 449.765 178.895 456.102 182.816 459.179Z" fill="#7798B6"/>
<path d="M353.016 546.583C282.005 544.09 208.559 534.402 170.542 403.552C159.24 364.654 166.592 335.198 178.996 313.002C182.061 307.52 185.434 302.479 188.912 297.852L188.915 297.848C190.223 296.104 191.548 294.416 192.879 292.784C220.623 258.763 267.157 246.56 308.401 261.598C331.534 270.027 361.207 282.497 387.667 298.71C440.826 331.286 453.295 368.431 470.661 432.146C472.155 437.616 473.644 443.752 474.777 450.268C475.384 453.751 475.886 457.341 476.229 460.998C480.08 501.739 464.364 550.497 353.016 546.583Z" fill="#283A4A"/>
<path d="M476.229 460.998C473.869 467.621 470.511 474.365 466.037 480.773C452.607 500.012 424.648 523.261 367.696 524.763C365.189 524.827 362.715 524.858 360.274 524.858C338.514 524.858 319.324 522.235 301.79 516.878C283.451 511.276 267.436 502.822 252.834 491.041C228.436 471.356 208.33 442.558 187.652 397.672C179.481 379.944 175.248 361.972 175.061 344.267C174.953 333.708 176.268 323.234 178.996 313.002C182.061 307.52 185.434 302.479 188.912 297.852C188.03 299.887 187.176 302.013 186.365 304.232C178.925 324.635 173.803 357.089 191.649 395.825C227.949 474.611 270.042 522.912 367.582 520.356C422.691 518.907 449.577 496.66 462.42 478.248C469.131 468.637 472.926 458.914 474.777 450.268C475.384 453.751 475.886 457.341 476.229 460.998Z" fill="#405D76"/>
<path d="M370.717 389.475C351.23 395.936 303.627 412.87 282.943 406.013C282.073 405.724 281.249 405.393 280.476 405.014C278.222 403.919 276.41 402.437 275.14 400.51C267.035 388.16 258.992 336.38 262.605 305.936C263.056 302.137 263.275 298.006 263.349 293.672C263.456 287.289 263.243 280.459 262.974 273.583C261.954 247.729 257.88 229.877 268.94 223.595C278.869 217.955 291.427 213.546 299.437 211.631C304.4 210.443 312.519 207.959 318.211 208.073L342.868 212.554C342.868 212.554 364.144 216.102 369.055 219.729C373.963 223.347 376.474 239.301 385.342 253.917C394.211 268.535 396.138 283.188 387.669 299.234C380.298 313.187 381.596 307.893 380.631 330.791C379.445 358.843 408.766 376.868 370.717 389.475Z" fill="#E5ECF1"/>
<path d="M305.27 258.027C305.27 258.027 331.987 251.117 366.076 257.486L366.901 281.055C366.901 281.055 329.409 276.886 305.799 282.897L305.27 258.027Z" fill="#CFDBE5"/>
<path d="M335.965 238.121C335.606 238.121 335.24 238.112 334.865 238.093C320.267 237.341 306.884 224.453 306.323 223.905C305.927 223.521 305.919 222.889 306.306 222.493C306.69 222.099 307.322 222.089 307.718 222.474C307.849 222.603 321.131 235.382 334.968 236.096C348.23 236.794 349.827 223.643 349.89 223.083C349.949 222.535 350.446 222.139 350.99 222.198C351.539 222.257 351.935 222.75 351.877 223.298C351.86 223.45 350.113 238.121 335.965 238.121Z" fill="#CFDBE5"/>
<path d="M386.049 448.094C386.049 448.094 374.269 444.709 370.651 440.885L362.467 460.155L390.33 468.851C390.33 468.851 390.718 451.924 386.049 448.094Z" fill="#F79190"/>
<path d="M453.295 503.785L417.275 423.833C415.927 423.722 414.248 424.09 412.36 424.781C405.374 427.328 395.549 434.346 389.22 438.468C388.483 438.955 387.79 439.398 387.158 439.789C386.089 440.447 385.181 440.965 384.486 441.277C378.933 443.779 382.099 448.267 382.099 448.267C393.678 452.783 385.908 467.305 392.218 470.895C392.218 470.895 394.908 472.456 403.48 476.231C412.048 480.002 420.684 489.103 428.67 496.559C438.974 506.189 445.442 507.322 449.152 506.441C452.09 505.742 453.295 503.785 453.295 503.785Z" fill="#CFDBE5"/>
<path d="M453.295 503.785L417.275 423.833C415.927 423.722 414.248 424.09 412.36 424.781L449.152 506.441C452.09 505.742 453.295 503.785 453.295 503.785Z" fill="#7798B6"/>
<path d="M420.949 431.99L419.881 429.614C418.238 433.204 415.084 437.293 409.015 439.678C400.939 442.853 393.48 440.51 389.22 438.468C388.483 438.955 387.79 439.398 387.158 439.789C391.472 442.115 400.105 445.423 409.777 441.624C415.573 439.345 418.966 435.58 420.949 431.99Z" fill="#7798B6"/>
<path d="M407.588 472.749C407.319 472.157 406.676 471.801 406.012 471.923C405.223 472.066 404.704 472.818 404.847 473.604L405.855 479.157C405.998 479.941 406.752 480.463 407.536 480.32C408.323 480.177 408.844 479.425 408.701 478.639L407.689 473.086L407.588 472.749Z" fill="#44FC78"/>
<path d="M401.192 469.66C400.925 469.068 400.284 468.712 399.616 468.832C398.831 468.976 398.31 469.728 398.452 470.513L399.463 476.065C399.604 476.851 400.358 477.373 401.144 477.23C401.928 477.086 402.448 476.336 402.305 475.549L401.296 469.997L401.192 469.66Z" fill="#44FC78"/>
<path d="M412.741 476.437C412.472 475.845 411.829 475.487 411.165 475.61C410.377 475.751 409.857 476.505 410 477.291L411.01 482.844C411.153 483.628 411.905 484.148 412.691 484.005C413.476 483.864 413.997 483.11 413.854 482.324L412.842 476.772L412.741 476.437Z" fill="#44FC78"/>
<path d="M417.78 480.173C417.515 479.583 416.872 479.225 416.203 479.347C415.419 479.49 414.898 480.244 415.042 481.028L416.051 486.581C416.192 487.367 416.948 487.887 417.732 487.744C418.516 487.601 419.038 486.847 418.895 486.063L417.884 480.51L417.78 480.173Z" fill="#44FC78"/>
<path d="M422.815 484.456C422.548 483.866 421.905 483.508 421.24 483.63C420.452 483.773 419.933 484.525 420.075 485.311L421.086 490.864C421.229 491.648 421.981 492.17 422.765 492.027C423.551 491.884 424.073 491.13 423.93 490.346L422.917 484.793L422.815 484.456Z" fill="#44FC78"/>
<path d="M427.676 489.369C427.412 488.779 426.768 488.421 426.1 488.543C425.316 488.686 424.796 489.44 424.937 490.224L425.948 495.777C426.089 496.563 426.843 497.083 427.629 496.94C428.413 496.797 428.935 496.045 428.79 495.259L427.781 489.706L427.676 489.369Z" fill="#44FC78"/>
<path d="M298.882 447.791C298.882 447.791 310.41 443.626 313.764 439.57L323.217 458.252L295.998 468.79C295.998 468.79 294.479 451.926 298.882 447.791Z" fill="#F79190"/>
<path d="M235.506 507.849L266.104 425.672C267.444 425.472 269.142 425.727 271.072 426.288C278.215 428.363 288.482 434.712 295.075 438.401C295.842 438.839 296.563 439.235 297.22 439.577C298.334 440.166 299.272 440.621 299.986 440.887C305.695 443.011 302.835 447.702 302.835 447.702C291.583 452.98 300.308 466.951 294.25 470.956C294.25 470.956 291.669 472.692 283.371 477.03C275.072 481.365 267.065 491.024 259.596 498.996C249.958 509.294 243.577 510.857 239.819 510.227C236.842 509.724 235.506 507.849 235.506 507.849Z" fill="#CFDBE5"/>
<path d="M235.506 507.849L266.104 425.672C267.444 425.472 269.142 425.727 271.072 426.288L239.819 510.227C236.842 509.724 235.506 507.849 235.506 507.849Z" fill="#7798B6"/>
<path d="M262.984 434.055L263.892 431.615C265.771 435.087 269.191 438.955 275.407 440.931C283.674 443.558 290.963 440.723 295.074 438.401C295.842 438.839 296.563 439.235 297.22 439.577C293.072 442.189 284.679 446.065 274.777 442.924C268.839 441.037 265.203 437.504 262.984 434.055Z" fill="#7798B6"/>
<path d="M279.041 473.832C279.265 473.225 279.886 472.825 280.558 472.902C281.35 472.991 281.921 473.709 281.831 474.501L281.194 480.108C281.104 480.902 280.388 481.471 279.595 481.382C278.801 481.291 278.233 480.575 278.321 479.783L278.959 474.175L279.041 473.832Z" fill="#44FC78"/>
<path d="M285.214 470.322C285.44 469.713 286.059 469.315 286.731 469.391C287.523 469.481 288.094 470.197 288.003 470.99L287.367 476.598C287.277 477.39 286.562 477.961 285.77 477.872C284.976 477.782 284.407 477.067 284.496 476.273L285.134 470.665L285.214 470.322Z" fill="#44FC78"/>
<path d="M274.145 477.855C274.371 477.247 274.988 476.848 275.664 476.924C276.456 477.013 277.027 477.729 276.935 478.523L276.298 484.133C276.21 484.926 275.492 485.494 274.699 485.404C273.907 485.315 273.336 484.599 273.427 483.805L274.065 478.197L274.145 477.855Z" fill="#44FC78"/>
<path d="M269.365 481.919C269.591 481.312 270.21 480.914 270.882 480.99C271.676 481.079 272.247 481.797 272.155 482.589L271.518 488.197C271.428 488.991 270.711 489.56 269.919 489.47C269.127 489.379 268.558 488.663 268.645 487.869L269.283 482.263L269.365 481.919Z" fill="#44FC78"/>
<path d="M264.629 486.529C264.853 485.922 265.472 485.524 266.146 485.6C266.94 485.69 267.509 486.405 267.417 487.199L266.782 492.805C266.69 493.599 265.976 494.17 265.183 494.079C264.389 493.989 263.82 493.274 263.909 492.48L264.547 486.872L264.629 486.529Z" fill="#44FC78"/>
<path d="M260.106 491.757C260.332 491.151 260.949 490.751 261.623 490.828C262.417 490.917 262.986 491.633 262.896 492.427L262.259 498.035C262.169 498.828 261.453 499.398 260.66 499.306C259.868 499.217 259.297 498.501 259.386 497.707L260.024 492.099L260.106 491.757Z" fill="#44FC78"/>
<path d="M315.319 416.121C318.289 418.253 322.985 420.471 330.017 422.708C369.946 435.414 406.56 414.905 406.56 414.905C408.774 403.969 407.403 391.544 403.718 386.995C404.879 385.379 404.11 383.446 404.11 383.446L440.859 345.299C419.963 362.617 394.112 368.284 373.988 380.446H373.978C368.18 383.951 362.966 387.037 359.145 389.182C353.317 392.454 345.876 392.776 338.585 391.771C324.373 389.806 310.739 382.805 310.739 382.805C310.739 382.805 264.975 362.062 256.392 362.754C249.722 363.287 285.621 400.773 315.319 416.121Z" fill="#527697"/>
<path d="M256.392 362.754C256.392 362.754 227.429 347.122 210.653 359.206C179.973 381.299 232.03 423.802 291.578 444.557C351.128 465.314 370.462 462.483 370.462 462.483C370.462 462.483 383.401 458.922 378.809 437.956C378.809 437.956 344.484 424.905 326.623 411.235C308.763 397.563 296.588 380.812 256.392 362.754Z" fill="#527697"/>
<path d="M376.495 444.053C364.003 441.051 338.554 429.378 308.413 412.826C285.871 400.447 259.873 384.627 256.059 379.139C253.997 376.177 253.479 373.751 254.517 371.934C256.066 369.213 260.534 368.934 262.567 368.954C263.092 368.96 263.504 369.402 263.466 369.925C263.431 370.399 263.037 370.769 262.561 370.765C260.559 370.751 257.077 371.094 256.087 372.832C255.265 374.277 256.426 376.498 257.545 378.105C260.624 382.531 282.381 396.465 309.285 411.241C332.451 423.96 362.385 438.799 376.915 442.292L376.495 444.053Z" fill="#405D76"/>
<path d="M374.142 435.171C372.737 446.192 369.88 456.211 363.653 463.894C363.653 463.894 368.983 467.731 373.852 464.979C377.572 462.875 384.745 445.661 382.011 436.469C378.899 434.771 376.215 434.177 374.142 435.171Z" fill="#405D76"/>
<path d="M429.07 350.056C429.07 350.056 456.476 331.835 474.291 342.325C506.867 361.511 458.929 408.614 401.536 434.742C344.141 460.875 324.63 459.83 324.63 459.83C324.63 459.83 311.417 457.471 314.067 436.17C314.067 436.17 347.05 420.026 363.581 404.774C380.113 389.523 390.699 371.726 429.07 350.056Z" fill="#527697"/>
<path d="M378.943 444.572C375.783 445.614 372.568 446.657 369.251 447.702C356.412 451.743 341.752 455.975 328.475 459.234L328.427 461.132C340.416 458.21 354.485 454.246 369.796 449.428C372.784 448.488 375.836 447.496 378.893 446.491L378.943 444.572Z" fill="#405D76"/>
<path d="M316.931 442.029C329.093 437.893 353.364 423.934 381.861 404.689C403.171 390.296 427.608 372.154 430.905 366.343C432.684 363.202 432.98 360.74 431.782 359.025C429.987 356.459 425.514 356.591 423.488 356.796C422.967 356.85 422.597 357.329 422.683 357.847C422.761 358.317 423.188 358.647 423.662 358.599C425.655 358.403 429.153 358.424 430.297 360.065C431.247 361.428 430.295 363.744 429.33 365.45C426.671 370.138 406.282 386.011 380.848 403.188C358.945 417.983 330.5 435.504 316.349 440.316L316.931 442.029Z" fill="#405D76"/>
<path d="M318.458 432.968C320.87 443.815 324.633 453.529 331.538 460.608C331.538 460.608 326.583 464.92 321.481 462.624C317.583 460.871 308.862 444.388 310.743 434.984C313.686 433.006 316.303 432.171 318.458 432.968Z" fill="#405D76"/>
<path d="M374.65 220.043C374.65 220.043 419.232 280.533 429.405 310.659C439.576 340.785 414.892 362.195 414.892 362.195L391.971 370.791C391.971 370.791 368.41 264.404 374.65 220.043Z" fill="#527697"/>
<path d="M319.399 398.852C301.857 393.296 285.996 382.102 275.157 372.132C274.303 371.34 273.475 370.557 272.683 369.786C267.071 364.336 263.115 367.14 261.398 363.998C254.84 351.994 258.564 304.92 261.4 287.63C264.231 270.345 252.301 238.671 258.722 227.345C265.141 216.013 287.257 212.067 287.257 212.067C287.257 212.067 284.125 208.416 290.064 204.241C296.007 200.067 311.809 201.797 311.809 201.797C312.561 276.621 323.162 346.123 319.399 398.852Z" fill="#7798B6"/>
<path d="M302.156 377.403C301.682 377.403 301.265 377.056 301.191 376.575C293.209 324.671 301.101 227.05 301.181 226.071C301.227 225.533 301.699 225.133 302.238 225.175C302.776 225.221 303.176 225.693 303.132 226.231C303.053 227.21 295.177 324.603 303.125 376.276C303.207 376.811 302.839 377.309 302.306 377.391L302.156 377.403Z" fill="#E5ECF1"/>
<path d="M318.209 385.19C317.744 385.19 317.331 384.855 317.249 384.379C306.808 324.765 305.976 221.914 305.969 220.882C305.965 220.342 306.399 219.9 306.942 219.896H306.947C307.484 219.896 307.92 220.33 307.926 220.869C307.931 221.899 308.765 324.588 319.174 384.042C319.267 384.575 318.913 385.082 318.38 385.175L318.209 385.19Z" fill="#527697"/>
<path d="M300.884 220.283L300.631 220.25C292.364 218.048 287.304 213.167 287.093 212.962C286.706 212.585 286.699 211.964 287.078 211.578C287.455 211.193 288.073 211.185 288.46 211.562C288.507 211.608 293.384 216.295 301.136 218.358C301.655 218.499 301.966 219.034 301.829 219.556C301.712 219.993 301.315 220.283 300.884 220.283Z" fill="#527697"/>
<path d="M395.39 366.189C395.39 366.189 389.134 387.244 365.865 397.272C362.979 340.197 356.423 275.016 347.975 205.678C347.975 205.678 356.869 204.112 360.581 209.198C362.18 211.387 362.524 215.099 362.524 215.099C362.524 215.099 367.068 215.979 372.05 218.299C377.03 220.614 376.458 223.804 377.648 231.891C378.836 239.973 391.325 252.493 395.39 269.448C399.459 286.402 388.681 297.216 385.316 311.441C381.952 325.665 395.39 366.189 395.39 366.189Z" fill="#7798B6"/>
<path d="M375.413 375.017C374.886 375.017 374.45 374.597 374.437 374.067C372.187 296.42 358.005 227.04 357.862 226.349C357.752 225.82 358.093 225.302 358.622 225.194C359.149 225.084 359.669 225.424 359.775 225.953C359.922 226.646 374.136 296.184 376.392 374.01C376.407 374.551 375.983 375 375.442 375.017H375.413Z" fill="#E5ECF1"/>
<path d="M353.992 222.434C353.524 222.434 353.109 222.097 353.029 221.621C352.94 221.088 353.296 220.584 353.827 220.492C353.895 220.481 360.154 219.346 361.593 214.804C361.755 214.29 362.305 214.003 362.819 214.166C363.335 214.33 363.621 214.88 363.457 215.394C361.656 221.082 354.463 222.369 354.156 222.42L353.992 222.434Z" fill="#527697"/>
<path d="M373.135 375.017C372.646 375.017 372.223 374.654 372.164 374.155C365.281 316.914 354.402 225.422 354.295 224.505C354.229 223.97 354.615 223.483 355.15 223.42C355.681 223.353 356.172 223.74 356.237 224.274C356.345 225.192 367.222 316.682 374.108 373.923C374.17 374.458 373.79 374.945 373.253 375.01L373.135 375.017Z" fill="#527697"/>
<path d="M314.756 346.024L312.553 377.469C312.553 377.469 275.157 372.132 256.799 367.451C251.454 366.09 245.448 364.336 239.954 361.414C229.822 356.027 221.415 346.652 222.036 328.374C222.232 322.505 223.367 315.717 225.666 307.846C239.033 262.173 261.4 223.831 261.4 223.831C290.199 236.155 287.776 256.668 287.776 256.668C279.56 278.576 261.4 325.244 261.4 325.244C271.938 338.118 314.756 346.024 314.756 346.024Z" fill="#7798B6"/>
<path d="M261.398 326.219C261.219 326.219 261.04 326.171 260.882 326.072C257.705 324.106 249.04 322.065 248.953 322.044C248.425 321.923 248.098 321.393 248.222 320.87C248.344 320.343 248.871 320.017 249.396 320.139C249.703 320.211 255.775 321.641 259.792 323.35C259.202 322.043 258.25 320.647 256.915 319.13C256.559 318.725 256.599 318.106 257.005 317.748C257.41 317.392 258.029 317.43 258.385 317.838C260.692 320.459 261.992 322.829 262.363 325.084C262.426 325.461 262.261 325.842 261.943 326.055C261.777 326.166 261.587 326.219 261.398 326.219Z" fill="#527697"/>
<path d="M239.954 361.414C229.822 356.027 221.415 346.652 222.036 328.374C230.065 332.571 244.055 342.752 239.954 361.414Z" fill="#527697"/>
<path d="M291.235 341.2L290.989 341.168C272.462 336.39 261.214 326.392 260.743 325.97C260.414 325.673 260.325 325.193 260.526 324.799C273.735 298.826 282.094 278.199 286.828 259.889C286.963 259.365 287.498 259.049 288.022 259.186C288.545 259.321 288.859 259.854 288.722 260.378C283.994 278.669 275.696 299.217 262.618 324.997C265.12 327.059 275.717 335.21 291.479 339.274C292 339.407 292.316 339.94 292.181 340.465C292.067 340.905 291.669 341.2 291.235 341.2Z" fill="#527697"/>
<path d="M283.817 274.453C283.604 274.453 283.39 274.384 283.21 274.242C282.787 273.905 282.717 273.29 283.053 272.867L289.916 264.24C290.253 263.818 290.866 263.747 291.29 264.084C291.713 264.421 291.783 265.036 291.446 265.459L284.582 274.086C284.39 274.327 284.104 274.453 283.817 274.453Z" fill="#527697"/>
<path d="M283.883 196.648L375.029 210.213C367.936 201.003 377.511 189.201 381.04 171.06C382.814 161.942 381.642 153.876 379.9 147.899C379.443 141.08 377.892 135.189 374.667 131.302C360.088 113.724 347.244 114.411 347.244 114.411C340.722 111.421 319.164 109.37 304.946 126.63L304.941 126.634C304.49 127.019 291.538 138.154 289.535 157.44C287.628 175.823 293.354 189.903 283.883 196.648Z" fill="#283A4A"/>
<path d="M333.034 114.748C333.034 114.748 332.678 97.2331 314.752 98.1259C296.826 99.0168 287.085 120.942 303.328 131.871C319.572 142.803 333.034 114.748 333.034 114.748Z" fill="#283A4A"/>
<path d="M318.441 188.27C318.441 188.27 297.248 176.418 301.413 151.737C305.582 127.053 321.827 112.201 346.743 119.357C346.743 119.357 344.326 190.705 318.441 188.27Z" fill="#283A4A"/>
<path d="M377.374 142.893C377.374 142.893 379.535 164.079 375.674 167.144C371.814 170.209 368.029 161.833 368.029 161.833C368.029 161.833 373.293 143.123 377.374 142.893Z" fill="#283A4A"/>
<path d="M367.618 169.067C367.618 169.067 373.938 163.516 376.03 170.319C378.124 177.123 373.875 189.627 366.008 186.308L367.618 169.067Z" fill="#283A4A"/>
<path d="M372.187 176.635C372.095 176.618 372.006 176.601 371.916 176.584C372.006 176.059 372.097 175.522 372.187 174.974C372.373 173.858 372.558 172.693 372.746 171.48C372.828 171.488 372.912 171.498 372.996 171.507C372.722 173.319 372.455 175.025 372.187 176.635Z" fill="#283A4A"/>
<path d="M349.189 199.64L346.583 217.155C346.583 217.155 335.864 230.905 311.03 208.479C313.857 201.348 318.188 192.186 317.078 185.154C317.078 185.154 318.892 186.818 322.012 188.801C322.65 189.211 323.335 189.637 324.066 190.082C330.523 193.998 340.368 199.02 349.189 199.64Z" fill="#F79190"/>
<path d="M349.19 199.64L347.968 207.839C340.726 205.056 328.197 199.016 322.012 188.801C322.65 189.21 323.335 189.637 324.066 190.082C330.523 193.998 340.368 199.02 349.19 199.64Z" fill="#B66E6E"/>
<path d="M372.996 169.845C372.722 171.658 372.455 173.365 372.187 174.974C370.196 187.056 368.37 193.564 365.016 196.14C348.03 209.172 318.077 186.142 317.116 185.4L317.093 185.377C316.994 183.968 316.928 182.578 316.878 181.206C316.482 169.571 317.918 159.037 320.558 149.216C321.574 138.598 329.309 129.72 339.757 127.58C350.583 125.368 359.124 131.256 364.405 133.784C372.377 137.606 376.026 149.182 373.78 164.572C373.51 166.421 373.253 168.18 372.996 169.845Z" fill="#F79190"/>
<path d="M324.664 178.408C324.538 178.611 321.077 184.196 317.116 185.398L317.108 185.4L317.093 185.379C316.994 183.97 316.924 182.576 316.878 181.206C317.019 181.202 320.851 181.109 324.664 178.408Z" fill="#CD7978"/>
<path d="M354.023 189.311C355.616 189.435 356.861 188.919 356.939 188.885C357.2 188.775 357.32 188.476 357.209 188.215C357.099 187.956 356.8 187.834 356.539 187.945C356.516 187.954 354.103 188.938 351.933 187.587C351.693 187.436 351.377 187.509 351.228 187.749C351.078 187.988 351.15 188.304 351.39 188.453C352.287 189.013 353.2 189.247 354.023 189.311Z" fill="#B66E6E"/>
<path d="M363.449 180.306C363.449 180.306 355.746 179.71 346.898 178.32C346.898 178.32 347.433 185.209 354.381 186.273C361.333 187.337 363.449 180.306 363.449 180.306Z" fill="#E5ECF1"/>
<path d="M356.772 176.357L356.452 175.99C356.345 175.659 356.522 175.303 356.855 175.192L361.001 173.83L358.54 171.338C358.407 171.201 358.34 171.012 358.361 170.824L359.126 163.965C359.164 163.619 359.477 163.369 359.825 163.407C360.168 163.445 360.421 163.758 360.383 164.104L359.65 170.666L362.616 173.668C362.77 173.822 362.831 174.047 362.781 174.258C362.728 174.471 362.57 174.642 362.364 174.709L357.249 176.39L356.772 176.357Z" fill="#B66E6E"/>
<path d="M352.312 147.079C352.312 147.079 355.321 147.834 353.831 150.473C352.342 153.113 346.675 149.115 341.524 153.621C341.524 153.621 340.658 146.629 352.312 147.079Z" fill="#283A4A"/>
<path d="M366.149 149.138C366.149 149.138 363.052 148.984 363.706 151.944C364.363 154.902 370.95 152.728 374.565 158.538C374.565 158.538 377.428 152.102 366.149 149.138Z" fill="#283A4A"/>
<path d="M349.553 164.692C349.262 166.651 348.139 168.104 347.044 167.94C345.95 167.778 345.299 166.061 345.588 164.104C345.881 162.147 347.002 160.693 348.099 160.855C349.193 161.018 349.844 162.737 349.553 164.692Z" fill="#283A4A"/>
<path d="M368.913 167.574C368.622 169.531 367.496 170.986 366.404 170.822C365.309 170.66 364.656 168.941 364.948 166.984C365.239 165.027 366.362 163.575 367.458 163.737C368.553 163.899 369.204 165.617 368.913 167.574Z" fill="#283A4A"/>
<path d="M323.103 164.285C323.103 164.285 316.844 152.612 309.881 160.017C304.147 166.118 310.343 185.561 320.893 180.365L323.103 164.285Z" fill="#F79190"/>
<path d="M320.092 177.174C319.686 177.113 319.381 176.757 319.399 176.338C319.713 168.256 313.461 164.491 313.197 164.335C312.81 164.106 312.679 163.609 312.904 163.221C313.132 162.833 313.627 162.701 314.015 162.928C314.318 163.103 321.378 167.317 321.024 176.401C321.007 176.851 320.628 177.201 320.181 177.182L320.092 177.174Z" fill="#B66E6E"/>
<path d="M313.303 171.176C313.071 171.142 312.854 171.005 312.725 170.786C312.496 170.399 312.622 169.901 313.008 169.67C313.37 169.457 316.593 167.612 318.921 168.591C319.334 168.766 319.528 169.244 319.355 169.657C319.18 170.072 318.7 170.266 318.289 170.091C316.953 169.529 314.567 170.637 313.84 171.071C313.673 171.17 313.482 171.203 313.303 171.176Z" fill="#B66E6E"/>
<circle cx="346.214" cy="163.47" r="10.7077" fill="#E5ECF1" fill-opacity="0.3"/>
<circle cx="373.34" cy="166.326" r="10.7077" fill="#E5ECF1" fill-opacity="0.3"/>
<path d="M350.372 154.369C345.137 152.369 339.253 155.001 337.252 160.234C335.255 165.469 337.886 171.353 343.119 173.352C348.352 175.35 354.238 172.72 356.237 167.485C358.237 162.252 355.605 156.366 350.372 154.369ZM342.5 174.974C336.373 172.634 333.289 165.743 335.632 159.614C337.972 153.486 344.861 150.406 350.99 152.745C357.12 155.087 360.2 161.978 357.86 168.105C355.519 174.233 348.628 177.315 342.5 174.974Z" fill="#44FC78"/>
<path d="M336.003 161.205L335.688 161.127C329.25 158.176 323.206 160.426 323.147 160.449C322.699 160.621 322.197 160.398 322.026 159.95C321.856 159.501 322.079 158.999 322.526 158.827C322.802 158.723 329.316 156.297 336.411 159.547C336.849 159.747 337.039 160.263 336.839 160.699C336.687 161.034 336.348 161.222 336.003 161.205Z" fill="#44FC78"/>
<path d="M376.693 157.345C371.46 155.344 365.576 157.977 363.577 163.209C361.578 168.444 364.209 174.328 369.444 176.327C374.677 178.328 380.561 175.695 382.559 170.46C384.558 165.227 381.927 159.343 376.693 157.345ZM368.821 177.951C362.696 175.609 359.612 168.718 361.953 162.591C364.295 156.461 371.185 153.381 377.313 155.721C383.443 158.062 386.523 164.953 384.183 171.081C381.842 177.21 374.951 180.29 368.821 177.951Z" fill="#44FC78"/>
<path d="M357.299 163.065L356.97 162.758C356.715 162.351 356.836 161.816 357.242 161.561C357.366 161.485 360.257 159.718 363.265 162.027C363.647 162.319 363.718 162.865 363.425 163.244C363.133 163.624 362.589 163.697 362.208 163.404C360.149 161.822 358.184 163.021 358.167 163.032C357.893 163.204 357.564 163.204 357.299 163.065Z" fill="#44FC78"/>
<path d="M363.67 123.101C370.892 126.356 376.573 132.369 379.103 139.879C380.688 144.583 382.019 150.789 375.404 149.987C357.366 147.796 347.712 129.078 347.712 129.078C347.712 129.078 344.2 146.33 330.03 144.221C315.862 142.112 316.313 131.427 324.367 125.383C330.929 120.459 347.64 115.877 363.67 123.101Z" fill="#283A4A"/>
<path d="M330.588 142.24C330.588 142.24 322.526 150.889 325.42 160.208C328.311 169.526 328.507 176.991 325.49 181.992C325.49 181.992 324.712 172.185 321.121 164.749C318.177 158.647 315.424 153.998 317.552 146.957C319.012 142.122 322.547 137.477 330.588 142.24Z" fill="#283A4A"/>
<path d="M286.145 399.871L277.818 384.037C275.744 380.089 278.635 375.356 283.097 375.404L413.957 376.816L410.098 397.086L286.145 399.871Z" fill="#283A4A"/>
<path d="M407.837 395.412H290.727C287.902 395.412 285.863 393.122 286.175 390.297L294.161 317.942C294.471 315.115 297.016 312.823 299.841 312.823H416.953C419.778 312.823 421.815 315.115 421.505 317.942L413.521 390.297C413.209 393.122 410.664 395.412 407.837 395.412Z" fill="#283A4A"/>
<path d="M408.401 401.715H289.676C287.066 401.715 285.056 399.412 285.408 396.825L286.539 388.554H413.957L412.67 397.992C412.377 400.126 410.556 401.715 408.401 401.715Z" fill="#283A4A"/>
<path d="M288.983 398.532L288.859 398.525C288.317 398.458 287.932 397.963 288.001 397.423L297.722 319.922C297.789 319.381 298.282 318.997 298.825 319.065C299.365 319.134 299.75 319.627 299.681 320.168L289.962 397.668C289.897 398.167 289.474 398.532 288.983 398.532Z" fill="#344B60"/>
<path d="M345.957 355.405C345.508 361.218 349.789 366.227 355.517 366.59C361.245 366.958 366.253 362.541 366.699 356.73C367.148 350.918 362.865 345.91 357.139 345.544C351.409 345.179 346.403 349.595 345.957 355.405Z" fill="#44FC78"/>
<path d="M471.974 545.415L471.87 531.022L471.824 524.561L471.719 510.176L471.674 503.715L471.632 498.322L471.573 489.878L471.571 489.322L471.523 482.861L471.428 468.47L471.379 462.006L471.318 453.12L567.622 452.438L567.879 489.198L567.944 497.633L568.286 546.125L471.982 546.804L471.974 545.415Z" fill="#405D76"/>
<path d="M570.835 452.416L468.152 453.143L468.066 440.979L570.752 440.252L570.835 452.416Z" fill="#405D76"/>
<path d="M567.694 459.133L471.388 459.815L471.343 453.122L567.647 452.438L567.694 459.133Z" fill="#344B60"/>
<path d="M525.498 546.525L517.057 546.584L516.309 440.983L524.751 440.922L525.498 546.525Z" fill="#CFDBE5"/>
<path d="M567.944 497.633L471.634 498.319L471.577 489.88L567.879 489.197L567.944 497.633Z" fill="#CFDBE5"/>
<path d="M516.425 452.804L524.866 452.743L524.911 459.436L516.473 459.497L516.425 452.804Z" fill="#BAC5CE"/>
<path d="M630.758 481.896L631.215 546.198L546.559 546.8L546.1 482.499L630.758 481.896Z" fill="#44FC78"/>
<path d="M560.805 482.392L546.205 497.202L546.172 492.763L556.366 482.425L560.805 482.392Z" fill="#44FC78"/>
<path d="M633.614 489.356L543.349 489.999L543.273 479.305L633.539 478.663L633.614 489.356Z" fill="#44FC78"/>
<path d="M630.853 495.263L546.195 495.864L546.155 489.98L630.81 489.377L630.853 495.263Z" fill="#31A552"/>
<path d="M623.203 546.313L615.783 546.366L615.303 478.795L622.721 478.741L623.203 546.313Z" fill="#CFDBE5"/>
<path d="M615.379 489.489L622.797 489.434L622.839 495.318L615.421 495.373L615.379 489.489Z" fill="#BAC5CE"/>
<path d="M561.552 546.752L554.131 546.804L553.652 479.232L561.072 479.179L561.552 546.752Z" fill="#CFDBE5"/>
<path d="M553.728 489.925L561.148 489.873L561.188 495.757L553.77 495.809L553.728 489.925Z" fill="#BAC5CE"/>
<path d="M127.784 546.804H6.1543L22.9077 411.446H111.032L127.784 546.804Z" fill="#344B60"/>
<path d="M49.2858 417.745C48.3454 417.72 47.6106 416.929 47.6582 415.988C47.8619 411.909 48.5777 401.146 50.7972 390.495C54.7015 371.753 61.2269 362.25 70.1928 362.25C79.1758 362.25 85.5357 371.762 89.0992 390.524C91.1208 401.174 91.6367 411.935 91.7642 416.019C91.7947 416.957 91.0466 417.736 90.1043 417.743C89.1887 417.753 88.4368 417.027 88.4139 416.112C88.037 400.601 84.2375 365.612 70.1928 365.612C56.1253 365.612 51.671 400.624 51.0066 416.142C50.9667 417.058 50.2014 417.77 49.2858 417.745Z" fill="#283A4A"/>
<path d="M121.63 546.804H0L16.7534 411.446H104.878L121.63 546.804Z" fill="#405D76"/>
<path d="M60.1914 495.284V509.633C58.3069 508.457 52.4229 504.21 48.985 495.284H60.1914ZM46.3238 495.284C47.622 498.946 49.4343 502.268 51.7071 505.154C52.8836 506.646 54.1647 508.009 55.5257 509.218C47.5916 507.528 40.6092 502.399 36.6003 495.284H46.3238ZM33.0196 479.45C33.2709 475.65 34.2665 472.001 35.9797 468.597H46.0021C44.8105 472.117 44.1385 475.764 44.0033 479.45H33.0196ZM60.1914 481.942V492.792H48.1303C47.1195 489.436 46.5656 485.789 46.4799 481.942H60.1914ZM37.3979 466.106C41.443 459.753 47.8314 455.242 55.1145 453.582C53.683 455.088 52.3391 456.738 51.1132 458.495C49.4514 460.88 48.0504 463.439 46.9406 466.106H37.3979ZM60.1914 468.597V479.45H46.4951C46.6417 475.755 47.3631 472.106 48.6424 468.597H60.1914ZM49.6551 466.106C50.6126 463.968 51.7776 461.908 53.1177 459.978C55.7218 456.224 58.3297 453.85 59.4033 452.944C59.6641 452.929 59.9268 452.914 60.1914 452.902V466.106H49.6551ZM45.5395 492.792H35.3553C33.8439 489.36 33.0387 485.711 32.9626 481.942H43.9881C44.07 485.753 44.5915 489.4 45.5395 492.792ZM89.9101 481.942C89.8359 485.711 89.0307 489.36 87.5192 492.792H77.6244C78.5724 489.4 79.094 485.753 79.1759 481.942H89.9101ZM79.1606 479.45C79.0255 475.764 78.3535 472.117 77.1638 468.597H86.8968C88.6081 471.997 89.6018 475.646 89.8549 479.45H79.1606ZM62.6832 479.45V468.597H74.5197C75.7989 472.094 76.5241 475.742 76.6688 479.45H62.6832ZM76.2234 466.106C75.1155 463.439 73.7106 460.88 72.0507 458.495C70.8476 456.771 69.5323 455.151 68.1313 453.668C75.2564 455.394 81.5096 459.873 85.4786 466.106H76.2234ZM62.6832 466.106V452.902C63.0506 452.918 63.4218 452.941 63.7911 452.971C65.3406 454.286 70.1986 458.788 73.5032 466.106H62.6832ZM74.1846 495.284C73.0158 498.331 71.4625 501.105 69.5609 503.536C66.5913 507.328 63.6217 509.254 62.6832 509.808V495.284H74.1846ZM71.4568 505.154C73.7297 502.268 75.5419 498.946 76.8402 495.284H86.2743C82.2863 502.375 75.5952 507.362 67.7296 509.136C69.0564 507.948 70.3071 506.612 71.4568 505.154ZM62.6832 492.792V481.942H76.6841C76.5984 485.775 76.0426 489.425 75.0299 492.792H62.6832ZM61.4363 450.384C44.3593 450.384 30.4631 464.278 30.4631 481.355C30.4631 498.434 44.3593 512.329 61.4363 512.329C78.5153 512.329 92.4096 498.434 92.4096 481.355C92.4096 464.278 78.5153 450.384 61.4363 450.384Z" fill="#344B60"/>
<path d="M45.6156 418.227C45.6156 420.521 43.7557 422.382 41.4619 422.382C39.1681 422.382 37.3083 420.521 37.3083 418.227C37.3083 415.933 39.1681 414.075 41.4619 414.075C43.7557 414.075 45.6156 415.933 45.6156 418.227Z" fill="#344B60"/>
<path d="M88.1208 418.227C88.1208 420.521 86.261 422.382 83.9672 422.382C81.6734 422.382 79.8135 420.521 79.8135 418.227C79.8135 415.933 81.6734 414.075 83.9672 414.075C86.261 414.075 88.1208 415.933 88.1208 418.227Z" fill="#344B60"/>
<path d="M41.5629 417.745C40.5901 417.718 39.8306 416.9 39.8801 415.929C40.0895 411.709 40.83 400.582 43.1257 389.566C47.1613 370.19 53.9095 360.364 63.1819 360.364C72.4695 360.364 79.0463 370.199 82.7279 389.599C84.8199 400.611 85.3548 411.739 85.4862 415.96C85.5166 416.93 84.7419 417.734 83.771 417.743C82.8231 417.753 82.0464 417.003 82.0217 416.057C81.6314 400.019 77.7043 363.841 63.1819 363.841C48.6347 363.841 44.028 400.042 43.3408 416.089C43.3009 417.035 42.509 417.772 41.5629 417.745Z" fill="#283A4A"/>
<path d="M129.407 473.716H129.402C128.654 473.684 128.079 472.715 128.145 471.594C128.364 467.88 129.109 459.727 131.574 451.479C135.99 436.701 143.802 428.891 154.169 428.891C164.55 428.891 172.229 436.716 176.375 451.522C178.684 459.771 179.274 467.922 179.424 471.639C179.472 472.766 178.874 473.714 178.126 473.714C177.437 473.714 176.868 472.909 176.826 471.874C176.679 468.422 176.114 460.623 173.949 452.942C170.184 439.579 163.529 432.806 154.169 432.806C144.769 432.806 137.966 439.629 133.944 453.085C131.648 460.764 130.946 468.502 130.738 471.934C130.675 472.964 130.093 473.747 129.407 473.716Z" fill="#283A4A"/>
<path d="M215.461 546.804H90.5897L102.083 458.805H203.965L215.461 546.804Z" fill="#31A552"/>
<path d="M208.88 546.804H84.0089L95.5047 458.805H197.384L208.88 546.804Z" fill="#44FC78"/>
<path d="M162.037 506.766C160.485 503.441 157.076 501.746 153.56 500.656C149.534 499.413 145.369 498.965 143.682 497.781C143.167 497.423 142.887 497.001 142.9 496.466C142.932 495.276 143.985 494.305 147.126 494.277H147.13C147.335 494.275 147.543 494.277 147.766 494.284C150.762 494.366 153.914 495.236 157.23 496.925C157.476 497.052 157.725 497.182 157.975 497.315L158.919 495.21L161.974 488.406C160.076 487.27 157.843 486.404 155.46 485.808C154.129 485.469 152.749 485.214 151.354 485.043L151.451 481.65L151.516 479.4L144.078 479.187L143.915 484.938C135.231 485.903 130.765 490.795 130.595 496.753C130.54 498.769 130.932 500.422 131.644 501.788C132.566 503.572 134.031 504.866 135.745 505.853C138.689 507.545 142.371 508.31 145.329 509.026C148.362 509.759 150.634 510.436 150.591 511.992C150.554 513.259 149.266 513.962 145.735 513.863C144.265 513.819 142.717 513.6 141.187 513.238C138.49 512.603 135.828 511.514 133.645 510.139L129.381 519.1C130.51 519.838 131.894 520.518 133.453 521.102C136.194 522.134 139.474 522.878 142.832 523.173L142.742 526.385L142.674 528.766L150.109 528.975L150.275 523.122C158.489 521.928 162.743 517.089 162.907 511.392C162.96 509.57 162.635 508.047 162.037 506.766Z" fill="#31A552"/>
<path d="M174.454 466.791C174.454 469.115 172.665 471 170.456 471C168.25 471 166.463 469.115 166.463 466.791C166.463 464.469 168.25 462.584 170.456 462.584C172.665 462.584 174.454 464.469 174.454 466.791Z" fill="#31A552"/>
<path d="M126.206 466.791C126.206 469.115 124.416 471 122.21 471C120.002 471 118.213 469.115 118.213 466.791C118.213 464.469 120.002 462.584 122.21 462.584C124.416 462.584 126.206 464.469 126.206 466.791Z" fill="#31A552"/>
<path d="M122.113 467.966C122.783 467.966 123.345 467.459 123.417 466.791C123.841 462.858 124.668 457.469 126.269 452.103C130.293 438.647 137.096 431.824 146.494 431.824C155.854 431.824 162.511 438.599 166.276 451.96C167.799 457.364 168.528 462.811 168.876 466.768C168.937 467.444 169.501 467.966 170.182 467.966C170.951 467.966 171.555 467.307 171.486 466.54C171.13 462.329 170.359 456.464 168.699 450.538C164.555 435.734 156.876 427.91 146.494 427.91C136.129 427.91 128.317 435.719 123.899 450.496C122.128 456.424 121.245 462.3 120.807 466.515C120.727 467.292 121.334 467.966 122.113 467.966Z" fill="#283A4A"/>
<path d="M620.079 292.853L626.119 293.024L626.264 287.902C626.273 287.588 626.506 287.327 626.814 287.281C634.095 286.227 638.54 282.136 638.708 276.345C638.753 274.746 638.485 273.311 637.912 272.079C636.715 269.519 634.187 267.716 629.953 266.405C628.436 265.934 626.858 265.573 625.466 265.253C623.157 264.726 621.162 264.269 620.041 263.481C619.333 262.99 618.981 262.369 618.998 261.646C619.034 260.393 619.894 258.897 623.801 258.861C624.012 258.859 624.227 258.861 624.455 258.868C627.505 258.952 630.734 259.851 634.05 261.539L634.185 261.609L637.607 253.988C635.953 253.066 634.021 252.326 631.859 251.785C630.587 251.461 629.253 251.214 627.891 251.046C627.56 251.006 627.317 250.721 627.326 250.39L627.467 245.473L621.427 245.3L621.282 250.321C621.277 250.641 621.031 250.908 620.713 250.944C613.026 251.798 608.334 255.918 608.165 261.962C608.113 263.724 608.437 265.289 609.124 266.606C609.899 268.104 611.138 269.33 612.912 270.349C615.448 271.803 618.56 272.544 621.305 273.197L622.186 273.406C624.874 274.057 627.924 274.794 627.861 276.973C627.842 277.609 627.568 278.471 626.365 278.976C625.497 279.339 624.206 279.494 622.415 279.44C620.947 279.398 619.396 279.185 617.806 278.808C615.328 278.226 612.868 277.255 610.801 276.05L607.152 283.716C608.128 284.304 609.273 284.845 610.561 285.324C613.259 286.339 616.478 287.051 619.63 287.331C619.969 287.359 620.226 287.649 620.216 287.987L620.079 292.853ZM626.746 294.33H626.726L619.4 294.121L618.95 293.921L618.773 293.458L618.912 288.553C615.842 288.231 612.737 287.519 610.108 286.529C608.519 285.935 607.125 285.25 605.972 284.494C605.703 284.319 605.604 283.969 605.743 283.68L609.944 274.855C610.023 274.687 610.171 274.563 610.346 274.512C610.523 274.461 610.715 274.489 610.87 274.586C612.937 275.89 615.505 276.945 618.103 277.556C619.609 277.912 621.073 278.115 622.453 278.153C624.033 278.199 625.181 278.075 625.87 277.788C626.475 277.535 626.567 277.23 626.574 276.937C626.603 275.886 624.374 275.26 621.884 274.658L621.008 274.449C618.177 273.777 614.968 273.014 612.273 271.466C610.276 270.318 608.873 268.923 607.98 267.2C607.194 265.687 606.823 263.911 606.878 261.924C607.061 255.432 612.076 250.797 620.013 249.731L620.159 244.62L620.361 244.171L620.82 243.996L628.147 244.205C628.501 244.216 628.782 244.513 628.771 244.867L628.63 249.845C629.845 250.015 631.032 250.247 632.173 250.536C634.678 251.164 636.894 252.05 638.763 253.167C639.043 253.335 639.151 253.687 639.02 253.984L635.079 262.761L634.697 263.108L634.183 263.064C633.943 262.932 633.703 262.807 633.465 262.685C630.322 261.084 627.279 260.231 624.417 260.153C624.204 260.146 624.006 260.146 623.816 260.146C622.223 260.161 620.321 260.441 620.285 261.678C620.281 261.865 620.33 262.118 620.778 262.426C621.693 263.069 623.576 263.5 625.754 264C627.168 264.324 628.771 264.691 630.334 265.175C633.233 266.073 637.291 267.709 639.077 271.535V271.537C639.737 272.951 640.046 274.58 639.994 276.383C639.816 282.608 635.058 287.203 627.536 288.471L627.387 293.704L627.185 294.153L626.746 294.33Z" fill="#CFDBE5"/>
<path d="M406.232 0.738511C406.232 1.14588 406.562 1.47522 406.967 1.47522H589.247C589.654 1.47522 589.983 1.14588 589.983 0.738511C589.983 0.331144 589.654 -5.73397e-05 589.247 -5.73397e-05H406.967C406.562 -5.73397e-05 406.232 0.331144 406.232 0.738511Z" fill="#CFDBE5"/>
<path d="M214.13 264.608H101.467C101.099 264.608 100.759 264.859 100.7 265.221C100.625 265.685 100.977 266.085 101.427 266.085H214.13C214.538 266.085 214.867 265.754 214.867 265.346C214.867 264.939 214.538 264.608 214.13 264.608Z" fill="#CFDBE5"/>
<path d="M82.6574 285.614H82.6631H82.6574ZM69.0563 305.459L69.338 305.518L78.3305 309.502L76.7753 300.001C76.743 299.801 76.8001 299.596 76.9295 299.441C80.2094 295.531 81.9493 290.751 81.9626 285.612V285.429C81.9892 273.473 72.2867 263.724 60.3322 263.698H60.1018C48.1759 263.698 38.4505 273.4 38.4219 285.328V285.509C38.4086 291.302 40.651 296.75 44.7361 300.852C48.8212 304.958 54.2598 307.225 60.0486 307.238H60.2827C63.2409 307.238 66.1 306.658 68.7841 305.514L69.0563 305.459ZM79.2233 311.354L78.9416 311.295L69.0468 306.911C66.2732 308.051 63.3265 308.628 60.2827 308.628H60.0466C53.8867 308.613 48.0978 306.201 43.7501 301.834C39.4042 297.467 37.0171 291.669 37.0323 285.507V285.326C37.0609 272.633 47.4106 262.308 60.1018 262.308H60.3341C73.0557 262.337 83.3808 272.709 83.3541 285.431V285.614V285.616C83.3389 290.978 81.559 295.973 78.1992 300.089L79.9086 310.547C79.9505 310.798 79.8515 311.053 79.6478 311.209L79.2233 311.354Z" fill="#CFDBE5"/>
<path d="M53.4413 275.45C52.0345 275.45 50.7115 276.031 49.5884 277.148C48.0922 278.639 47.266 280.632 47.2603 282.762C47.2565 284.89 48.0751 286.889 49.5656 288.387L60.6102 299.485L71.7024 288.44C73.2024 286.948 74.0305 284.953 74.0343 282.825C74.04 280.693 73.2233 278.698 71.7328 277.2C70.4803 275.942 68.9745 275.357 67.3736 275.507C65.2283 275.707 63.0829 277.242 61.3354 279.825C61.1831 280.051 60.9281 280.187 60.6559 280.187H60.654C60.3818 280.185 60.1267 280.049 59.9744 279.821C58.2383 277.23 56.1006 275.688 53.9553 275.475C53.7839 275.458 53.6107 275.45 53.4413 275.45ZM60.6064 301.465H60.6045C60.3875 301.465 60.18 301.377 60.0258 301.225L48.4025 289.548C46.6017 287.738 45.6138 285.326 45.6195 282.758C45.6252 280.19 46.6227 277.784 48.4292 275.985C50.0263 274.398 52.0421 273.634 54.117 273.842C56.4699 274.076 58.7618 275.528 60.6597 277.967C62.5671 275.536 64.8647 274.095 67.2194 273.87C69.2943 273.678 71.3083 274.447 72.8959 276.042C74.6948 277.849 75.6827 280.259 75.677 282.829C75.6713 285.395 74.67 287.803 72.8616 289.604L61.1851 301.227C61.0328 301.379 60.8234 301.465 60.6064 301.465Z" fill="#CFDBE5"/>
<path d="M253.291 175.735C249.798 175.735 246.956 172.891 246.956 169.396C246.956 165.901 249.798 163.059 253.291 163.059C256.786 163.059 259.628 165.901 259.628 169.396C259.628 172.891 256.786 175.735 253.291 175.735ZM253.291 161.591C248.985 161.591 245.482 165.094 245.482 169.396C245.482 173.7 248.985 177.205 253.291 177.205C257.599 177.205 261.098 173.7 261.098 169.396C261.098 165.094 257.599 161.591 253.291 161.591Z" fill="#CFDBE5"/>
<path d="M619.112 199.004C615.617 199.004 612.777 196.159 612.777 192.664C612.777 189.171 615.617 186.328 619.112 186.328C622.607 186.328 625.447 189.171 625.447 192.664C625.447 196.159 622.607 199.004 619.112 199.004ZM619.112 184.859C614.806 184.859 611.302 188.363 611.302 192.664C611.302 196.969 614.806 200.474 619.112 200.474C623.418 200.474 626.915 196.969 626.915 192.664C626.915 188.363 623.418 184.859 619.112 184.859Z" fill="#CFDBE5"/>
<path d="M424.119 219.972C413.58 219.972 405.008 228.544 405.008 239.083C405.008 249.621 413.58 258.195 424.119 258.195H565.997C576.537 258.195 585.112 249.621 585.112 239.083C585.112 228.544 576.537 219.972 565.997 219.972H424.119ZM565.997 260.466H424.119C412.33 260.466 402.738 250.873 402.738 239.083C402.738 227.292 412.33 217.7 424.119 217.7H565.997C577.789 217.7 587.381 227.292 587.381 239.083C587.381 250.873 577.789 260.466 565.997 260.466Z" fill="#7798B6"/>
<path d="M433.397 247.584L425.12 251.936L426.7 242.718L420.003 236.189L429.258 234.843L433.397 226.458L437.537 234.843L446.792 236.189L440.095 242.718L441.677 251.936L433.397 247.584Z" fill="#44FC78"/>
<path d="M475.635 247.584L467.357 251.936L468.938 242.718L462.242 236.189L471.497 234.843L475.635 226.458L479.775 234.843L489.031 236.189L482.332 242.718L483.914 251.936L475.635 247.584Z" fill="#44FC78"/>
<path d="M517.874 247.584L509.595 251.936L511.177 242.718L504.478 236.189L513.734 234.843L517.874 226.458L522.012 234.843L531.267 236.189L524.571 242.718L526.153 251.936L517.874 247.584Z" fill="#44FC78"/>
<path d="M560.112 247.584L551.832 251.936L553.414 242.718L546.717 236.189L555.972 234.843L560.112 226.458L564.251 234.843L573.506 236.189L566.809 242.718L568.389 251.936L560.112 247.584Z" fill="#7798B6"/>
</svg>
