<svg width="501" height="139" viewBox="0 0 501 139" fill="none" xmlns="http://www.w3.org/2000/svg">
<path fill-rule="evenodd" clip-rule="evenodd" d="M373.55 15.4919C383.352 5.77167 396.889 0.840912 411.866 0.840912C426.746 0.840912 440.279 5.77412 450.104 15.489C459.943 25.2188 465.798 39.4833 465.798 57.6364C465.798 75.7894 459.943 90.0539 450.104 99.7837C440.279 109.499 426.746 114.432 411.866 114.432C396.88 114.432 383.345 109.444 373.547 99.7011C363.736 89.9454 357.935 75.6833 357.935 57.6364C357.935 39.4912 363.734 25.2255 373.55 15.4919ZM377.774 19.7524C369.283 28.1722 363.935 40.8043 363.935 57.6364C363.935 74.3621 369.281 86.9978 377.777 95.4466C386.286 103.908 398.217 108.432 411.866 108.432C425.419 108.432 437.351 103.956 445.885 95.5174C454.403 87.0938 459.798 74.4606 459.798 57.6364C459.798 40.8122 454.403 28.1789 445.885 19.7553C437.351 11.3168 425.419 6.84091 411.866 6.84091C398.208 6.84091 386.279 11.3192 377.774 19.7524ZM0.3125 5.27273C0.3125 3.61588 1.65565 2.27273 3.3125 2.27273H31.7443C33.4012 2.27273 34.7443 3.61588 34.7443 5.27273V43.1818H66.3807V5.27273C66.3807 3.61588 67.7238 2.27273 69.3807 2.27273H97.8125C99.4694 2.27273 100.812 3.61588 100.812 5.27273V110C100.812 111.657 99.4694 113 97.8125 113H69.3807C67.7238 113 66.3807 111.657 66.3807 110V72.0909H34.7443V110C34.7443 111.657 33.4012 113 31.7443 113H3.3125C1.65565 113 0.3125 111.657 0.3125 110V5.27273ZM6.3125 8.27273V107H28.7443V69.0909C28.7443 67.4341 30.0875 66.0909 31.7443 66.0909H69.3807C71.0375 66.0909 72.3807 67.4341 72.3807 69.0909V107H94.8125V8.27273H72.3807V46.1818C72.3807 47.8387 71.0375 49.1818 69.3807 49.1818H31.7443C30.0875 49.1818 28.7443 47.8387 28.7443 46.1818V8.27273H6.3125ZM108.312 5.27273C108.312 3.61588 109.656 2.27273 111.312 2.27273H186.79C188.447 2.27273 189.79 3.61588 189.79 5.27273V28.1818C189.79 29.8387 188.447 31.1818 186.79 31.1818H142.744V43.1818H182.903C184.56 43.1818 185.903 44.525 185.903 46.1818V69.0909C185.903 70.7478 184.56 72.0909 182.903 72.0909H142.744V84.0909H186.585C188.242 84.0909 189.585 85.4341 189.585 87.0909V110C189.585 111.657 188.242 113 186.585 113H111.312C109.656 113 108.312 111.657 108.312 110V5.27273ZM114.312 8.27273V107H183.585V90.0909H139.744C138.087 90.0909 136.744 88.7478 136.744 87.0909V69.0909C136.744 67.4341 138.087 66.0909 139.744 66.0909H179.903V49.1818H139.744C138.087 49.1818 136.744 47.8387 136.744 46.1818V28.1818C136.744 26.525 138.087 25.1818 139.744 25.1818H183.79V8.27273H114.312ZM197.891 5.27273C197.891 3.61588 199.234 2.27273 200.891 2.27273H229.322C230.979 2.27273 232.322 3.61588 232.322 5.27273V84.0909H271.663C273.32 84.0909 274.663 85.4341 274.663 87.0909V110C274.663 111.657 273.32 113 271.663 113H200.891C199.234 113 197.891 111.657 197.891 110V5.27273ZM203.891 8.27273V107H268.663V90.0909H229.322C227.666 90.0909 226.322 88.7478 226.322 87.0909V8.27273H203.891ZM280.156 5.27273C280.156 3.61588 281.499 2.27273 283.156 2.27273H311.588C313.245 2.27273 314.588 3.61588 314.588 5.27273V84.0909H353.929C355.586 84.0909 356.929 85.4341 356.929 87.0909V110C356.929 111.657 355.586 113 353.929 113H283.156C281.499 113 280.156 111.657 280.156 110V5.27273ZM286.156 8.27273V107H350.929V90.0909H311.588C309.931 90.0909 308.588 88.7478 308.588 87.0909V8.27273H286.156ZM398.139 37.8488C395.021 42.035 393.185 48.5592 393.185 57.6364C393.185 66.7135 395.021 73.2377 398.139 77.424C401.151 81.4683 405.619 83.6818 411.866 83.6818C418.114 83.6818 422.582 81.4683 425.594 77.424C428.712 73.2377 430.548 66.7135 430.548 57.6364C430.548 48.5592 428.712 42.035 425.594 37.8488C422.582 33.8045 418.114 31.5909 411.866 31.5909C405.619 31.5909 401.151 33.8045 398.139 37.8488ZM393.327 34.2649C397.627 28.491 404 25.5909 411.866 25.5909C419.733 25.5909 426.106 28.491 430.406 34.2649C434.601 39.8968 436.548 47.8953 436.548 57.6364C436.548 67.3774 434.601 75.3759 430.406 81.0079C426.106 86.7818 419.733 89.6818 411.866 89.6818C404 89.6818 397.627 86.7818 393.327 81.0079C389.132 75.3759 387.185 67.3774 387.185 57.6364C387.185 47.8953 389.132 39.8968 393.327 34.2649ZM472.889 95.6818C472.889 94.025 474.232 92.6818 475.889 92.6818H497.162C497.995 92.6818 498.79 93.028 499.358 93.6375C499.925 94.2469 500.214 95.0649 500.154 95.8956L499.745 101.623L499.745 101.627C498.692 116.112 492.84 129.531 490.145 135.71C489.98 136.087 489.827 136.437 489.688 136.759C489.213 137.857 488.131 138.568 486.935 138.568H469.548C468.606 138.568 467.718 138.125 467.151 137.372C466.584 136.619 466.405 135.643 466.666 134.737C466.815 134.22 466.987 133.637 467.176 132.995C469.116 126.414 472.889 113.611 472.889 101.409V95.6818ZM478.889 98.6818V101.409C478.889 113.25 475.613 125.499 473.556 132.568H484.967C487.762 126.131 492.825 114.053 493.76 101.195M493.761 101.192L493.94 98.6818H478.889" fill="#283A4A"/>
</svg>
