<svg width="157" height="28" viewBox="0 0 157 28" fill="none" xmlns="http://www.w3.org/2000/svg">
<path d="M0.900757 27H8.00871L9.31269 19.2273H13.2246C19.2587 19.2273 23.8098 15.75 24.7303 10.0739C25.6508 4.50001 22.378 0.818191 16.5485 0.818191H5.24735L0.900757 27ZM10.2331 13.7046L11.4348 6.49433H13.9405C16.4462 6.49433 17.6735 7.82387 17.3155 10.0739C16.9576 12.3239 15.2701 13.7046 12.7133 13.7046H10.2331Z" fill="#283A4A"/>
<path d="M51.986 14.3693C53.4689 5.42046 48.5087 0.460236 41.1962 0.460236C34.2417 0.460236 28.0542 5.01137 26.6735 13.5511C25.1905 22.4489 30.1508 27.358 37.5144 27.358C44.4178 27.358 50.5542 22.9091 51.986 14.3693ZM44.8269 13.5511C44.0087 18.4091 41.503 21.1705 37.7701 21.1705C34.4973 21.1705 33.0144 18.9205 33.8326 14.3693C34.5996 9.51137 37.1564 6.64774 40.9405 6.64774C44.2644 6.64774 45.5428 9.05115 44.8269 13.5511Z" fill="#283A4A"/>
<path d="M70.2576 9.00001H77.0588C77.9281 3.83524 74.502 0.460236 68.161 0.460236C61.9224 0.460236 57.0133 3.7841 56.1951 8.79546C55.5304 12.8864 57.9849 15.1364 62.4338 16.1591L64.9395 16.7216C67.752 17.3352 68.6724 18.1023 68.4679 19.2784C68.2633 20.5568 66.9338 21.4773 64.6326 21.4773C61.9224 21.4773 60.4906 20.1989 60.7974 17.7955H54.0474C52.9736 24.3409 56.9622 27.3068 63.7633 27.3068C70.4111 27.3068 74.8599 24.4432 75.7292 19.2784C76.394 15.2898 74.4508 12.4773 68.877 11.25L66.8315 10.7898C64.4281 10.2784 63.4054 9.51137 63.7122 8.2841C63.9167 7.10796 64.9906 6.28978 67.1895 6.28978C69.4906 6.28978 70.4111 7.31251 70.2576 9.00001Z" fill="#283A4A"/>
<path d="M77.1547 27H84.2626L85.9501 16.7727H95.3592L93.6717 27H100.78L105.126 0.818191H98.0183L96.3308 11.0455H86.9217L88.6092 0.818191H81.5013L77.1547 27Z" fill="#283A4A"/>
<path d="M131.615 14.3693C133.098 5.42046 128.138 0.460236 120.825 0.460236C113.871 0.460236 107.683 5.01137 106.302 13.5511C104.819 22.4489 109.78 27.358 117.143 27.358C124.047 27.358 130.183 22.9091 131.615 14.3693ZM124.456 13.5511C123.638 18.4091 121.132 21.1705 117.399 21.1705C114.126 21.1705 112.643 18.9205 113.461 14.3693C114.229 9.51137 116.785 6.64774 120.569 6.64774C123.893 6.64774 125.172 9.05115 124.456 13.5511Z" fill="#283A4A"/>
<path d="M132.807 27H151.625L152.597 21.2727H140.887L141.602 16.7727H152.392L153.364 11.0455H142.574L143.29 6.54546H155.051L156.023 0.818191H137.154L132.807 27Z" fill="#283A4A"/>
</svg>
