<svg width="320" height="147" viewBox="0 0 320 147" fill="none" xmlns="http://www.w3.org/2000/svg">
<path d="M311.755 116.662C316.22 116.662 319.409 121.254 317.849 125.581C313.538 137.606 302.327 146.162 289.189 146.162C276.041 146.162 264.831 137.597 260.52 125.581C258.969 121.254 262.148 116.662 266.614 116.662C269.331 116.662 271.722 118.422 272.682 121.05C275.201 127.926 281.638 132.81 289.189 132.81C296.722 132.81 303.167 127.926 305.687 121.05C306.647 118.431 309.038 116.662 311.755 116.662Z" fill="#FF8E2B"/>
<path d="M318.114 63.5264C319.374 62.2256 320 60.5179 320 58.8101C320 57.1024 319.374 55.3946 318.114 54.0939C315.595 51.4836 311.498 51.4836 308.978 54.0939L305.901 57.2705C301.102 54.0231 295.36 52.1384 289.189 52.1384C272.305 52.1384 258.617 66.2694 258.617 83.692C258.617 101.123 272.305 115.254 289.189 115.254C306.064 115.254 319.751 101.123 319.751 83.692C319.751 77.4627 318.003 71.6581 314.978 66.7649L318.114 63.5264ZM306.827 83.6831C306.827 93.7438 298.925 101.893 289.189 101.893C286.54 101.893 284.029 101.292 281.784 100.212C278.141 98.4777 275.167 95.4869 273.385 91.7794C272.202 89.3461 271.542 86.5943 271.542 83.6831C271.542 73.6224 279.444 65.4642 289.189 65.4642C291.76 65.4642 294.211 66.0393 296.414 67.0657C300.468 68.9416 303.716 72.3659 305.447 76.6132C306.338 78.7899 306.827 81.179 306.827 83.6831Z" fill="#FEFEFE"/>
<path d="M148.794 52.0591C131.91 52.0591 118.223 66.1901 118.223 83.6215C118.223 101.044 131.91 115.175 148.794 115.175C165.678 115.175 179.357 101.044 179.357 83.6215C179.357 66.1901 165.678 52.0591 148.794 52.0591ZM148.794 101.823C139.05 101.823 131.147 93.6646 131.147 83.6039C131.147 73.5432 139.05 65.3937 148.794 65.3937C158.539 65.3937 166.433 73.5432 166.433 83.6039C166.433 93.6646 158.539 101.823 148.794 101.823Z" fill="#FEFEFE"/>
<path d="M249.618 83.692V108.538C249.618 112.228 246.73 115.21 243.156 115.21C239.882 115.21 237.165 112.688 236.754 109.423C236.711 109.131 236.694 108.839 236.694 108.538V83.6832C236.694 73.6225 228.8 65.4643 219.056 65.4643C209.311 65.4643 201.409 73.6225 201.409 83.6832V108.538C201.409 108.839 201.392 109.131 201.349 109.423C200.937 112.688 198.229 115.21 194.947 115.21C191.381 115.21 188.484 112.228 188.484 108.538V58.8102C188.484 55.1204 191.381 52.1385 194.947 52.1385C196.738 52.1385 198.349 52.8818 199.515 54.094C200.509 55.1116 201.177 56.4565 201.349 57.9696C206.345 54.2975 212.456 52.1385 219.056 52.1385C225.655 52.1385 231.766 54.2975 236.754 57.9696C244.544 63.6857 249.618 73.0739 249.618 83.692Z" fill="#FEFEFE"/>
<path d="M61.134 83.6906V108.537C61.134 112.227 58.2457 115.209 54.6718 115.209C51.3978 115.209 48.6809 112.687 48.2695 109.422C48.2267 109.13 48.2095 108.838 48.2095 108.537V83.6817C48.2095 73.6211 40.316 65.4628 30.5713 65.4628C20.8265 65.4628 12.9244 73.6211 12.9244 83.6817V108.537C12.9244 108.838 12.9073 109.13 12.8644 109.422C12.4531 112.687 9.74476 115.209 6.46222 115.209C2.89686 115.209 0 112.227 0 108.537V58.8087C0 55.1189 2.89686 52.137 6.46222 52.137C8.25347 52.137 9.86474 52.8803 11.0303 54.0925C12.0245 55.1101 12.693 56.4551 12.8644 57.9682C17.8611 54.296 23.9719 52.137 30.5713 52.137C37.1706 52.137 43.2815 54.296 48.2695 57.9682C56.0602 63.6842 61.134 73.0724 61.134 83.6906Z" fill="#FEFEFE"/>
<path d="M109.386 83.6383V108.485C109.386 112.175 106.498 115.157 102.924 115.157C99.6501 115.157 96.9332 112.635 96.5218 109.37C96.479 109.078 96.4618 108.786 96.4618 108.485V83.6295C96.4618 73.5688 88.5683 65.4105 78.8235 65.4105C69.0788 65.4105 61.1767 73.5688 61.1767 83.6295V108.485C61.1767 108.786 61.1596 109.078 61.1167 109.37C60.7053 112.635 57.997 115.157 54.7145 115.157C51.1491 115.157 48.2523 112.175 48.2523 108.485V83.6383C48.2523 73.0202 53.3346 63.632 61.1167 57.9159C66.1134 54.2438 72.2242 52.0847 78.8235 52.0847C85.4229 52.0847 91.5337 54.2438 96.5218 57.9159C104.304 63.632 109.386 73.0202 109.386 83.6383Z" fill="#FEFEFE"/>
<path d="M2.51062 23.04C2.51062 20.8 2.96396 18.84 3.87062 17.16C4.77729 15.4533 6.01729 14.1467 7.59062 13.24C9.19062 12.3067 10.9906 11.84 12.9906 11.84C14.9106 11.84 16.644 12.3067 18.1906 13.24C19.7373 14.1733 20.8706 15.3867 21.5906 16.88V4.4H24.3906V34H21.5906V29.12C20.924 30.64 19.8306 31.8933 18.3106 32.88C16.7906 33.84 15.004 34.32 12.9506 34.32C10.9506 34.32 9.15062 33.8533 7.55062 32.92C5.97729 31.9867 4.73729 30.6667 3.83062 28.96C2.95062 27.2533 2.51062 25.28 2.51062 23.04ZM21.5906 23.08C21.5906 21.32 21.2306 19.7733 20.5106 18.44C19.7906 17.1067 18.804 16.08 17.5506 15.36C16.324 14.64 14.964 14.28 13.4706 14.28C11.924 14.28 10.5373 14.6267 9.31062 15.32C8.08396 16.0133 7.11062 17.0267 6.39062 18.36C5.69729 19.6667 5.35062 21.2267 5.35062 23.04C5.35062 24.8267 5.69729 26.4 6.39062 27.76C7.11062 29.0933 8.08396 30.12 9.31062 30.84C10.5373 31.5333 11.924 31.88 13.4706 31.88C14.964 31.88 16.324 31.52 17.5506 30.8C18.804 30.08 19.7906 29.0533 20.5106 27.72C21.2306 26.3867 21.5906 24.84 21.5906 23.08ZM41.1428 34.32C39.0895 34.32 37.2361 33.8667 35.5828 32.96C33.9561 32.0267 32.6628 30.72 31.7028 29.04C30.7695 27.3333 30.3028 25.3467 30.3028 23.08C30.3028 20.8133 30.7828 18.84 31.7428 17.16C32.7028 15.4533 34.0095 14.1467 35.6628 13.24C37.3161 12.3067 39.1695 11.84 41.2228 11.84C43.2761 11.84 45.1295 12.3067 46.7828 13.24C48.4628 14.1467 49.7695 15.4533 50.7028 17.16C51.6628 18.84 52.1428 20.8133 52.1428 23.08C52.1428 25.32 51.6628 27.2933 50.7028 29C49.7428 30.7067 48.4228 32.0267 46.7428 32.96C45.0628 33.8667 43.1961 34.32 41.1428 34.32ZM41.1428 31.88C42.5828 31.88 43.9161 31.56 45.1428 30.92C46.3695 30.2533 47.3561 29.2667 48.1028 27.96C48.8761 26.6267 49.2628 25 49.2628 23.08C49.2628 21.16 48.8895 19.5467 48.1428 18.24C47.3961 16.9067 46.4095 15.92 45.1828 15.28C43.9561 14.6133 42.6228 14.28 41.1828 14.28C39.7428 14.28 38.4095 14.6133 37.1828 15.28C35.9561 15.92 34.9695 16.9067 34.2228 18.24C33.5028 19.5467 33.1428 21.16 33.1428 23.08C33.1428 25 33.5028 26.6267 34.2228 27.96C34.9695 29.2667 35.9428 30.2533 37.1428 30.92C38.3695 31.56 39.7028 31.88 41.1428 31.88ZM56.7669 23.08C56.7669 20.8133 57.2202 18.84 58.1269 17.16C59.0335 15.4533 60.2869 14.1467 61.8869 13.24C63.4869 12.3067 65.3135 11.84 67.3669 11.84C70.0602 11.84 72.2735 12.5067 74.0069 13.84C75.7669 15.1733 76.9002 16.9867 77.4069 19.28H74.4069C74.0335 17.7067 73.2202 16.48 71.9669 15.6C70.7402 14.6933 69.2069 14.24 67.3669 14.24C65.9002 14.24 64.5802 14.5733 63.4069 15.24C62.2335 15.9067 61.3002 16.9067 60.6069 18.24C59.9402 19.5467 59.6069 21.16 59.6069 23.08C59.6069 25 59.9402 26.6267 60.6069 27.96C61.3002 29.2933 62.2335 30.2933 63.4069 30.96C64.5802 31.6267 65.9002 31.96 67.3669 31.96C69.2069 31.96 70.7402 31.52 71.9669 30.64C73.2202 29.7333 74.0335 28.48 74.4069 26.88H77.4069C76.9002 29.12 75.7669 30.92 74.0069 32.28C72.2469 33.64 70.0335 34.32 67.3669 34.32C65.3135 34.32 63.4869 33.8667 61.8869 32.96C60.2869 32.0267 59.0335 30.72 58.1269 29.04C57.2202 27.3333 56.7669 25.3467 56.7669 23.08ZM102.298 12.16V34H99.4981V30.16C98.8581 31.52 97.8715 32.56 96.5381 33.28C95.2048 34 93.7115 34.36 92.0581 34.36C89.4448 34.36 87.3115 33.56 85.6581 31.96C84.0048 30.3333 83.1781 27.9867 83.1781 24.92V12.16H85.9381V24.6C85.9381 26.9733 86.5248 28.7867 87.6981 30.04C88.8981 31.2933 90.5248 31.92 92.5781 31.92C94.6848 31.92 96.3648 31.2533 97.6181 29.92C98.8715 28.5867 99.4981 26.6267 99.4981 24.04V12.16H102.298ZM135.491 11.76C138.051 11.76 140.131 12.5733 141.731 14.2C143.357 15.8 144.171 18.1333 144.171 21.2V34H141.411V21.52C141.411 19.1467 140.837 17.3333 139.691 16.08C138.544 14.8267 136.984 14.2 135.011 14.2C132.957 14.2 131.317 14.88 130.091 16.24C128.864 17.6 128.251 19.5733 128.251 22.16V34H125.491V21.52C125.491 19.1467 124.917 17.3333 123.771 16.08C122.624 14.8267 121.051 14.2 119.051 14.2C116.997 14.2 115.357 14.88 114.131 16.24C112.904 17.6 112.291 19.5733 112.291 22.16V34H109.491V12.16H112.291V15.92C112.984 14.56 113.971 13.5333 115.251 12.84C116.531 12.12 117.957 11.76 119.531 11.76C121.424 11.76 123.077 12.2133 124.491 13.12C125.931 14.0267 126.971 15.36 127.611 17.12C128.197 15.3867 129.197 14.0667 130.611 13.16C132.051 12.2267 133.677 11.76 135.491 11.76ZM170.949 21.96C170.949 22.92 170.922 23.6533 170.869 24.16H152.749C152.829 25.8133 153.229 27.2267 153.949 28.4C154.669 29.5733 155.616 30.4667 156.789 31.08C157.962 31.6667 159.242 31.96 160.629 31.96C162.442 31.96 163.962 31.52 165.189 30.64C166.442 29.76 167.269 28.5733 167.669 27.08H170.629C170.096 29.2133 168.949 30.96 167.189 32.32C165.456 33.6533 163.269 34.32 160.629 34.32C158.576 34.32 156.736 33.8667 155.109 32.96C153.482 32.0267 152.202 30.72 151.269 29.04C150.362 27.3333 149.909 25.3467 149.909 23.08C149.909 20.8133 150.362 18.8267 151.269 17.12C152.176 15.4133 153.442 14.1067 155.069 13.2C156.696 12.2933 158.549 11.84 160.629 11.84C162.709 11.84 164.522 12.2933 166.069 13.2C167.642 14.1067 168.842 15.3333 169.669 16.88C170.522 18.4 170.949 20.0933 170.949 21.96ZM168.109 21.88C168.136 20.2533 167.802 18.8667 167.109 17.72C166.442 16.5733 165.522 15.7067 164.349 15.12C163.176 14.5333 161.896 14.24 160.509 14.24C158.429 14.24 156.656 14.9067 155.189 16.24C153.722 17.5733 152.909 19.4533 152.749 21.88H168.109ZM187.112 11.76C189.725 11.76 191.859 12.5733 193.512 14.2C195.165 15.8 195.992 18.1333 195.992 21.2V34H193.232V21.52C193.232 19.1467 192.632 17.3333 191.432 16.08C190.259 14.8267 188.645 14.2 186.592 14.2C184.485 14.2 182.805 14.8667 181.552 16.2C180.299 17.5333 179.672 19.4933 179.672 22.08V34H176.872V12.16H179.672V15.88C180.365 14.5467 181.365 13.5333 182.672 12.84C183.979 12.12 185.459 11.76 187.112 11.76ZM206.624 14.52V28.08C206.624 29.4133 206.878 30.3333 207.384 30.84C207.891 31.3467 208.784 31.6 210.064 31.6H212.624V34H209.624C207.651 34 206.184 33.5467 205.224 32.64C204.264 31.7067 203.784 30.1867 203.784 28.08V14.52H200.744V12.16H203.784V6.68H206.624V12.16H212.624V14.52H206.624ZM216.762 23.04C216.762 20.8 217.202 18.84 218.082 17.16C218.989 15.4533 220.229 14.1467 221.802 13.24C223.402 12.3067 225.202 11.84 227.202 11.84C229.282 11.84 231.069 12.32 232.562 13.28C234.082 14.24 235.176 15.4667 235.842 16.96V12.16H238.642V34H235.842V29.16C235.149 30.6533 234.042 31.8933 232.522 32.88C231.029 33.84 229.242 34.32 227.162 34.32C225.189 34.32 223.402 33.8533 221.802 32.92C220.229 31.9867 218.989 30.6667 218.082 28.96C217.202 27.2533 216.762 25.28 216.762 23.04ZM235.842 23.08C235.842 21.32 235.482 19.7733 234.762 18.44C234.042 17.1067 233.056 16.08 231.802 15.36C230.576 14.64 229.216 14.28 227.722 14.28C226.176 14.28 224.789 14.6267 223.562 15.32C222.336 16.0133 221.362 17.0267 220.642 18.36C219.949 19.6667 219.602 21.2267 219.602 23.04C219.602 24.8267 219.949 26.4 220.642 27.76C221.362 29.0933 222.336 30.12 223.562 30.84C224.789 31.5333 226.176 31.88 227.722 31.88C229.216 31.88 230.576 31.52 231.802 30.8C233.056 30.08 234.042 29.0533 234.762 27.72C235.482 26.3867 235.842 24.84 235.842 23.08ZM249.474 14.52V28.08C249.474 29.4133 249.728 30.3333 250.234 30.84C250.741 31.3467 251.634 31.6 252.914 31.6H255.474V34H252.474C250.501 34 249.034 33.5467 248.074 32.64C247.114 31.7067 246.634 30.1867 246.634 28.08V14.52H243.594V12.16H246.634V6.68H249.474V12.16H255.474V14.52H249.474ZM262.292 8.04C261.732 8.04 261.252 7.84 260.852 7.44C260.452 7.04 260.252 6.54667 260.252 5.96C260.252 5.37333 260.452 4.89333 260.852 4.52C261.252 4.12 261.732 3.92 262.292 3.92C262.852 3.92 263.332 4.12 263.732 4.52C264.132 4.89333 264.332 5.37333 264.332 5.96C264.332 6.54667 264.132 7.04 263.732 7.44C263.332 7.84 262.852 8.04 262.292 8.04ZM263.692 12.16V34H260.892V12.16H263.692ZM280.393 34.32C278.339 34.32 276.486 33.8667 274.833 32.96C273.206 32.0267 271.913 30.72 270.953 29.04C270.019 27.3333 269.553 25.3467 269.553 23.08C269.553 20.8133 270.033 18.84 270.993 17.16C271.953 15.4533 273.259 14.1467 274.913 13.24C276.566 12.3067 278.419 11.84 280.473 11.84C282.526 11.84 284.379 12.3067 286.033 13.24C287.713 14.1467 289.019 15.4533 289.953 17.16C290.913 18.84 291.393 20.8133 291.393 23.08C291.393 25.32 290.913 27.2933 289.953 29C288.993 30.7067 287.673 32.0267 285.993 32.96C284.313 33.8667 282.446 34.32 280.393 34.32ZM280.393 31.88C281.833 31.88 283.166 31.56 284.393 30.92C285.619 30.2533 286.606 29.2667 287.353 27.96C288.126 26.6267 288.513 25 288.513 23.08C288.513 21.16 288.139 19.5467 287.393 18.24C286.646 16.9067 285.659 15.92 284.433 15.28C283.206 14.6133 281.873 14.28 280.433 14.28C278.993 14.28 277.659 14.6133 276.433 15.28C275.206 15.92 274.219 16.9067 273.473 18.24C272.753 19.5467 272.393 21.16 272.393 23.08C272.393 25 272.753 26.6267 273.473 27.96C274.219 29.2667 275.193 30.2533 276.393 30.92C277.619 31.56 278.953 31.88 280.393 31.88ZM307.537 11.76C310.15 11.76 312.284 12.5733 313.937 14.2C315.59 15.8 316.417 18.1333 316.417 21.2V34H313.657V21.52C313.657 19.1467 313.057 17.3333 311.857 16.08C310.684 14.8267 309.07 14.2 307.017 14.2C304.91 14.2 303.23 14.8667 301.977 16.2C300.724 17.5333 300.097 19.4933 300.097 22.08V34H297.297V12.16H300.097V15.88C300.79 14.5467 301.79 13.5333 303.097 12.84C304.404 12.12 305.884 11.76 307.537 11.76Z" fill="#FEFEFE"/>
</svg>
