<svg width="320" height="369" viewBox="0 0 320 369" fill="none" xmlns="http://www.w3.org/2000/svg">
<path d="M10.13 277.512C8.96794 275.624 8.35743 273.4 8.3523 270.594C8.31126 264.773 11.2766 256.577 17.269 247.129C26.2139 232.928 41.6795 215.901 61.9499 198.149C82.2176 180.383 107.293 161.844 135.505 144.359C166.367 125.225 196.693 110.016 223.358 99.6221C250.003 89.215 273.075 83.6766 288.953 83.6997C294.738 83.6971 299.532 84.4334 303.124 85.7724C306.73 87.1243 309.07 88.9687 310.524 91.303L317.066 87.2474C314.557 83.1893 310.573 80.3189 305.804 78.5591C301.015 76.7866 295.371 76.0092 288.953 76.0041C271.392 76.0297 247.774 81.863 220.565 92.4522C193.376 103.052 162.683 118.458 131.449 137.818C93.3866 161.415 60.9418 186.893 37.8779 210.165C26.3447 221.808 17.1536 232.893 10.7585 243.023C4.39165 253.168 0.695142 262.336 0.656664 270.594C0.648968 274.547 1.575 278.325 3.59125 281.565L10.1325 277.512" fill="#27418D"/>
<path d="M317.065 281.565C319.079 278.325 320.005 274.547 320 270.594C319.959 262.336 316.262 253.168 309.895 243.023C300.304 227.837 284.415 210.46 263.776 192.362C243.136 174.275 217.745 155.513 189.2 137.818C157.968 118.458 127.275 103.052 100.087 92.4522C72.8775 81.863 49.2621 76.0297 31.6981 76.0041C25.2825 76.0092 19.6391 76.7866 14.8498 78.5591C10.0811 80.3189 6.09728 83.1893 3.59106 87.2474L10.1324 91.303C11.5868 88.9687 13.9238 87.1243 17.5305 85.7724C21.1192 84.4334 25.9161 83.6971 31.6981 83.6997C47.5768 83.6766 70.6483 89.215 97.2932 99.6221C123.959 110.016 154.282 125.225 185.144 144.359C222.76 167.669 254.802 192.868 277.307 215.582C288.558 226.931 297.421 237.669 303.385 247.129C309.377 256.577 312.345 264.776 312.304 270.594C312.297 273.4 311.686 275.624 310.524 277.512L317.065 281.565Z" fill="#27418D"/>
<path d="M160.323 3.05176e-05C155.865 -0.00769043 151.596 1.63141 147.795 4.40182C141.128 9.27319 135.487 17.4845 130.408 28.3687C122.83 44.7014 116.656 67.2111 112.315 93.9175C107.983 120.616 105.515 151.494 105.515 184.408C105.52 234.568 111.235 279.97 120.586 313.125C125.275 329.712 130.844 343.238 137.285 352.912C140.517 357.745 143.975 361.636 147.795 364.412C151.596 367.182 155.865 368.819 160.323 368.813V361.118C157.745 361.11 155.144 360.223 152.312 358.181C147.369 354.638 142.115 347.432 137.388 337.205C130.256 321.87 124.161 299.889 119.911 273.665C115.653 247.433 113.208 216.935 113.211 184.408C113.203 134.848 118.898 89.9722 127.991 57.7788C132.524 41.6898 137.937 28.7739 143.688 20.1728C146.553 15.8709 149.495 12.667 152.312 10.6302C155.144 8.59091 157.745 7.70078 160.323 7.69565V3.05176e-05Z" fill="#27418D"/>
<path d="M165.369 161.149C165.369 140.448 148.585 123.663 127.881 123.663C107.182 123.663 90.3979 140.448 90.3979 161.149C90.3979 181.853 107.182 198.634 127.881 198.634C148.585 198.634 165.369 181.853 165.369 161.149Z" fill="#F9DE26"/>
<path d="M225.695 157.33C225.695 136.629 208.911 119.845 188.21 119.845C167.508 119.845 150.724 136.629 150.724 157.33C150.724 178.031 167.508 194.815 188.21 194.815C208.911 194.815 225.695 178.031 225.695 157.33Z" fill="#F9DE26"/>
<path d="M232.701 199.35C232.701 178.651 215.917 161.867 195.213 161.867C174.511 161.867 157.722 178.651 157.722 199.35C157.722 220.054 174.511 236.835 195.213 236.835C215.917 236.835 232.701 220.054 232.701 199.35Z" fill="#D73965"/>
<path d="M162.922 206.038C162.922 185.334 146.143 168.552 125.441 168.552C104.738 168.552 87.9534 185.334 87.9534 206.038C87.9534 226.739 104.738 243.523 125.441 243.523C146.143 243.523 162.922 226.739 162.922 206.038Z" fill="#D73965"/>
<path d="M198.629 147.976C198.629 127.275 181.85 110.488 161.149 110.488C140.445 110.488 123.661 127.275 123.661 147.976C123.661 168.678 140.445 185.462 161.149 185.462C181.85 185.462 198.629 168.678 198.629 147.976Z" fill="#F25083"/>
<path d="M200.464 220.839C200.464 200.138 183.679 183.353 162.978 183.353C142.279 183.353 125.495 200.138 125.495 220.839C125.495 241.54 142.279 258.324 162.978 258.324C183.679 258.324 200.464 241.54 200.464 220.839Z" fill="#F9DE26"/>
<path d="M160.323 368.813C164.781 368.819 169.05 367.182 172.852 364.412C179.521 359.54 185.159 351.329 190.241 340.447C197.819 324.112 203.993 301.605 208.336 274.898C212.669 248.197 215.139 217.32 215.139 184.408C215.134 134.248 209.419 88.8436 200.066 55.6882C195.374 39.1015 189.805 25.5751 183.361 15.9017C180.132 11.0663 176.671 7.1774 172.852 4.40182C169.05 1.63141 164.781 -0.00769043 160.323 3.05176e-05V7.69565C162.901 7.70078 165.502 8.59091 168.334 10.6302C173.28 14.1754 178.534 21.381 183.261 31.6085C190.393 46.9434 196.49 68.9247 200.741 95.1489C204.999 121.383 207.444 151.881 207.444 184.408C207.449 233.965 201.754 278.841 192.66 311.035C188.125 327.124 182.712 340.039 176.961 348.641C174.093 352.943 171.151 356.146 168.334 358.181C165.502 360.223 162.901 361.11 160.323 361.118V368.813Z" fill="#27418D"/>
<path d="M3.59125 87.2481C1.575 90.4906 0.648968 94.2666 0.656664 98.2222C0.697707 106.48 4.39165 115.648 10.7585 125.79C20.3498 140.979 36.2362 158.356 56.8759 176.453C77.513 194.538 102.901 213.3 131.444 230.995C162.678 250.355 193.374 265.764 220.56 276.363C247.771 286.953 271.387 292.786 288.951 292.812C295.369 292.806 301.012 292.029 305.802 290.257C310.573 288.497 314.554 285.626 317.066 281.568L310.524 277.513C309.067 279.847 306.73 281.689 303.121 283.043C299.53 284.382 294.735 285.118 288.951 285.116C273.072 285.139 249.998 279.601 223.356 269.194C196.688 258.799 166.364 243.588 135.5 224.454C97.8885 201.144 65.8464 175.948 43.3444 153.233C32.0933 141.882 23.2331 131.147 17.269 121.686C11.2766 112.238 8.31126 104.04 8.3523 98.2222C8.35743 95.4158 8.96794 93.1892 10.1325 91.3037L3.59125 87.2481Z" fill="#27418D"/>
<path d="M310.524 91.3038C311.686 93.1892 312.297 95.4132 312.302 98.2196C312.343 104.037 309.377 112.236 303.385 121.684C294.44 135.885 278.974 152.913 258.704 170.664C238.434 188.43 213.361 206.967 185.149 224.454C154.285 243.588 123.961 258.799 97.2957 269.194C70.6509 279.601 47.5794 285.139 31.7007 285.116C25.9161 285.118 21.1218 284.382 17.5305 283.043C13.9238 281.689 11.5868 279.847 10.1324 277.513L3.59106 281.566C6.09984 285.626 10.0811 288.497 14.8524 290.257C19.6391 292.029 25.2825 292.806 31.7007 292.812C49.2647 292.786 72.8801 286.953 100.089 276.363C127.278 265.764 157.971 250.355 189.205 230.995C227.267 207.398 259.712 181.92 282.776 158.648C294.309 147.005 303.5 135.921 309.895 125.788C316.262 115.645 319.956 106.477 319.997 98.2196C320.005 94.2666 319.079 90.4906 317.065 87.2508L310.524 91.3038Z" fill="#27418D"/>
<path d="M286.714 161.867C286.714 154.682 280.888 148.856 273.708 148.856C266.518 148.856 260.697 154.682 260.697 161.867C260.697 169.049 266.518 174.875 273.708 174.875C280.888 174.875 286.714 169.049 286.714 161.867Z" fill="#27418D"/>
<path d="M26.0164 122.07C26.0164 114.887 20.1933 109.062 13.0082 109.062C5.82302 109.062 0 114.887 0 122.07C0 129.255 5.82302 135.081 13.0082 135.081C20.1933 135.081 26.0164 129.255 26.0164 122.07Z" fill="#27418D"/>
<path d="M210.74 307.153C210.74 299.971 204.914 294.142 197.734 294.142C190.544 294.142 184.724 299.971 184.724 307.153C184.724 314.338 190.544 320.164 197.734 320.164C204.914 320.164 210.74 314.338 210.74 307.153Z" fill="#27418D"/>
</svg>
