<svg width="320" height="250" viewBox="0 0 320 250" fill="none" xmlns="http://www.w3.org/2000/svg">
<path d="M202.245 197.664H237.195C250.488 197.664 261.257 186.891 261.257 173.6H273.009C298.959 173.6 320 152.562 320 126.609H268.133V126.417C294.082 126.417 315.123 105.379 315.123 79.4278H279.873C288.645 70.8904 294.103 58.9624 294.103 45.7561H247.15C262.684 36.4348 273.084 19.435 273.084 1.52588e-05H198.538C181.708 1.52588e-05 167.135 9.62929 159.999 23.6746C152.865 9.62929 138.292 1.52588e-05 121.462 1.52588e-05H46.9163C46.9163 19.435 57.3179 36.4348 72.8496 45.7561H25.8967C25.8967 58.9624 31.3546 70.8904 40.1267 79.4278H4.87703C4.87703 105.379 25.9183 126.417 51.8682 126.417V126.609H0C0 152.562 21.0412 173.6 46.9928 173.6H58.7428C58.7428 186.891 69.5139 197.664 82.8052 197.664H117.755H202.245Z" fill="white"/>
<path d="M159.999 44.9753C108.667 44.9753 67.0521 86.5918 67.0521 137.927V156.162C67.0521 207.498 108.667 249.113 159.999 249.113C211.333 249.113 252.948 207.498 252.948 156.162V137.927C252.948 86.5918 211.333 44.9753 159.999 44.9753Z" fill="#FAB699"/>
<path d="M223.018 196.864C223.018 173.265 203.888 154.134 180.291 154.134H139.712C116.114 154.134 96.9852 173.265 96.9852 196.864H223.018Z" fill="white"/>
<path d="M160.001 128.736C150.972 128.736 143.655 136.055 143.655 145.085V154.135C143.655 163.164 150.972 170.482 160.001 170.482C169.029 170.482 176.35 163.164 176.35 154.135V145.085C176.35 136.055 169.029 128.736 160.001 128.736Z" fill="#BF8C66"/>
<path d="M115.418 132.388C115.418 127.664 111.59 123.836 106.868 123.836C102.145 123.836 98.3136 127.664 98.3136 132.388C98.3136 137.112 102.145 140.94 106.868 140.94C111.59 140.94 115.418 137.112 115.418 132.388Z" fill="#1E2226"/>
<path d="M127.887 112.387C127.887 116.24 124.733 119.395 120.881 119.395H91.7802C87.9285 119.395 84.7759 116.24 84.7759 112.387V110.491C84.7759 106.638 87.9285 103.485 91.7802 103.485H120.881C124.733 103.485 127.887 106.638 127.887 110.491V112.387Z" fill="white"/>
<path d="M204.587 132.388C204.587 127.664 208.415 123.836 213.136 123.836C217.86 123.836 221.691 127.664 221.691 132.388C221.691 137.112 217.86 140.94 213.136 140.94C208.415 140.94 204.587 137.112 204.587 132.388Z" fill="#1E2226"/>
<path d="M192.119 112.387C192.119 116.24 195.272 119.395 199.125 119.395H228.223C232.076 119.395 235.231 116.24 235.231 112.387V110.491C235.231 106.638 232.076 103.485 228.223 103.485H199.125C195.272 103.485 192.119 106.638 192.119 110.491V112.387Z" fill="white"/>
</svg>
