<svg width="320" height="250" viewBox="0 0 320 250" fill="none" xmlns="http://www.w3.org/2000/svg">
<path d="M202.245 197.664H237.195C250.488 197.664 261.257 186.891 261.257 173.6H273.009C298.959 173.6 320 152.562 320 126.609H268.133V126.417C294.082 126.417 315.123 105.379 315.123 79.4278H279.873C288.645 70.8904 294.103 58.9624 294.103 45.7561H247.15C262.684 36.4348 273.084 19.435 273.084 1.52588e-05H198.538C181.708 1.52588e-05 167.135 9.62929 159.999 23.6746C152.865 9.62929 138.292 1.52588e-05 121.462 1.52588e-05H46.9163C46.9163 19.435 57.3179 36.4348 72.8496 45.7561H25.8967C25.8967 58.9624 31.3546 70.8904 40.1267 79.4278H4.87703C4.87703 105.379 25.9183 126.417 51.8682 126.417V126.609H0C0 152.562 21.0412 173.6 46.9928 173.6H58.7428C58.7428 186.891 69.5139 197.664 82.8052 197.664H117.755H202.245Z" fill="white"/>
<path d="M159.999 44.9753C108.667 44.9753 67.0521 86.5918 67.0521 137.927V156.162C67.0521 207.498 108.667 249.113 159.999 249.113C211.333 249.113 252.948 207.498 252.948 156.162V137.927C252.948 86.5918 211.333 44.9753 159.999 44.9753Z" fill="#FAB699"/>
<path d="M223.018 191.865C223.018 168.265 203.888 149.135 180.291 149.135H139.712C116.114 149.135 96.9852 168.265 96.9852 191.865H223.018Z" fill="white"/>
<path d="M160.001 123.736C150.972 123.736 143.655 131.055 143.655 140.085V149.135C143.655 158.163 150.972 165.482 160.001 165.482C169.029 165.482 176.35 158.163 176.35 149.135V140.085C176.35 131.055 169.029 123.736 160.001 123.736Z" fill="#BF8C66"/>
<path d="M115.418 127.388C115.418 122.664 111.59 118.835 106.868 118.835C102.145 118.835 98.3136 122.664 98.3136 127.388C98.3136 132.111 102.145 135.94 106.868 135.94C111.59 135.94 115.418 132.111 115.418 127.388Z" fill="#1E2226"/>
<path d="M127.887 107.387C127.887 111.24 124.733 114.394 120.881 114.394H91.7802C87.9285 114.394 84.7759 111.24 84.7759 107.387V105.491C84.7759 101.638 87.9285 98.4849 91.7802 98.4849H120.881C124.733 98.4849 127.887 101.638 127.887 105.491V107.387Z" fill="white"/>
<path d="M204.587 127.388C204.587 122.664 208.415 118.835 213.136 118.835C217.86 118.835 221.691 122.664 221.691 127.388C221.691 132.111 217.86 135.94 213.136 135.94C208.415 135.94 204.587 132.111 204.587 127.388Z" fill="#1E2226"/>
<path d="M192.119 107.387C192.119 111.24 195.272 114.394 199.125 114.394H228.223C232.076 114.394 235.231 111.24 235.231 107.387V105.491C235.231 101.638 232.076 98.4849 228.223 98.4849H199.125C195.272 98.4849 192.119 101.638 192.119 105.491V107.387Z" fill="white"/>
<path d="M132.749 191.865C132.749 206.912 144.949 219.113 159.999 219.113C175.05 219.113 187.251 206.912 187.251 191.865H132.749Z" fill="#95604E"/>
<path d="M160.001 205.186C150.764 205.186 143.277 208.596 143.277 217.833V223.015C143.277 232.251 150.764 239.74 160.001 239.74C169.237 239.74 176.726 232.251 176.726 223.015V217.833C176.726 208.596 169.237 205.186 160.001 205.186Z" fill="#F36384"/>
</svg>
