<svg width="320" height="167" viewBox="0 0 320 167" fill="none" xmlns="http://www.w3.org/2000/svg">
<path d="M51.2 25.6001H268.8V140.8C268.8 144.195 267.451 147.451 265.051 149.851C262.651 152.252 259.395 153.6 256 153.6H64C60.6052 153.6 57.3495 152.252 54.949 149.851C52.5486 147.451 51.2 144.195 51.2 140.8V25.6001Z" fill="#27418D"/>
<path d="M307.2 19.2H294.4V95.9999H307.2V19.2Z" fill="#4C74C2"/>
<path d="M307.2 19.2H300.8V95.9999H307.2V19.2Z" fill="#27418D"/>
<path d="M315.2 166.4H286.4C283.75 166.4 281.6 163.539 281.6 160V89.6C281.6 86.0608 283.75 83.2 286.4 83.2H315.2C317.85 83.2 320 86.0608 320 89.6V160C320 163.539 317.85 166.4 315.2 166.4Z" fill="#F25083"/>
<path d="M299.2 153.6C296.55 153.6 294.4 150.739 294.4 147.2V83.2H286.4C283.75 83.2 281.6 86.0608 281.6 89.6V160C281.6 163.539 283.75 166.4 286.4 166.4H315.2C317.85 166.4 320 163.539 320 160V153.6H299.2Z" fill="#D73965"/>
<path d="M313.6 38.4H6.4C4.70261 38.4 3.07475 37.7257 1.87452 36.5255C0.674285 35.3252 0 33.6974 0 32V6.4C0 4.70261 0.674285 3.07475 1.87452 1.87452C3.07475 0.674285 4.70261 0 6.4 0H313.6C315.297 0 316.925 0.674285 318.125 1.87452C319.326 3.07475 320 4.70261 320 6.4V32C320 33.6974 319.326 35.3252 318.125 36.5255C316.925 37.7257 315.297 38.4 313.6 38.4Z" fill="#4C74C2"/>
<path d="M320 25.6H12.8V0H6.4C4.70261 0 3.07475 0.674285 1.87452 1.87452C0.674285 3.07475 0 4.70261 0 6.4V32C0 33.6974 0.674285 35.3252 1.87452 36.5255C3.07475 37.7257 4.70261 38.4 6.4 38.4H313.6C315.297 38.4 316.925 37.7257 318.125 36.5255C319.326 35.3252 320 33.6974 320 32V25.6Z" fill="#27418D"/>
</svg>
