<svg width="75" height="138" viewBox="0 0 75 138" fill="none" xmlns="http://www.w3.org/2000/svg">
<path d="M52.5 13.186L37.5 0.175781L22.5 13.186C7.95918 25.737 0 42.4207 0 60.3288C0 78.237 7.95918 94.9207 22.5 107.472L32.9082 116.502V137.625H42.0918V116.502L52.5 107.472C67.0408 94.9207 75 78.237 75 60.3288C75 42.4207 67.0408 25.737 52.5 13.186ZM28.4694 100.584C16.0714 89.8696 9.18367 75.4819 9.18367 60.3288C9.18367 45.1758 16.0714 30.788 28.4694 20.0737L32.9082 16.2472V104.41L28.4694 100.584ZM46.5306 100.584L42.0918 104.41V16.2472L46.5306 20.0737C58.9286 30.788 65.8163 45.1758 65.8163 60.3288C65.8163 75.4819 58.9286 89.8696 46.5306 100.584V100.584Z" fill="#44FC78"/>
</svg>
