<svg width="160" height="67" viewBox="0 0 160 67" fill="none" xmlns="http://www.w3.org/2000/svg">
<path d="M159.9 53.7479L159.861 53.3223C159.602 52.4135 157.219 44.3422 153.15 39.9007C147.182 33.3856 133.593 25.7993 112.751 17.3493C112.037 15.3459 109.745 14.2117 107.715 15.3405C104.502 14.0872 101.308 12.8809 98.1842 11.7322C97.7699 10.1093 96.3353 8.93354 94.6801 8.93354C93.8872 8.93354 93.1263 9.19681 92.4952 9.68009C89.4107 8.58732 86.4525 7.56307 83.6702 6.62177C83.6311 4.60754 82.0009 2.97741 80.0026 2.97741C78.8737 2.97741 77.8177 3.531 77.1262 4.44886C69.3945 1.92431 64.0131 0.324823 63.414 0.146301C62.854 -0.0232044 62.2513 -0.0412366 61.6718 0.0705649L61.0958 0.185971C59.6166 0.485311 58.4824 1.65021 58.2068 3.15051C55.6717 16.8534 43.8494 26.7983 30.0963 26.7983C26.7647 26.7983 23.4598 26.1961 20.2758 25.0077C17.8224 24.0917 15.4917 22.8204 13.3459 21.2299L13.0864 21.0261C12.0464 20.2363 11.1219 19.4375 10.2632 18.5881L10.1246 18.4547C9.16632 17.4954 8.28275 16.4856 7.49519 15.4541L7.27474 15.1674H7.25874C7.2143 15.1115 7.16808 15.0556 7.12363 14.9997C6.96896 14.8121 6.81252 14.6228 6.67385 14.4226C5.77428 13.1243 4.09071 12.5382 2.56358 13.0143C1.03112 13.503 0 14.9311 0 16.5613V63.2781C0 65.332 1.64624 67 3.66937 67H156.331C158.355 67 160 65.3302 160 63.2781V54.3448C160.002 54.1302 159.957 53.9607 159.9 53.7479ZM152.661 58.0667V59.5544H7.33875V58.0667H152.661V58.0667ZM13.465 30.0568C14.0535 30.3688 14.649 30.6591 15.2482 30.935C14.4784 34.821 11.1806 37.4988 7.33875 37.4718V25.9761C8.31298 26.7731 9.38321 27.5557 10.5939 28.3545L10.7468 28.4609C11.3815 28.8739 12.0339 29.2526 12.6828 29.6186C12.9424 29.7701 13.2019 29.9144 13.465 30.0568ZM80.0009 19.3527C82.0258 19.3527 83.6702 17.6847 83.6702 15.6326V14.4984C86.0169 15.299 88.4756 16.1592 91.0108 17.0608V21.5887C91.0108 23.6427 92.6552 25.3107 94.6784 25.3107C96.7015 25.3107 98.3477 23.6408 98.3477 21.5887V19.7332C100.774 20.6348 103.226 21.5689 105.686 22.5318V27.5449C105.686 29.5988 107.333 31.2668 109.356 31.2668C111.379 31.2668 113.025 29.597 113.025 27.5449V25.4748C131.07 32.9438 142.757 39.5022 147.77 44.9679C149.086 46.4051 150.245 48.6826 151.079 50.6247H106.316L112.798 37.4772C113.137 36.7793 113.103 35.9679 112.7 35.3061C112.293 34.6425 111.592 34.2476 110.826 34.2476H102.019C101.18 34.2476 100.426 34.7182 100.049 35.4828L92.5841 50.6247H88.6996L98.1184 31.521C98.4579 30.8232 98.4242 30.0117 98.0206 29.3499C97.6135 28.6863 96.913 28.2914 96.145 28.2914H87.3396C86.5023 28.2914 85.7467 28.7621 85.3698 29.5267L74.9697 50.6265H71.0852L83.4391 25.5667C83.7805 24.8689 83.7431 24.0574 83.3396 23.3956C82.9342 22.732 82.2356 22.3353 81.4675 22.3353H72.6586C71.8212 22.3353 71.0674 22.8077 70.6888 23.5723L57.3535 50.6265H7.33875V44.9174C14.2882 44.9174 20.4287 40.0847 22.2171 33.3225C24.8732 33.9374 27.5167 34.2494 30.091 34.2494C45.9472 34.2494 59.9971 23.603 64.5216 8.26273C66.8754 8.98584 71.0194 10.2842 76.3297 12.0369V15.638C76.3315 17.6847 77.9759 19.3527 80.0009 19.3527Z" fill="#44FC78"/>
</svg>
