<svg width="79" height="80" viewBox="0 0 79 80" fill="none" xmlns="http://www.w3.org/2000/svg">
<path d="M32.9912 46.4902C32.9912 49.8756 30.5354 50.9457 27.5183 50.9457H19.6072V41.6663H27.6762C30.9388 41.6839 32.9912 43.0346 32.9912 46.4902ZM31.6405 32.0537C31.6405 28.9489 29.2373 28.2122 26.5711 28.2122H19.6247V36.0707H27.1148C29.7636 36.0707 31.6405 34.913 31.6405 32.0537ZM54.8476 36.1233C51.6375 36.1233 49.4975 38.123 49.287 41.3331H60.1977C59.8994 38.0879 58.2155 36.1233 54.8476 36.1233ZM78.8615 9.12732V70.8725C78.8615 75.521 75.0902 79.2923 70.4417 79.2923H8.69653C4.0481 79.2923 0.276733 75.521 0.276733 70.8725V9.12732C0.276733 4.47889 4.0481 0.70752 8.69653 0.70752H70.4417C75.0902 0.70752 78.8615 4.47889 78.8615 9.12732ZM47.9363 27.5456H61.5834V24.2303H47.9363V27.5456ZM40.3936 46.8936C40.3936 42.6662 38.3939 39.0176 34.2541 37.8424C37.2712 36.404 38.8499 34.7375 38.8499 31.3521C38.8499 24.6513 33.8507 23.02 28.0796 23.02H12.2048V56.6992H28.5357C34.6576 56.6641 40.3936 53.7347 40.3936 46.8936ZM66.9335 44.2975C66.9335 37.0881 62.706 31.0714 55.0756 31.0714C47.6381 31.0714 42.6038 36.6495 42.6038 43.9818C42.6038 51.5772 47.3925 56.7869 55.0756 56.7869C60.8993 56.7869 64.6707 54.1733 66.495 48.5776H60.5836C59.9345 50.665 57.3209 51.7526 55.2861 51.7526C51.3569 51.7526 49.3045 49.4547 49.3045 45.5605H66.8809C66.8984 45.1571 66.9335 44.7185 66.9335 44.2975Z" fill="#17171A"/>
</svg>
