<svg width="92" height="88" viewBox="0 0 92 88" fill="none" xmlns="http://www.w3.org/2000/svg">
<path d="M39.5621 0.249794C35.719 0.789116 30.1887 2.45203 25.9707 4.38461C12.8479 10.4071 3.80254 21.5531 0.803047 35.4407C-0.509232 41.5081 -0.181162 50.1822 1.55292 55.8002C4.03688 63.8001 7.64564 69.6878 13.4572 75.2608C19.1281 80.699 25.1739 84.1147 33.5632 86.4967C39.1403 88.0697 48.5606 88.4742 54.2784 87.3956C63.4644 85.5978 71.01 81.8226 77.6651 75.7102C84.039 69.8226 88.0696 63.2608 90.5067 54.7215C91.444 51.4856 91.5846 49.9125 91.5378 43.7553C91.5378 37.2834 91.3972 36.1598 90.2255 32.5193C84.8358 15.3059 71.7598 3.89023 53.716 0.609337C50.2947 -0.0198746 42.9366 -0.199646 39.5621 0.249794ZM51.4195 6.99134C55.825 9.05875 59.5744 12.4745 61.2147 15.9801C62.2458 18.0924 62.527 19.4407 62.6676 22.8565C62.8551 26.9463 62.7614 27.3508 60.9804 32.0699C58.4027 38.7665 57.8872 40.8789 58.2153 43.8002C58.7308 48.6991 61.3085 51.935 65.6671 53.0137C68.3854 53.7328 70.9631 53.1035 73.3533 51.0811C76.7746 48.1597 77.8994 44.1148 77.1964 36.6092C76.6809 31.1261 77.1027 28.9688 79.2117 26.6767C80.0085 25.8227 80.8052 25.1036 81.0395 25.1036C81.5551 25.1036 84.1796 30.8564 85.117 34.0924C85.6794 36.1148 85.9606 38.6317 85.9606 42.1822C85.9606 47.171 85.9137 47.4406 84.414 50.1822C82.3518 53.9575 79.3523 56.744 75.5092 58.4968C72.6035 59.8451 71.9942 59.935 67.4481 59.935C63.0894 59.935 62.199 59.8002 59.9025 58.7665C58.4496 58.0923 56.3874 56.8339 55.3564 55.8901L53.4348 54.2271L51.2321 55.935L49.0293 57.6429L51.1383 59.4855C58.7308 66.0473 69.8383 67.3507 79.0242 62.6765C80.6646 61.8226 81.9769 61.2833 81.9769 61.4631C81.9769 62.0473 78.5087 67.2608 77.1964 68.6541C75.4155 70.4967 71.5724 71.5305 66.2764 71.5754C59.4338 71.5754 54.1378 69.5979 48.5606 65.0136L45.8892 62.8114L43.4052 64.7889C37.3125 69.7777 32.3915 71.6203 25.2677 71.5305C22.3151 71.5305 19.878 71.2158 18.0033 70.6316C15.285 69.8226 15.1444 69.6878 12.2386 65.5979C10.5983 63.3058 9.37973 61.3282 9.47346 61.1934C9.61406 61.1035 10.5045 61.4631 11.5356 62.0923C16.2692 64.9687 23.0649 66.1822 28.6421 65.1485C32.5321 64.4294 37.5937 62.0473 40.4058 59.6204L42.7022 57.6878L40.4995 55.9799L38.3436 54.2271L36.4221 55.8901C33.3288 58.5867 29.9075 59.8451 25.1739 60.0698C18.5657 60.3844 13.0822 58.0024 9.19226 53.1485C5.39602 48.3395 4.50555 42.2721 6.52083 34.8115C7.64564 30.5418 10.2233 25.0138 10.9263 25.2385C11.8637 25.5081 14.0664 28.9239 14.4882 30.6767C14.7226 31.6205 14.6757 34.3171 14.4414 36.8789C13.7384 43.8901 14.9569 48.1148 18.4251 51.0811C23.0181 54.9462 29.017 53.6878 32.1571 48.2946C33.282 46.2721 33.4694 45.553 33.4226 42.407C33.4226 39.3058 33.1413 38.1373 31.4541 33.9126C28.9233 27.6205 28.3609 24.6542 29.017 20.9688C30.0481 14.7217 33.8444 10.0925 40.4526 6.90145C44.8113 4.7891 46.8265 4.7891 51.4195 6.99134ZM27.1424 11.0363C24.7053 14.7217 23.7679 17.7329 23.5336 22.6317C23.2993 27.3508 23.5805 28.6092 27.0955 37.7778C27.6579 39.216 28.0797 41.3283 28.0797 42.4968C28.0797 48.2496 22.7837 50.0024 20.5341 45.0586C19.6436 43.2159 19.5968 42.4519 19.878 36.6542C20.206 30.7665 20.1123 30.0924 19.175 27.6654C18.5657 26.1373 17.2534 24.1598 15.8943 22.7216L13.6446 20.3846L15.5193 18.2722C17.7221 15.7554 22.1744 12.2947 25.7363 10.3172C27.1424 9.55313 28.3609 8.92392 28.4078 8.92392C28.5015 8.92392 27.8922 9.86774 27.1424 11.0363ZM69.0415 12.2048C71.7598 13.9576 77.7588 19.3958 77.7588 20.1149C77.7588 20.2947 76.8684 21.3733 75.7435 22.452C72.1348 26.0924 71.9004 26.9014 71.9004 36.1148C71.9004 43.7553 71.8536 44.2946 70.8225 45.8676C69.0884 48.5193 66.8388 48.8339 64.8704 46.5867C63.6518 45.2384 63.605 44.9238 63.8393 41.9575C64.0268 39.7103 64.636 37.4182 66.0889 33.8677C68.0105 29.1036 68.1042 28.7441 68.1511 23.98C68.1511 18.452 67.1669 14.8565 64.636 10.9913L63.23 8.92392L64.7766 9.64302C65.5734 10.0475 67.5418 11.216 69.0415 12.2048ZM47.8108 71.2158C52.1225 74.317 59.5275 76.7889 64.5892 76.7889H67.2137L66.0421 77.6877C64.2142 79.036 58.0278 81.3731 56.2937 81.3731C55.4032 81.3731 52.8724 80.5192 50.2947 79.3507L45.8892 77.2832L41.39 79.3507C38.9529 80.4742 36.2346 81.3731 35.4378 81.4181C33.7506 81.4181 27.2361 78.9462 25.5957 77.6428L24.5647 76.8338L27.1424 76.7889C32.2509 76.7439 39.2809 74.4518 43.3115 71.4855C44.3426 70.7215 45.4205 70.0923 45.7017 70.0923C45.9361 70.0473 46.9203 70.5866 47.8108 71.2158Z" fill="#CBD40B"/>
<path d="M37.5469 40.2047C36.0471 41.1934 36.1409 43.3058 37.7344 44.2946C38.8592 44.9687 39.0935 44.9687 40.2183 44.3844C41.9055 43.4856 42.1399 41.1934 40.6401 40.2047C39.3278 39.3058 38.8592 39.3058 37.5469 40.2047Z" fill="#CBD40B"/>
<path d="M51.2321 39.8452C50.9509 40.025 50.4823 40.6093 50.1542 41.1486C49.3106 42.7666 50.6697 44.834 52.5913 44.8789C53.6692 44.8789 55.2627 43.3059 55.2627 42.1823C55.2627 40.3845 52.685 38.9014 51.2321 39.8452Z" fill="#CBD40B"/>
</svg>
