<svg width="1920" height="1080" viewBox="0 0 1920 1080" fill="none" xmlns="http://www.w3.org/2000/svg">
<g clip-path="url(#clip0)">
<rect width="1920" height="1080" fill="white"/>
<rect width="1920" height="5776" fill="#E5ECF1"/>
<path fill-rule="evenodd" clip-rule="evenodd" d="M947.585 734.305H1197.59C1214.5 734.305 1228.21 720.322 1228.21 703.075V572.797C1228.21 571.896 1228.17 571.003 1228.1 570.121H917.082C917.009 571.003 916.971 571.896 916.971 572.797V703.075C916.971 720.322 930.679 734.305 947.585 734.305Z" fill="#7798B6"/>
<path fill-rule="evenodd" clip-rule="evenodd" d="M1119.13 698.475C1119.13 702.398 1115.95 705.581 1112.02 705.581C1108.1 705.581 1104.92 702.398 1104.92 698.475C1104.92 696.015 1106.17 693.847 1108.07 692.572H1084.56C1083.77 692.572 1083.14 691.932 1083.14 691.142C1083.14 690.352 1083.77 689.715 1084.56 689.715H1170.67L1173.19 678.573L1079.71 662.796C1079.1 662.693 1078.63 662.212 1078.54 661.601L1072.32 620.573C1072.25 620.162 1072.37 619.743 1072.64 619.429C1072.91 619.113 1073.31 618.93 1073.73 618.93H1185.68L1189.95 600.067C1190.09 599.416 1190.67 598.954 1191.34 598.954H1198.85C1199.37 597.596 1200.69 596.631 1202.23 596.631H1216.08C1218.08 596.631 1219.71 598.255 1219.71 600.256V600.507C1219.71 602.51 1218.08 604.132 1216.08 604.132H1202.23C1200.69 604.132 1199.37 603.168 1198.85 601.809H1192.48L1188.22 620.674C1188.21 620.685 1188.21 620.696 1188.21 620.708L1176.31 677.707C1176.3 677.732 1176.3 677.756 1176.29 677.781L1173.21 691.456C1173.06 692.107 1172.48 692.572 1171.82 692.572H1150.41C1152.31 693.847 1153.56 696.015 1153.56 698.475C1153.56 702.398 1150.38 705.581 1146.45 705.581C1142.53 705.581 1139.35 702.398 1139.35 698.475C1139.35 696.015 1140.6 693.847 1142.49 692.572H1115.98C1117.88 693.847 1119.13 696.015 1119.13 698.475ZM1173.8 675.779L1081.21 660.15L1079.51 648.941L1177.4 658.496L1173.8 675.779ZM1077.44 635.303L1079.14 646.514L1177.89 656.153L1181.61 638.341L1077.44 635.303ZM1182.1 635.975L1077.08 632.912L1075.39 621.787H1185.06L1182.1 635.975Z" fill="#E5ECF1"/>
<path d="M1054.66 589.014H1003.47C1002.74 589.014 1002.15 588.418 1002.15 587.681C1002.15 586.946 1002.74 586.351 1003.47 586.351H1054.66C1055.4 586.351 1055.99 586.946 1055.99 587.681C1055.99 588.418 1055.4 589.014 1054.66 589.014Z" fill="#E5ECF1"/>
<path d="M1054.66 606.77H1003.47C1002.74 606.77 1002.15 606.174 1002.15 605.439C1002.15 604.702 1002.74 604.106 1003.47 604.106H1054.66C1055.4 604.106 1055.99 604.702 1055.99 605.439C1055.99 606.174 1055.4 606.77 1054.66 606.77Z" fill="#E5ECF1"/>
<path d="M1054.66 624.526H1003.47C1002.74 624.526 1002.15 623.931 1002.15 623.196C1002.15 622.461 1002.74 621.865 1003.47 621.865H1054.66C1055.4 621.865 1055.99 622.461 1055.99 623.196C1055.99 623.931 1055.4 624.526 1054.66 624.526Z" fill="#E5ECF1"/>
<path d="M1054.66 642.283H1003.47C1002.74 642.283 1002.15 641.689 1002.15 640.953C1002.15 640.218 1002.74 639.622 1003.47 639.622H1054.66C1055.4 639.622 1055.99 640.218 1055.99 640.953C1055.99 641.689 1055.4 642.283 1054.66 642.283Z" fill="#E5ECF1"/>
<path d="M1054.66 660.04H1003.47C1002.74 660.04 1002.15 659.446 1002.15 658.709C1002.15 657.975 1002.74 657.379 1003.47 657.379H1054.66C1055.4 657.379 1055.99 657.975 1055.99 658.709C1055.99 659.446 1055.4 660.04 1054.66 660.04Z" fill="#E5ECF1"/>
<path d="M1054.66 677.798H1003.47C1002.74 677.798 1002.15 677.202 1002.15 676.467C1002.15 675.731 1002.74 675.135 1003.47 675.135H1054.66C1055.4 675.135 1055.99 675.731 1055.99 676.467C1055.99 677.202 1055.4 677.798 1054.66 677.798Z" fill="#E5ECF1"/>
<path d="M1054.66 695.555H1003.47C1002.74 695.555 1002.15 694.959 1002.15 694.224C1002.15 693.487 1002.74 692.892 1003.47 692.892H1054.66C1055.4 692.892 1055.99 693.487 1055.99 694.224C1055.99 694.959 1055.4 695.555 1054.66 695.555Z" fill="#E5ECF1"/>
<path d="M1054.66 713.312H1003.47C1002.74 713.312 1002.15 712.716 1002.15 711.981C1002.15 711.246 1002.74 710.65 1003.47 710.65H1054.66C1055.4 710.65 1055.99 711.246 1055.99 711.981C1055.99 712.716 1055.4 713.312 1054.66 713.312Z" fill="#E5ECF1"/>
<path d="M993.115 589.014H941.927C941.193 589.014 940.597 588.418 940.597 587.681C940.597 586.946 941.193 586.351 941.927 586.351H993.115C993.851 586.351 994.447 586.946 994.447 587.681C994.447 588.418 993.851 589.014 993.115 589.014Z" fill="#E5ECF1"/>
<path d="M993.115 606.77H941.927C941.193 606.77 940.597 606.174 940.597 605.439C940.597 604.702 941.193 604.106 941.927 604.106H993.115C993.851 604.106 994.447 604.702 994.447 605.439C994.447 606.174 993.851 606.77 993.115 606.77Z" fill="#E5ECF1"/>
<path d="M993.115 624.526H941.927C941.193 624.526 940.597 623.931 940.597 623.196C940.597 622.461 941.193 621.865 941.927 621.865H993.115C993.851 621.865 994.447 622.461 994.447 623.196C994.447 623.931 993.851 624.526 993.115 624.526Z" fill="#E5ECF1"/>
<path d="M993.115 642.283H941.927C941.193 642.283 940.597 641.689 940.597 640.953C940.597 640.218 941.193 639.622 941.927 639.622H993.115C993.851 639.622 994.447 640.218 994.447 640.953C994.447 641.689 993.851 642.283 993.115 642.283Z" fill="#E5ECF1"/>
<path d="M993.115 660.04H941.927C941.193 660.04 940.597 659.446 940.597 658.709C940.597 657.975 941.193 657.379 941.927 657.379H993.115C993.851 657.379 994.447 657.975 994.447 658.709C994.447 659.446 993.851 660.04 993.115 660.04Z" fill="#E5ECF1"/>
<path d="M993.115 677.798H941.927C941.193 677.798 940.597 677.202 940.597 676.467C940.597 675.731 941.193 675.135 941.927 675.135H993.115C993.851 675.135 994.447 675.731 994.447 676.467C994.447 677.202 993.851 677.798 993.115 677.798Z" fill="#E5ECF1"/>
<path d="M993.115 695.555H941.927C941.193 695.555 940.597 694.959 940.597 694.224C940.597 693.487 941.193 692.892 941.927 692.892H993.115C993.851 692.892 994.447 693.487 994.447 694.224C994.447 694.959 993.851 695.555 993.115 695.555Z" fill="#E5ECF1"/>
<path d="M993.115 713.312H941.927C941.193 713.312 940.597 712.716 940.597 711.981C940.597 711.246 941.193 710.65 941.927 710.65H993.115C993.851 710.65 994.447 711.246 994.447 711.981C994.447 712.716 993.851 713.312 993.115 713.312Z" fill="#E5ECF1"/>
<path d="M1228.8 563.262V574.461H916.526V563.262C916.526 559.166 919.846 555.844 923.944 555.844H1221.38C1225.48 555.844 1228.8 559.166 1228.8 563.262Z" fill="#283A4A"/>
<path d="M1188.02 565.152C1188.02 567.557 1186.07 569.504 1183.67 569.504C1181.26 569.504 1179.32 567.557 1179.32 565.152C1179.32 562.75 1181.26 560.801 1183.67 560.801C1186.07 560.801 1188.02 562.75 1188.02 565.152Z" fill="#E5ECF1"/>
<path d="M1203.19 565.152C1203.19 567.557 1201.24 569.504 1198.84 569.504C1196.43 569.504 1194.49 567.557 1194.49 565.152C1194.49 562.75 1196.43 560.801 1198.84 560.801C1201.24 560.801 1203.19 562.75 1203.19 565.152Z" fill="#E5ECF1"/>
<path d="M1218.29 565.152C1218.29 567.557 1216.35 569.504 1213.94 569.504C1211.54 569.504 1209.59 567.557 1209.59 565.152C1209.59 562.75 1211.54 560.801 1213.94 560.801C1216.35 560.801 1218.29 562.75 1218.29 565.152Z" fill="#E5ECF1"/>
<path d="M838.93 785.252H756.627C743.005 785.252 731.962 774.209 731.962 760.587V569.932C731.962 556.31 743.005 545.267 756.627 545.267H838.93C852.552 545.267 863.595 556.31 863.595 569.932V760.587C863.595 774.209 852.552 785.252 838.93 785.252Z" fill="#7798B6"/>
<path d="M837.872 671.492V691.048C837.872 693.553 835.841 695.584 833.336 695.584H764.793C763.992 695.584 763.242 695.378 762.591 695.015L762.022 694.636L759.635 693.062L760.98 693.501C760.522 692.795 760.257 691.954 760.257 691.048V671.492C760.257 668.983 762.288 666.954 764.793 666.954H833.336L833.45 666.956L833.334 666.037L835.843 667.708L835.846 667.712C837.067 668.525 837.872 669.914 837.872 671.492" fill="#31A552"/>
<path d="M828.236 693.873H764.755C760.851 693.873 757.687 690.709 757.687 686.805V672.309C757.687 668.405 760.851 665.241 764.755 665.241H828.236C832.14 665.241 835.304 668.405 835.304 672.309V686.805C835.304 690.709 832.14 693.873 828.236 693.873Z" fill="#44FC78"/>
<path d="M781.526 682.19C781.526 681.339 780.913 680.89 779.681 680.89H776.325V683.492H779.681C780.913 683.492 781.526 683.043 781.526 682.19ZM776.325 674.741V677.201H778.925C780.178 677.201 780.745 676.776 780.745 675.971C780.745 675.168 780.178 674.741 778.925 674.741H776.325ZM787.155 682.83C787.155 685.714 784.72 687.393 780.155 687.393H770.839V670.841H779.681C784.246 670.841 786.374 672.661 786.374 675.168C786.374 676.706 785.594 677.981 784.08 678.737C786.018 679.447 787.155 680.867 787.155 682.83" fill="#E5ECF1"/>
<path d="M788.974 679.944V670.841H794.556V679.778C794.556 682.308 795.527 683.254 797.086 683.254C798.646 683.254 799.617 682.308 799.617 679.778V670.841H805.102V679.944C805.102 684.91 802.122 687.771 797.04 687.771C791.955 687.771 788.974 684.91 788.974 679.944" fill="#E5ECF1"/>
<path d="M817.258 681.387V687.393H811.677V681.316L805.435 670.841H811.323L814.705 676.563L818.109 670.841H823.5L817.258 681.387" fill="#E5ECF1"/>
<path d="M829.134 611.056C827.602 616.319 826.423 628.66 825.845 635.684C825.595 638.759 825.458 640.818 825.458 640.818H820.6L819.26 635.684L814.745 618.379C814.745 618.379 808.086 625.656 804.256 632.037C803.472 633.339 802.703 634.573 802 635.684C800.091 638.709 798.641 640.818 798.641 640.818H763.763C763.763 640.818 763.565 638.58 764.369 635.684C765.324 632.227 767.7 627.836 773.525 625.194C773.831 625.051 774.147 624.918 774.477 624.79C779.384 622.845 783.907 620.02 787.8 617.018L787.844 616.986L787.918 616.934C789.802 615.59 813.62 598.582 817.427 594.782L820.6 592.762C820.6 592.762 824.008 589.837 827.183 592.762C830.352 595.69 831.331 603.502 829.134 611.056" fill="#405D76"/>
<path d="M817.29 599.835C814.332 604.832 778.64 627.814 773.525 625.193C773.832 625.05 774.148 624.917 774.477 624.789C779.384 622.844 783.907 620.019 787.8 617.017L787.844 616.985L787.918 616.933C789.803 615.589 813.62 598.581 817.427 594.781C818.44 595.642 818.884 597.153 817.29 599.835" fill="#283A4A"/>
<path d="M825.845 635.685H819.261L820.599 640.819H825.459C825.459 640.819 825.594 638.758 825.845 635.685" fill="#283A4A"/>
<path d="M763.762 640.819H798.643C798.643 640.819 800.09 638.708 801.999 635.685H764.369C763.567 638.581 763.762 640.819 763.762 640.819" fill="#283A4A"/>
<path d="M845.477 718.048H750.082C749.384 718.048 748.818 717.483 748.818 716.784C748.818 716.087 749.384 715.52 750.082 715.52H845.477C846.175 715.52 846.741 716.087 846.741 716.784C846.741 717.483 846.175 718.048 845.477 718.048Z" fill="#E5ECF1"/>
<path d="M845.477 728.881H750.082C749.384 728.881 748.818 728.315 748.818 727.617C748.818 726.918 749.384 726.353 750.082 726.353H845.477C846.175 726.353 846.741 726.918 846.741 727.617C846.741 728.315 846.175 728.881 845.477 728.881Z" fill="#E5ECF1"/>
<path d="M845.477 739.714H750.082C749.384 739.714 748.818 739.149 748.818 738.45C748.818 737.751 749.384 737.188 750.082 737.188H845.477C846.175 737.188 846.741 737.751 846.741 738.45C846.741 739.149 846.175 739.714 845.477 739.714Z" fill="#E5ECF1"/>
<path d="M845.477 750.548H750.082C749.384 750.548 748.818 749.983 748.818 749.284C748.818 748.587 749.384 748.02 750.082 748.02H845.477C846.175 748.02 846.741 748.587 846.741 749.284C846.741 749.983 846.175 750.548 845.477 750.548Z" fill="#E5ECF1"/>
<path d="M845.477 761.381H750.082C749.384 761.381 748.818 760.815 748.818 760.117C748.818 759.42 749.384 758.855 750.082 758.855H845.477C846.175 758.855 846.741 759.42 846.741 760.117C846.741 760.815 846.175 761.381 845.477 761.381Z" fill="#E5ECF1"/>
<path d="M863.597 550.725V563.755H731.962V550.725C731.962 547.711 734.404 545.267 737.42 545.267H858.139C861.153 545.267 863.597 547.711 863.597 550.725Z" fill="#283A4A"/>
<path d="M830.084 554.511C830.084 556.713 828.299 558.497 826.096 558.497C823.894 558.497 822.108 556.713 822.108 554.511C822.108 552.309 823.894 550.523 826.096 550.523C828.299 550.523 830.084 552.309 830.084 554.511Z" fill="#E5ECF1"/>
<path d="M843.986 554.511C843.986 556.713 842.201 558.497 839.998 558.497C837.796 558.497 836.01 556.713 836.01 554.511C836.01 552.309 837.796 550.523 839.998 550.523C842.201 550.523 843.986 552.309 843.986 554.511Z" fill="#E5ECF1"/>
<path d="M857.827 554.511C857.827 556.713 856.042 558.497 853.839 558.497C851.637 558.497 849.851 556.713 849.851 554.511C849.851 552.309 851.637 550.523 853.839 550.523C856.042 550.523 857.827 552.309 857.827 554.511Z" fill="#E5ECF1"/>
<path d="M1205.82 1021.36C1193.15 1013.45 1163.18 1035.55 1148.11 1061.49L1160.74 1020.8C1165.73 1016.09 1174.53 1009.41 1188.48 1003.79C1210.19 995.05 1231.76 981.886 1219.06 973.956C1207.17 966.522 1180.02 985.553 1164.28 1009.37L1180.49 957.121C1183.8 954.347 1188.86 950.934 1196.19 947.985C1209.87 942.478 1223.46 934.182 1215.46 929.186C1208.52 924.849 1193.33 934.811 1183.25 948.231L1188.5 931.295C1191.02 926.332 1194.6 919.243 1200.44 912.668C1213.97 897.436 1223.98 880.52 1212.96 878.594C1201.94 876.666 1185.28 906.101 1183.55 932.132L1180.85 940.849C1182.44 921.899 1174.7 899.364 1165.22 898.953C1155.79 898.545 1162.31 913.079 1170.47 925.359C1176.68 934.71 1178.61 942.254 1179.2 946.175L1166.43 987.338C1168.86 957.322 1156.61 921.767 1141.6 921.118C1126.65 920.471 1136.98 943.529 1149.93 963.018C1159.72 977.744 1162.8 989.657 1163.77 995.916L1148.46 1045.27C1150.3 1015.64 1138.23 981.414 1123.51 980.778C1108.55 980.131 1116.3 997.044 1130.81 1019.09C1140.67 1034.08 1144.2 1047.76 1145.45 1054.99L1138.16 1078.48L1142.43 1079.8L1145.38 1070.31C1149.79 1065.67 1159.04 1057.72 1175.24 1051.19C1196.95 1042.45 1218.52 1029.29 1205.82 1021.36" fill="#CFDBE5"/>
<path d="M1164.53 988.77C1164.33 988.711 1164.19 988.536 1164.17 988.323C1162.24 958.001 1146.6 936.448 1146.44 936.233C1146.28 936.012 1146.33 935.698 1146.55 935.534C1146.77 935.371 1147.08 935.416 1147.25 935.641C1147.41 935.856 1163.22 957.631 1165.18 988.258C1165.19 988.536 1164.98 988.774 1164.71 988.791L1164.53 988.77" fill="#7798B6"/>
<path d="M1189.26 920.441L1189.23 920.427C1188.97 920.328 1188.84 920.035 1188.95 919.78C1197.99 896.916 1210.31 884.602 1210.43 884.482C1210.63 884.286 1210.95 884.288 1211.14 884.486C1211.34 884.682 1211.34 885 1211.14 885.194C1211.02 885.314 1198.84 897.495 1189.88 920.148C1189.78 920.393 1189.51 920.519 1189.26 920.441" fill="#7798B6"/>
<path d="M1185.1 950.772L1184.93 950.681C1184.71 950.504 1184.68 950.188 1184.86 949.974C1193.32 939.699 1209.88 932.692 1210.05 932.623C1210.3 932.515 1210.59 932.637 1210.7 932.89C1210.81 933.145 1210.69 933.438 1210.43 933.545C1210.27 933.613 1193.93 940.531 1185.63 950.612C1185.5 950.774 1185.28 950.829 1185.1 950.772" fill="#7798B6"/>
<path d="M1165.58 1013.7L1165.44 1013.63C1165.21 1013.47 1165.16 1013.16 1165.32 1012.93C1181.22 990.374 1207.05 982.334 1207.31 982.256C1207.57 982.176 1207.86 982.324 1207.94 982.591C1208.02 982.853 1207.87 983.133 1207.6 983.215C1207.35 983.291 1181.84 991.241 1166.13 1013.51C1166.01 1013.69 1165.78 1013.76 1165.58 1013.7" fill="#7798B6"/>
<path d="M1149.29 1063.25L1149.11 1063.16C1148.9 1062.98 1148.87 1062.67 1149.05 1062.45C1166.55 1041.26 1194.97 1028.86 1195.26 1028.74C1195.51 1028.63 1195.81 1028.75 1195.91 1029C1196.02 1029.26 1195.9 1029.55 1195.65 1029.66C1195.37 1029.78 1167.17 1042.09 1149.82 1063.09C1149.69 1063.25 1149.47 1063.31 1149.29 1063.25Z" fill="#7798B6"/>
<path d="M1146.58 1046.62C1146.39 1046.56 1146.25 1046.39 1146.23 1046.18C1144.02 1015.08 1128.89 993.498 1128.74 993.285C1128.58 993.061 1128.63 992.748 1128.86 992.587C1129.08 992.427 1129.39 992.48 1129.56 992.705C1129.71 992.92 1145 1014.71 1147.23 1046.11C1147.25 1046.39 1147.04 1046.62 1146.76 1046.64L1146.58 1046.62Z" fill="#7798B6"/>
<path d="M1179.06 937.422C1178.86 937.363 1178.72 937.19 1178.7 936.977C1177.68 920.996 1167.55 908.732 1167.44 908.608C1167.27 908.397 1167.29 908.081 1167.51 907.902C1167.72 907.727 1168.03 907.753 1168.21 907.966C1168.31 908.09 1178.66 920.595 1179.71 936.914C1179.72 937.188 1179.51 937.426 1179.24 937.445L1179.06 937.422Z" fill="#7798B6"/>
<path d="M827.337 883.488C835.976 905.558 832.418 926.414 812.758 934.516C812.758 934.516 791.483 929.347 789.249 903.43C788.514 894.927 788.523 885.434 788.009 876.022C786.964 856.733 783.728 837.781 767.475 828.381C767.475 828.381 790.067 830.23 813.249 859.454C819.438 867.256 824.197 875.453 827.337 883.488" fill="#7798B6"/>
<path d="M817.614 930.916C817.286 931.165 816.82 931.157 816.496 930.88C804.076 920.09 804.974 903.681 805.928 886.307C805.998 885.062 806.067 883.81 806.13 882.557C807.039 864.698 793.218 852.532 793.075 852.41C792.705 852.088 792.666 851.529 792.985 851.157C793.307 850.786 793.867 850.744 794.238 851.066C794.834 851.582 808.857 863.902 807.904 882.647C807.839 883.903 807.77 885.155 807.702 886.406C806.773 903.331 805.895 919.321 817.662 929.539C818.033 929.859 818.071 930.421 817.749 930.79L817.614 930.916" fill="#CFDBE5"/>
<path d="M811.875 986.438C811.581 987.234 811.269 987.967 810.955 988.638C809.244 992.299 807.422 994.085 807.422 994.085C807.422 994.085 764.462 994.572 763.486 958.488C763.39 954.97 762.991 951.501 762.319 948.094C756.166 916.605 727.47 890.509 710.143 877.842C710.143 877.842 754.512 877.909 792.043 925.137C793.749 927.28 795.329 929.37 796.794 931.409C816.658 959.061 815.33 977.103 811.875 986.438Z" fill="#7798B6"/>
<path d="M811.877 986.44C811.581 987.234 811.271 987.969 810.957 988.639C786.877 990.731 780.612 965.885 775.558 945.844C774.403 941.261 773.312 936.928 772.076 933.096C765.391 912.381 746.113 899.842 745.921 899.719C745.432 899.408 745.293 898.761 745.603 898.272C745.914 897.787 746.561 897.648 747.046 897.96C747.865 898.483 767.15 911.032 774.068 932.457C775.322 936.349 776.422 940.716 777.587 945.334C782.776 965.914 788.655 989.229 811.877 986.44" fill="#CFDBE5"/>
<path d="M822.222 917.138C822.906 920.597 823.418 924.414 823.772 928.706C826.504 961.473 837.099 969.888 832.11 983.373C829.854 989.474 828.725 991.14 822.814 992.179C822.007 992.322 821.198 992.435 820.399 992.522C814.163 993.213 808.654 992.383 808.654 992.383C808.654 992.383 788.118 990.049 782.957 942.439C782.369 937.017 781.844 932.255 781.349 928.034C777.509 895.182 775.533 894.775 760.232 866.653C742.963 834.913 746.3 804.191 746.3 804.191C746.3 804.191 753.935 838.419 781.6 864.569C805.644 887.296 817.686 894.208 822.222 917.138" fill="#CFDBE5"/>
<path d="M822.816 992.179C822.007 992.324 821.198 992.434 820.399 992.521C816.338 988.979 810.822 982.499 804.873 970.727C798.388 957.886 797.674 946.373 796.918 934.179C796.297 924.208 795.658 913.896 791.74 902.227C783.258 876.97 771.562 869.788 771.444 869.719C771.025 869.472 770.885 868.924 771.134 868.505C771.381 868.082 771.926 867.941 772.348 868.189C772.847 868.484 784.701 875.691 793.423 901.662C797.419 913.551 798.064 923.983 798.692 934.072C799.431 946.074 800.137 957.412 806.459 969.926C812.946 982.766 818.895 989.103 822.816 992.179" fill="#7798B6"/>
<path d="M993.016 1079.58C922.004 1077.09 848.559 1067.4 810.542 936.552C799.24 897.654 806.592 868.198 818.996 846.003C822.061 840.52 825.434 835.48 828.912 830.852L828.915 830.848C830.223 829.104 831.548 827.416 832.879 825.785C860.623 791.764 907.157 779.56 948.401 794.598C971.534 803.027 1001.21 815.498 1027.67 831.71C1080.83 864.286 1093.29 901.431 1110.66 965.146C1112.16 970.617 1113.64 976.752 1114.78 983.268C1115.38 986.752 1115.89 990.342 1116.23 993.999C1120.08 1034.74 1104.36 1083.5 993.016 1079.58" fill="#283A4A"/>
<path d="M1116.23 993.999C1113.87 1000.62 1110.51 1007.37 1106.04 1013.77C1092.61 1033.01 1064.65 1056.26 1007.7 1057.76C1005.19 1057.83 1002.71 1057.86 1000.27 1057.86C978.514 1057.86 959.324 1055.24 941.79 1049.88C923.451 1044.28 907.436 1035.82 892.834 1024.04C868.436 1004.36 848.33 975.559 827.652 930.672C819.481 912.944 815.248 894.973 815.061 877.267C814.953 866.708 816.268 856.235 818.996 846.003C822.061 840.521 825.434 835.48 828.912 830.852C828.03 832.887 827.176 835.014 826.365 837.233C818.925 857.636 813.803 890.09 831.649 928.826C867.949 1007.61 910.042 1055.91 1007.58 1053.36C1062.69 1051.91 1089.58 1029.66 1102.42 1011.25C1109.13 1001.64 1112.93 991.914 1114.78 983.268C1115.38 986.752 1115.89 990.342 1116.23 993.999" fill="#405D76"/>
<path d="M1010.72 922.475C991.23 928.936 943.627 945.87 922.943 939.013C922.073 938.724 921.249 938.393 920.476 938.014C918.222 936.919 916.41 935.436 915.14 933.51C907.035 921.159 898.992 869.38 902.605 838.936C903.056 835.137 903.275 831.006 903.349 826.671C903.456 820.289 903.243 813.459 902.974 806.583C901.954 780.728 897.88 762.876 908.94 756.595C918.869 750.954 931.427 746.546 939.437 744.631C944.4 743.443 952.519 740.959 958.211 741.073L982.868 745.554C982.868 745.554 1004.14 749.102 1009.06 752.728C1013.96 756.347 1016.47 772.301 1025.34 786.917C1034.21 801.534 1036.14 816.188 1027.67 832.234C1020.3 846.187 1021.6 840.893 1020.63 863.791C1019.45 891.842 1048.77 909.867 1010.72 922.475" fill="#E5ECF1"/>
<path d="M945.27 791.027C945.27 791.027 971.987 784.117 1006.08 790.487L1006.9 814.055C1006.9 814.055 969.409 809.886 945.799 815.897L945.27 791.027" fill="#CFDBE5"/>
<path d="M975.965 771.121C975.606 771.121 975.24 771.112 974.865 771.093C960.267 770.341 946.884 757.453 946.323 756.905C945.927 756.521 945.919 755.889 946.306 755.493C946.69 755.099 947.322 755.089 947.718 755.474C947.849 755.603 961.131 768.382 974.968 769.096C988.23 769.794 989.827 756.642 989.89 756.083C989.949 755.535 990.446 755.139 990.99 755.198C991.539 755.257 991.935 755.75 991.877 756.298C991.86 756.45 990.113 771.121 975.965 771.121" fill="#CFDBE5"/>
<path d="M1026.05 981.094C1026.05 981.094 1014.27 977.709 1010.65 973.885L1002.47 993.155L1030.33 1001.85C1030.33 1001.85 1030.72 984.924 1026.05 981.094" fill="#F79190"/>
<path d="M1093.29 1036.79L1057.28 956.833C1055.93 956.722 1054.25 957.09 1052.36 957.781C1045.37 960.328 1035.55 967.346 1029.22 971.467C1028.48 971.955 1027.79 972.398 1027.16 972.788C1026.09 973.447 1025.18 973.965 1024.49 974.277C1018.93 976.778 1022.1 981.267 1022.1 981.267C1033.68 985.782 1025.91 1000.3 1032.22 1003.89C1032.22 1003.89 1034.91 1005.46 1043.48 1009.23C1052.05 1013 1060.68 1022.1 1068.67 1029.56C1078.97 1039.19 1085.44 1040.32 1089.15 1039.44C1092.09 1038.74 1093.29 1036.79 1093.29 1036.79" fill="#CFDBE5"/>
<path d="M1093.29 1036.78L1057.28 956.833C1055.93 956.722 1054.25 957.09 1052.36 957.781L1089.15 1039.44C1092.09 1038.74 1093.29 1036.78 1093.29 1036.78Z" fill="#7798B6"/>
<path d="M1060.95 964.989L1059.88 962.614C1058.24 966.204 1055.08 970.293 1049.02 972.678C1040.94 975.853 1033.48 973.51 1029.22 971.467C1028.48 971.955 1027.79 972.398 1027.16 972.788C1031.47 975.115 1040.1 978.423 1049.78 974.623C1055.57 972.345 1058.97 968.58 1060.95 964.989" fill="#7798B6"/>
<path d="M1047.59 1005.75C1047.32 1005.16 1046.68 1004.8 1046.01 1004.92C1045.22 1005.07 1044.7 1005.82 1044.85 1006.6L1045.86 1012.16C1046 1012.94 1046.75 1013.46 1047.54 1013.32C1048.32 1013.18 1048.84 1012.42 1048.7 1011.64L1047.69 1006.09L1047.59 1005.75" fill="#44FC78"/>
<path d="M1041.19 1002.66C1040.93 1002.07 1040.28 1001.71 1039.62 1001.83C1038.83 1001.98 1038.31 1002.73 1038.45 1003.51L1039.46 1009.06C1039.6 1009.85 1040.36 1010.37 1041.14 1010.23C1041.93 1010.08 1042.45 1009.33 1042.31 1008.55L1041.3 1003L1041.19 1002.66" fill="#44FC78"/>
<path d="M1052.74 1009.44C1052.47 1008.84 1051.83 1008.49 1051.16 1008.61C1050.38 1008.75 1049.86 1009.5 1050 1010.29L1051.01 1015.84C1051.15 1016.63 1051.91 1017.15 1052.69 1017C1053.48 1016.86 1054 1016.11 1053.85 1015.32L1052.84 1009.77L1052.74 1009.44" fill="#44FC78"/>
<path d="M1057.78 1013.17C1057.52 1012.58 1056.87 1012.22 1056.2 1012.35C1055.42 1012.49 1054.9 1013.24 1055.04 1014.03L1056.05 1019.58C1056.19 1020.37 1056.95 1020.89 1057.73 1020.74C1058.52 1020.6 1059.04 1019.85 1058.9 1019.06L1057.88 1013.51L1057.78 1013.17" fill="#44FC78"/>
<path d="M1062.81 1017.46C1062.55 1016.87 1061.9 1016.51 1061.24 1016.63C1060.45 1016.77 1059.93 1017.52 1060.08 1018.31L1061.09 1023.86C1061.23 1024.65 1061.98 1025.17 1062.77 1025.03C1063.55 1024.88 1064.07 1024.13 1063.93 1023.35L1062.92 1017.79L1062.81 1017.46Z" fill="#44FC78"/>
<path d="M1067.68 1022.37C1067.41 1021.78 1066.77 1021.42 1066.1 1021.54C1065.32 1021.69 1064.8 1022.44 1064.94 1023.22L1065.95 1028.78C1066.09 1029.56 1066.84 1030.08 1067.63 1029.94C1068.41 1029.8 1068.93 1029.04 1068.79 1028.26L1067.78 1022.71L1067.68 1022.37" fill="#44FC78"/>
<path d="M938.882 980.792C938.882 980.792 950.41 976.627 953.764 972.57L963.217 991.252L935.998 1001.79C935.998 1001.79 934.479 984.926 938.882 980.792Z" fill="#F79190"/>
<path d="M875.506 1040.85L906.104 958.672C907.444 958.472 909.142 958.727 911.072 959.288C918.215 961.363 928.482 967.712 935.075 971.401C935.842 971.839 936.563 972.235 937.22 972.577C938.334 973.165 939.272 973.62 939.986 973.887C945.695 976.011 942.835 980.702 942.835 980.702C931.583 985.98 940.308 999.951 934.25 1003.96C934.25 1003.96 931.669 1005.69 923.371 1010.03C915.072 1014.36 907.065 1024.02 899.596 1032C889.958 1042.29 883.577 1043.86 879.819 1043.23C876.842 1042.72 875.506 1040.85 875.506 1040.85" fill="#CFDBE5"/>
<path d="M875.506 1040.85L906.104 958.671C907.444 958.471 909.142 958.726 911.072 959.288L879.819 1043.23C876.842 1042.72 875.506 1040.85 875.506 1040.85Z" fill="#7798B6"/>
<path d="M902.984 967.055L903.892 964.615C905.771 968.087 909.191 971.955 915.407 973.931C923.674 976.558 930.963 973.723 935.074 971.401C935.842 971.839 936.563 972.235 937.22 972.577C933.072 975.189 924.679 979.065 914.777 975.924C908.839 974.037 905.203 970.504 902.984 967.055" fill="#7798B6"/>
<path d="M919.041 1006.83C919.265 1006.22 919.886 1005.82 920.558 1005.9C921.35 1005.99 921.921 1006.71 921.831 1007.5L921.194 1013.11C921.104 1013.9 920.388 1014.47 919.595 1014.38C918.801 1014.29 918.233 1013.57 918.321 1012.78L918.959 1007.17L919.041 1006.83" fill="#44FC78"/>
<path d="M925.214 1003.32C925.44 1002.71 926.059 1002.32 926.731 1002.39C927.523 1002.48 928.094 1003.2 928.003 1003.99L927.367 1009.6C927.277 1010.39 926.562 1010.96 925.77 1010.87C924.976 1010.78 924.407 1010.07 924.496 1009.27L925.134 1003.66L925.214 1003.32" fill="#44FC78"/>
<path d="M914.145 1010.85C914.371 1010.25 914.988 1009.85 915.664 1009.92C916.456 1010.01 917.027 1010.73 916.935 1011.52L916.298 1017.13C916.21 1017.93 915.492 1018.49 914.699 1018.4C913.907 1018.31 913.336 1017.6 913.427 1016.8L914.065 1011.2L914.145 1010.85Z" fill="#44FC78"/>
<path d="M909.365 1014.92C909.591 1014.31 910.21 1013.91 910.882 1013.99C911.676 1014.08 912.247 1014.8 912.155 1015.59L911.518 1021.2C911.428 1021.99 910.711 1022.56 909.919 1022.47C909.127 1022.38 908.558 1021.66 908.645 1020.87L909.283 1015.26L909.365 1014.92" fill="#44FC78"/>
<path d="M904.629 1019.53C904.853 1018.92 905.472 1018.52 906.146 1018.6C906.94 1018.69 907.509 1019.4 907.417 1020.2L906.782 1025.8C906.69 1026.6 905.976 1027.17 905.183 1027.08C904.389 1026.99 903.82 1026.27 903.909 1025.48L904.547 1019.87L904.629 1019.53" fill="#44FC78"/>
<path d="M900.106 1024.76C900.332 1024.15 900.949 1023.75 901.623 1023.83C902.417 1023.92 902.986 1024.63 902.896 1025.43L902.259 1031.03C902.169 1031.83 901.453 1032.4 900.66 1032.31C899.868 1032.22 899.297 1031.5 899.386 1030.71L900.024 1025.1L900.106 1024.76" fill="#44FC78"/>
<path d="M955.319 949.122C958.289 951.254 962.985 953.471 970.017 955.708C1009.95 968.414 1046.56 947.905 1046.56 947.905C1048.77 936.969 1047.4 924.544 1043.72 919.995C1044.88 918.379 1044.11 916.447 1044.11 916.447L1080.86 878.299C1059.96 895.618 1034.11 901.284 1013.99 913.446H1013.98C1008.18 916.951 1002.97 920.037 999.146 922.182C993.317 925.454 985.876 925.776 978.585 924.771C964.373 922.806 950.739 915.805 950.739 915.805C950.739 915.805 904.975 895.062 896.392 895.755C889.722 896.288 925.621 933.773 955.319 949.122" fill="#527697"/>
<path d="M896.392 895.755C896.392 895.755 867.429 880.122 850.653 892.206C819.973 914.299 872.03 956.802 931.578 977.557C991.128 998.314 1010.46 995.483 1010.46 995.483C1010.46 995.483 1023.4 991.922 1018.81 970.956C1018.81 970.956 984.484 957.905 966.623 944.235C948.763 930.563 936.588 913.812 896.392 895.755" fill="#527697"/>
<path d="M1016.49 977.053C1004 974.051 978.554 962.378 948.413 945.826C925.871 933.447 899.874 917.627 896.059 912.139C893.997 909.177 893.479 906.751 894.517 904.934C896.066 902.213 900.534 901.934 902.567 901.954C903.092 901.96 903.504 902.402 903.466 902.925C903.431 903.399 903.037 903.769 902.561 903.765C900.559 903.751 897.077 904.094 896.087 905.832C895.265 907.277 896.426 909.498 897.545 911.105C900.624 915.531 922.381 929.465 949.285 944.241C972.451 956.96 1002.39 971.799 1016.92 975.292L1016.49 977.053Z" fill="#405D76"/>
<path d="M1014.14 968.17C1012.74 979.192 1009.88 989.211 1003.65 996.894C1003.65 996.894 1008.98 1000.73 1013.85 997.979C1017.57 995.875 1024.74 978.661 1022.01 969.469C1018.9 967.771 1016.21 967.177 1014.14 968.17" fill="#405D76"/>
<path d="M1069.07 883.055C1069.07 883.055 1096.48 864.834 1114.29 875.325C1146.87 894.511 1098.93 941.613 1041.54 967.742C984.141 993.874 964.63 992.829 964.63 992.829C964.63 992.829 951.417 990.471 954.067 969.17C954.067 969.17 987.05 953.025 1003.58 937.774C1020.11 922.522 1030.7 904.726 1069.07 883.055Z" fill="#527697"/>
<path d="M1018.94 977.573C1015.78 978.614 1012.57 979.657 1009.25 980.702C996.412 984.743 981.752 988.975 968.475 992.234L968.427 994.132C980.416 991.21 994.485 987.247 1009.8 982.429C1012.78 981.488 1015.84 980.496 1018.89 979.491L1018.94 977.573Z" fill="#405D76"/>
<path d="M956.931 975.029C969.093 970.893 993.364 956.934 1021.86 937.689C1043.17 923.296 1067.61 905.154 1070.9 899.343C1072.68 896.202 1072.98 893.741 1071.78 892.025C1069.99 889.459 1065.51 889.591 1063.49 889.796C1062.97 889.85 1062.6 890.329 1062.68 890.847C1062.76 891.317 1063.19 891.647 1063.66 891.599C1065.65 891.403 1069.15 891.424 1070.3 893.065C1071.25 894.428 1070.3 896.744 1069.33 898.45C1066.67 903.139 1046.28 919.011 1020.85 936.189C998.945 950.983 970.5 968.504 956.349 973.316L956.931 975.029" fill="#405D76"/>
<path d="M958.458 965.968C960.87 976.814 964.633 986.528 971.538 993.608C971.538 993.608 966.583 997.919 961.481 995.624C957.583 993.87 948.862 977.387 950.743 967.984C953.686 966.006 956.303 965.17 958.458 965.968Z" fill="#405D76"/>
<path d="M1014.65 753.042C1014.65 753.042 1059.23 813.533 1069.4 843.659C1079.58 873.785 1054.89 895.194 1054.89 895.194L1031.97 903.791C1031.97 903.791 1008.41 797.404 1014.65 753.042" fill="#527697"/>
<path d="M959.399 931.852C941.857 926.295 925.996 915.102 915.157 905.131C914.303 904.339 913.475 903.557 912.683 902.786C907.071 897.336 903.115 900.14 901.398 896.997C894.84 884.993 898.564 837.919 901.4 820.629C904.231 803.344 892.301 771.671 898.722 760.344C905.141 749.012 927.257 745.066 927.257 745.066C927.257 745.066 924.125 741.415 930.064 737.241C936.007 733.066 951.809 734.796 951.809 734.796C952.561 809.621 963.162 879.122 959.399 931.852" fill="#7798B6"/>
<path d="M942.156 910.402C941.682 910.402 941.265 910.056 941.191 909.574C933.209 857.671 941.101 760.05 941.181 759.071C941.227 758.533 941.699 758.133 942.238 758.175C942.776 758.22 943.176 758.692 943.132 759.231C943.053 760.21 935.177 857.603 943.125 909.275C943.207 909.81 942.839 910.309 942.306 910.391L942.156 910.402" fill="#E5ECF1"/>
<path d="M958.209 918.189C957.744 918.189 957.331 917.854 957.249 917.379C946.808 857.764 945.976 754.913 945.969 753.882C945.965 753.341 946.399 752.899 946.942 752.896H946.947C947.484 752.896 947.92 753.33 947.926 753.868C947.931 754.898 948.765 857.587 959.174 917.042C959.267 917.575 958.913 918.081 958.38 918.174L958.209 918.189" fill="#527697"/>
<path d="M940.884 753.282L940.631 753.25C932.364 751.047 927.304 746.167 927.093 745.961C926.706 745.584 926.699 744.964 927.078 744.577C927.455 744.193 928.073 744.185 928.46 744.562C928.507 744.608 933.384 749.294 941.136 751.358C941.655 751.499 941.966 752.033 941.829 752.555C941.712 752.993 941.315 753.282 940.884 753.282" fill="#527697"/>
<path d="M1035.39 899.188C1035.39 899.188 1029.13 920.243 1005.87 930.271C1002.98 873.196 996.423 808.016 987.975 738.678C987.975 738.678 996.869 737.111 1000.58 742.197C1002.18 744.387 1002.52 748.099 1002.52 748.099C1002.52 748.099 1007.07 748.978 1012.05 751.298C1017.03 753.613 1016.46 756.804 1017.65 764.89C1018.84 772.973 1031.33 785.493 1035.39 802.448C1039.46 819.401 1028.68 830.215 1025.32 844.441C1021.95 858.664 1035.39 899.188 1035.39 899.188Z" fill="#7798B6"/>
<path d="M1015.41 908.017C1014.89 908.017 1014.45 907.596 1014.44 907.067C1012.19 829.42 998.005 760.04 997.862 759.349C997.752 758.819 998.093 758.302 998.622 758.193C999.149 758.083 999.669 758.424 999.775 758.953C999.922 759.646 1014.14 829.183 1016.39 907.01C1016.41 907.55 1015.98 907.999 1015.44 908.017H1015.41" fill="#E5ECF1"/>
<path d="M993.992 755.434C993.524 755.434 993.109 755.097 993.029 754.621C992.94 754.088 993.296 753.583 993.827 753.492C993.895 753.481 1000.15 752.346 1001.59 747.804C1001.76 747.29 1002.31 747.003 1002.82 747.166C1003.34 747.33 1003.62 747.88 1003.46 748.394C1001.66 754.082 994.463 755.369 994.156 755.42L993.992 755.434Z" fill="#527697"/>
<path d="M1013.13 908.017C1012.65 908.017 1012.22 907.653 1012.16 907.154C1005.28 849.914 994.402 758.422 994.295 757.504C994.229 756.969 994.615 756.482 995.15 756.419C995.681 756.352 996.172 756.739 996.237 757.274C996.345 758.191 1007.22 849.681 1014.11 906.922C1014.17 907.457 1013.79 907.944 1013.25 908.009L1013.13 908.017Z" fill="#527697"/>
<path d="M954.756 879.023L952.553 910.469C952.553 910.469 915.157 905.131 896.799 900.45C891.454 899.089 885.448 897.336 879.954 894.414C869.822 889.027 861.415 879.652 862.036 861.373C862.232 855.505 863.367 848.717 865.666 840.845C879.033 795.173 901.4 756.831 901.4 756.831C930.199 769.154 927.776 789.667 927.776 789.667C919.56 811.576 901.4 858.244 901.4 858.244C911.938 871.118 954.756 879.023 954.756 879.023Z" fill="#7798B6"/>
<path d="M901.398 859.219C901.219 859.219 901.04 859.171 900.882 859.072C897.705 857.106 889.04 855.065 888.953 855.044C888.425 854.922 888.098 854.393 888.222 853.87C888.344 853.342 888.871 853.017 889.396 853.139C889.703 853.211 895.775 854.641 899.792 856.35C899.202 855.042 898.25 853.647 896.915 852.13C896.559 851.724 896.599 851.106 897.005 850.748C897.41 850.392 898.029 850.43 898.385 850.837C900.692 853.459 901.992 855.828 902.363 858.084C902.426 858.461 902.261 858.842 901.943 859.055C901.777 859.165 901.587 859.219 901.398 859.219" fill="#527697"/>
<path d="M879.954 894.414C869.822 889.027 861.415 879.652 862.036 861.374C870.065 865.571 884.055 875.751 879.954 894.414" fill="#527697"/>
<path d="M931.235 874.199L930.989 874.167C912.462 869.389 901.214 859.391 900.743 858.969C900.414 858.672 900.325 858.192 900.526 857.798C913.735 831.825 922.094 811.198 926.828 792.888C926.963 792.364 927.498 792.048 928.022 792.185C928.545 792.32 928.859 792.853 928.722 793.377C923.994 811.668 915.696 832.216 902.618 857.996C905.12 860.058 915.717 868.209 931.479 872.273C932 872.406 932.316 872.939 932.181 873.464C932.067 873.904 931.669 874.199 931.235 874.199" fill="#527697"/>
<path d="M923.817 807.452C923.604 807.452 923.39 807.384 923.21 807.241C922.787 806.904 922.717 806.289 923.053 805.866L929.916 797.239C930.253 796.817 930.866 796.746 931.29 797.083C931.713 797.42 931.783 798.035 931.446 798.458L924.582 807.085C924.39 807.326 924.104 807.452 923.817 807.452" fill="#527697"/>
<path d="M923.883 729.647L1015.03 743.212C1007.94 734.002 1017.51 722.2 1021.04 704.059C1022.81 694.941 1021.64 686.875 1019.9 680.898C1019.44 674.079 1017.89 668.188 1014.67 664.301C1000.09 646.723 987.244 647.41 987.244 647.41C980.722 644.42 959.164 642.37 944.946 659.629L944.941 659.633C944.49 660.018 931.538 671.154 929.535 690.439C927.628 708.822 933.354 722.903 923.883 729.647" fill="#283A4A"/>
<path d="M973.034 647.748C973.034 647.748 972.678 630.233 954.752 631.126C936.826 632.017 927.085 653.942 943.328 664.871C959.572 675.803 973.034 647.748 973.034 647.748Z" fill="#283A4A"/>
<path d="M958.441 721.27C958.441 721.27 937.248 709.418 941.413 684.737C945.582 660.053 961.827 645.201 986.743 652.357C986.743 652.357 984.326 723.705 958.441 721.27Z" fill="#283A4A"/>
<path d="M1017.37 675.892C1017.37 675.892 1019.53 697.079 1015.67 700.144C1011.81 703.209 1008.03 694.833 1008.03 694.833C1008.03 694.833 1013.29 676.123 1017.37 675.892Z" fill="#283A4A"/>
<path d="M1007.62 702.066C1007.62 702.066 1013.94 696.516 1016.03 703.319C1018.12 710.122 1013.88 722.627 1006.01 719.307L1007.62 702.066" fill="#283A4A"/>
<path d="M1012.19 709.635C1012.1 709.618 1012.01 709.6 1011.92 709.583C1012.01 709.058 1012.1 708.521 1012.19 707.973C1012.37 706.857 1012.56 705.692 1012.75 704.48C1012.83 704.487 1012.91 704.497 1013 704.507C1012.72 706.319 1012.46 708.024 1012.19 709.635Z" fill="#283A4A"/>
<path d="M989.189 732.64L986.583 750.155C986.583 750.155 975.864 763.904 951.03 741.478C953.857 734.347 958.188 725.185 957.078 718.154C957.078 718.154 958.892 719.817 962.012 721.801C962.65 722.21 963.335 722.637 964.066 723.082C970.523 726.998 980.368 732.019 989.189 732.64Z" fill="#F79190"/>
<path d="M989.19 732.64L987.968 740.839C980.726 738.056 968.197 732.016 962.012 721.801C962.65 722.21 963.335 722.637 964.066 723.082C970.523 726.998 980.368 732.02 989.19 732.64" fill="#B66E6E"/>
<path d="M1013 702.845C1012.72 704.657 1012.46 706.364 1012.19 707.973C1010.2 720.055 1008.37 726.563 1005.02 729.139C988.03 742.171 958.077 719.141 957.116 718.399L957.093 718.376C956.994 716.967 956.928 715.578 956.878 714.205C956.482 702.57 957.918 692.036 960.558 682.215C961.574 671.597 969.309 662.719 979.757 660.579C990.583 658.367 999.124 664.255 1004.4 666.783C1012.38 670.605 1016.03 682.181 1013.78 697.572C1013.51 699.42 1013.25 701.179 1013 702.845" fill="#F79190"/>
<path d="M964.664 711.408C964.538 711.611 961.077 717.196 957.116 718.398L957.108 718.399L957.093 718.378C956.994 716.97 956.924 715.576 956.878 714.206C957.019 714.202 960.851 714.109 964.664 711.408Z" fill="#CD7978"/>
<path d="M994.023 722.311C995.616 722.435 996.861 721.919 996.939 721.885C997.2 721.774 997.32 721.475 997.209 721.214C997.099 720.956 996.8 720.834 996.539 720.944C996.516 720.954 994.103 721.938 991.933 720.586C991.693 720.436 991.377 720.508 991.228 720.748C991.078 720.988 991.15 721.304 991.39 721.452C992.287 722.012 993.2 722.246 994.023 722.311Z" fill="#B66E6E"/>
<path d="M1003.45 713.305C1003.45 713.305 995.746 712.71 986.898 711.32C986.898 711.32 987.433 718.209 994.381 719.273C1001.33 720.337 1003.45 713.305 1003.45 713.305" fill="#E5ECF1"/>
<path d="M996.772 709.357L996.452 708.99C996.345 708.659 996.522 708.303 996.855 708.192L1001 706.829L998.54 704.338C998.407 704.2 998.34 704.012 998.361 703.824L999.126 696.965C999.164 696.619 999.477 696.369 999.825 696.407C1000.17 696.445 1000.42 696.757 1000.38 697.104L999.65 703.666L1002.62 706.668C1002.77 706.822 1002.83 707.046 1002.78 707.258C1002.73 707.471 1002.57 707.642 1002.36 707.709L997.249 709.39L996.772 709.357" fill="#B66E6E"/>
<path d="M992.312 680.078C992.312 680.078 995.321 680.834 993.831 683.473C992.342 686.113 986.675 682.115 981.524 686.621C981.524 686.621 980.658 679.629 992.312 680.078Z" fill="#283A4A"/>
<path d="M1006.15 682.138C1006.15 682.138 1003.05 681.984 1003.71 684.944C1004.36 687.902 1010.95 685.728 1014.56 691.538C1014.56 691.538 1017.43 685.102 1006.15 682.138" fill="#283A4A"/>
<path d="M989.553 697.692C989.262 699.651 988.139 701.103 987.044 700.94C985.95 700.778 985.299 699.061 985.588 697.104C985.881 695.147 987.002 693.693 988.099 693.854C989.193 694.018 989.844 695.737 989.553 697.692" fill="#283A4A"/>
<path d="M1008.91 700.574C1008.62 702.531 1007.5 703.985 1006.4 703.821C1005.31 703.66 1004.66 701.941 1004.95 699.984C1005.24 698.027 1006.36 696.574 1007.46 696.736C1008.55 696.898 1009.2 698.617 1008.91 700.574Z" fill="#283A4A"/>
<path d="M963.103 697.285C963.103 697.285 956.844 685.612 949.881 693.017C944.147 699.118 950.343 718.561 960.893 713.364L963.103 697.285Z" fill="#F79190"/>
<path d="M960.092 710.173C959.686 710.112 959.381 709.756 959.399 709.338C959.713 701.255 953.461 697.49 953.197 697.334C952.81 697.105 952.679 696.608 952.904 696.22C953.132 695.832 953.627 695.7 954.015 695.927C954.318 696.102 961.378 700.317 961.024 709.4C961.007 709.85 960.628 710.2 960.181 710.181L960.092 710.173" fill="#B66E6E"/>
<path d="M953.303 704.176C953.071 704.141 952.854 704.004 952.725 703.785C952.496 703.399 952.622 702.9 953.008 702.67C953.37 702.457 956.593 700.612 958.921 701.591C959.334 701.766 959.528 702.243 959.355 702.657C959.18 703.072 958.7 703.266 958.289 703.091C956.953 702.529 954.567 703.637 953.84 704.071C953.673 704.17 953.482 704.202 953.303 704.176Z" fill="#B66E6E"/>
<circle cx="986.214" cy="696.469" r="10.7077" fill="#E5ECF1" fill-opacity="0.3"/>
<circle cx="1013.34" cy="699.325" r="10.7077" fill="#E5ECF1" fill-opacity="0.3"/>
<path d="M990.372 687.369C985.137 685.368 979.253 688.001 977.252 693.233C975.255 698.468 977.886 704.352 983.119 706.351C988.352 708.35 994.238 705.719 996.237 700.484C998.237 695.251 995.605 689.365 990.372 687.369V687.369ZM982.5 707.973C976.373 705.633 973.289 698.742 975.632 692.613C977.972 686.485 984.861 683.405 990.99 685.745C997.12 688.086 1000.2 694.977 997.86 701.105C995.519 707.232 988.628 710.314 982.5 707.973" fill="#44FC78"/>
<path d="M976.003 694.204L975.688 694.126C969.25 691.175 963.206 693.425 963.147 693.448C962.699 693.62 962.197 693.397 962.026 692.95C961.856 692.5 962.079 691.998 962.526 691.826C962.802 691.722 969.316 689.297 976.411 692.546C976.849 692.746 977.039 693.262 976.839 693.698C976.687 694.033 976.348 694.221 976.003 694.204" fill="#44FC78"/>
<path d="M1016.69 690.344C1011.46 688.343 1005.58 690.976 1003.58 696.209C1001.58 701.444 1004.21 707.328 1009.44 709.327C1014.68 711.327 1020.56 708.695 1022.56 703.46C1024.56 698.227 1021.93 692.343 1016.69 690.344V690.344ZM1008.82 710.95C1002.7 708.609 999.612 701.718 1001.95 695.59C1004.29 689.461 1011.19 686.381 1017.31 688.72C1023.44 691.062 1026.52 697.953 1024.18 704.08C1021.84 710.21 1014.95 713.29 1008.82 710.95Z" fill="#44FC78"/>
<path d="M997.299 696.064L996.97 695.758C996.715 695.35 996.836 694.815 997.242 694.56C997.366 694.484 1000.26 692.717 1003.26 695.027C1003.65 695.318 1003.72 695.864 1003.42 696.243C1003.13 696.624 1002.59 696.696 1002.21 696.403C1000.15 694.821 998.184 696.02 998.167 696.032C997.893 696.203 997.564 696.203 997.299 696.064" fill="#44FC78"/>
<path d="M1003.67 656.101C1010.89 659.356 1016.57 665.37 1019.1 672.879C1020.69 677.583 1022.02 683.789 1015.4 682.987C997.365 680.796 987.712 662.078 987.712 662.078C987.712 662.078 984.2 679.33 970.03 677.221C955.862 675.112 956.313 664.427 964.367 658.383C970.929 653.459 987.64 648.877 1003.67 656.101" fill="#283A4A"/>
<path d="M970.588 675.24C970.588 675.24 962.526 683.89 965.42 693.208C968.311 702.526 968.507 709.991 965.49 714.992C965.49 714.992 964.712 705.185 961.121 697.75C958.177 691.647 955.424 686.998 957.552 679.957C959.012 675.122 962.547 670.477 970.588 675.24Z" fill="#283A4A"/>
<path d="M926.145 932.871L917.818 917.037C915.744 913.089 918.635 908.357 923.097 908.404L1053.96 909.817L1050.1 930.086L926.145 932.871" fill="#283A4A"/>
<path d="M1047.84 928.413H930.727C927.902 928.413 925.863 926.123 926.175 923.298L934.161 850.943C934.471 848.116 937.016 845.824 939.841 845.824H1056.95C1059.78 845.824 1061.82 848.116 1061.5 850.943L1053.52 923.298C1053.21 926.123 1050.66 928.413 1047.84 928.413" fill="#283A4A"/>
<path d="M1048.4 934.716H929.676C927.066 934.716 925.056 932.412 925.408 929.826L926.539 921.554H1053.96L1052.67 930.992C1052.38 933.126 1050.56 934.716 1048.4 934.716" fill="#283A4A"/>
<path d="M928.983 931.533L928.859 931.526C928.317 931.459 927.932 930.964 928.001 930.423L937.722 852.923C937.789 852.382 938.282 851.998 938.825 852.066C939.365 852.135 939.75 852.628 939.681 853.168L929.962 930.669C929.897 931.168 929.474 931.533 928.983 931.533" fill="#344B60"/>
<path d="M985.957 888.405C985.508 894.219 989.789 899.227 995.517 899.591C1001.25 899.958 1006.25 895.542 1006.7 889.73C1007.15 883.919 1002.86 878.91 997.139 878.545C991.409 878.179 986.403 882.596 985.957 888.405Z" fill="#44FC78"/>
<path d="M1111.97 1078.42L1111.87 1064.02L1111.82 1057.56L1111.72 1043.18L1111.67 1036.72L1111.63 1031.32L1111.57 1022.88L1111.57 1022.32L1111.52 1015.86L1111.43 1001.47L1111.38 995.006L1111.32 986.12L1207.62 985.439L1207.88 1022.2L1207.94 1030.63L1208.29 1079.13L1111.98 1079.8L1111.97 1078.42" fill="#405D76"/>
<path d="M1210.84 985.416L1108.15 986.144L1108.07 973.98L1210.75 973.252L1210.84 985.416Z" fill="#405D76"/>
<path d="M1207.69 992.134L1111.39 992.815L1111.34 986.122L1207.65 985.439L1207.69 992.134Z" fill="#344B60"/>
<path d="M1165.5 1079.53L1157.06 1079.58L1156.31 973.983L1164.75 973.922L1165.5 1079.53" fill="#CFDBE5"/>
<path d="M1207.94 1030.63L1111.63 1031.32L1111.58 1022.88L1207.88 1022.2L1207.94 1030.63Z" fill="#CFDBE5"/>
<path d="M1156.43 985.804L1164.87 985.743L1164.91 992.436L1156.47 992.497L1156.43 985.804Z" fill="#BAC5CE"/>
<path d="M1270.76 1014.9L1271.22 1079.2L1186.56 1079.8L1186.1 1015.5L1270.76 1014.9" fill="#44FC78"/>
<path d="M1200.81 1015.39L1186.2 1030.2L1186.17 1025.76L1196.37 1015.43L1200.81 1015.39Z" fill="#44FC78"/>
<path d="M1273.61 1022.36L1183.35 1023L1183.27 1012.3L1273.54 1011.66L1273.61 1022.36" fill="#44FC78"/>
<path d="M1270.85 1028.26L1186.2 1028.86L1186.16 1022.98L1270.81 1022.38L1270.85 1028.26" fill="#31A552"/>
<path d="M1263.2 1079.31L1255.78 1079.37L1255.3 1011.8L1262.72 1011.74L1263.2 1079.31Z" fill="#CFDBE5"/>
<path d="M1255.38 1022.49L1262.8 1022.43L1262.84 1028.32L1255.42 1028.37L1255.38 1022.49Z" fill="#BAC5CE"/>
<path d="M1201.55 1079.75L1194.13 1079.8L1193.65 1012.23L1201.07 1012.18L1201.55 1079.75" fill="#CFDBE5"/>
<path d="M1193.73 1022.93L1201.15 1022.87L1201.19 1028.76L1193.77 1028.81L1193.73 1022.93" fill="#BAC5CE"/>
<path d="M767.784 1079.8H646.154L662.908 944.447H751.032L767.784 1079.8" fill="#344B60"/>
<path d="M689.286 950.745C688.345 950.721 687.611 949.929 687.658 948.988C687.862 944.909 688.578 934.146 690.797 923.496C694.701 904.753 701.227 895.25 710.193 895.25C719.176 895.25 725.536 904.763 729.099 923.524C731.121 934.175 731.637 944.936 731.764 949.019C731.795 949.957 731.047 950.736 730.104 950.744C729.189 950.753 728.437 950.028 728.414 949.112C728.037 933.602 724.237 898.612 710.193 898.612C696.125 898.612 691.671 933.625 691.007 949.143C690.967 950.058 690.201 950.77 689.286 950.745Z" fill="#283A4A"/>
<path d="M761.629 1079.8H640L656.753 944.447H744.878L761.629 1079.8" fill="#405D76"/>
<path d="M700.191 1028.28V1042.63C698.307 1041.46 692.423 1037.21 688.985 1028.28H700.191ZM686.324 1028.28C687.622 1031.95 689.434 1035.27 691.707 1038.15C692.884 1039.65 694.165 1041.01 695.526 1042.22C687.592 1040.53 680.609 1035.4 676.6 1028.28H686.324ZM673.02 1012.45C673.271 1008.65 674.267 1005 675.98 1001.6H686.002C684.81 1005.12 684.139 1008.77 684.003 1012.45H673.02ZM700.191 1014.94V1025.79H688.13C687.12 1022.44 686.566 1018.79 686.48 1014.94H700.191ZM677.398 999.106C681.443 992.754 687.831 988.243 695.115 986.583C693.683 988.088 692.339 989.739 691.113 991.496C689.451 993.881 688.05 996.439 686.941 999.106H677.398ZM700.191 1001.6V1012.45H686.495C686.642 1008.76 687.363 1005.11 688.642 1001.6H700.191ZM689.655 999.106C690.613 996.969 691.778 994.909 693.118 992.979C695.722 989.225 698.33 986.851 699.403 985.945C699.664 985.93 699.927 985.914 700.191 985.903V999.106H689.655ZM685.54 1025.79H675.355C673.844 1022.36 673.039 1018.71 672.963 1014.94H683.988C684.07 1018.75 684.592 1022.4 685.54 1025.79ZM729.91 1014.94C729.836 1018.71 729.031 1022.36 727.519 1025.79H717.624C718.572 1022.4 719.094 1018.75 719.176 1014.94H729.91ZM719.161 1012.45C719.025 1008.77 718.354 1005.12 717.164 1001.6H726.897C728.608 1005 729.602 1008.65 729.855 1012.45H719.161ZM702.683 1012.45V1001.6H714.52C715.799 1005.09 716.524 1008.74 716.669 1012.45H702.683ZM716.223 999.106C715.116 996.439 713.711 993.881 712.051 991.496C710.848 989.771 709.532 988.151 708.131 986.668C715.256 988.395 721.51 992.874 725.479 999.106H716.223ZM702.683 999.106V985.903C703.051 985.918 703.422 985.941 703.791 985.972C705.341 987.287 710.199 991.789 713.503 999.106H702.683ZM714.185 1028.28C713.016 1031.33 711.463 1034.11 709.561 1036.54C706.591 1040.33 703.622 1042.25 702.683 1042.81V1028.28H714.185ZM711.457 1038.15C713.73 1035.27 715.542 1031.95 716.84 1028.28H726.274C722.286 1035.38 715.595 1040.36 707.73 1042.14C709.056 1040.95 710.307 1039.61 711.457 1038.15ZM702.683 1025.79V1014.94H716.684C716.598 1018.78 716.043 1022.43 715.03 1025.79H702.683ZM701.436 983.385C684.359 983.385 670.463 997.279 670.463 1014.36C670.463 1031.43 684.359 1045.33 701.436 1045.33C718.515 1045.33 732.41 1031.43 732.41 1014.36C732.41 997.279 718.515 983.385 701.436 983.385Z" fill="#344B60"/>
<path d="M685.616 951.227C685.616 953.521 683.756 955.383 681.462 955.383C679.168 955.383 677.308 953.521 677.308 951.227C677.308 948.933 679.168 947.076 681.462 947.076C683.756 947.076 685.616 948.933 685.616 951.227Z" fill="#344B60"/>
<path d="M728.121 951.227C728.121 953.521 726.261 955.383 723.967 955.383C721.673 955.383 719.814 953.521 719.814 951.227C719.814 948.933 721.673 947.076 723.967 947.076C726.261 947.076 728.121 948.933 728.121 951.227Z" fill="#344B60"/>
<path d="M681.563 950.745C680.59 950.719 679.831 949.9 679.88 948.929C680.09 944.709 680.83 933.583 683.126 922.567C687.161 903.19 693.91 893.364 703.182 893.364C712.469 893.364 719.046 903.2 722.728 922.599C724.82 933.611 725.355 944.74 725.486 948.96C725.517 949.931 724.742 950.734 723.771 950.743C722.823 950.753 722.046 950.003 722.022 949.057C721.631 933.019 717.704 896.842 703.182 896.842C688.635 896.842 684.028 933.042 683.341 949.089C683.301 950.035 682.509 950.772 681.563 950.745" fill="#283A4A"/>
<path d="M769.407 1006.72H769.402C768.654 1006.68 768.079 1005.72 768.145 1004.59C768.364 1000.88 769.109 992.727 771.574 984.479C775.99 969.702 783.802 961.891 794.169 961.891C804.55 961.891 812.229 969.717 816.375 984.523C818.684 992.771 819.274 1000.92 819.424 1004.64C819.472 1005.77 818.874 1006.72 818.126 1006.72C817.437 1006.72 816.868 1005.91 816.826 1004.87C816.679 1001.42 816.114 993.624 813.949 985.943C810.184 972.58 803.529 965.807 794.169 965.807C784.769 965.807 777.966 972.629 773.944 986.086C771.648 993.765 770.946 1001.5 770.738 1004.94C770.675 1005.96 770.093 1006.75 769.407 1006.72" fill="#283A4A"/>
<path d="M855.461 1079.8H730.59L742.083 991.806H843.965L855.461 1079.8Z" fill="#31A552"/>
<path d="M848.88 1079.8H724.009L735.505 991.806H837.384L848.88 1079.8Z" fill="#44FC78"/>
<path d="M802.037 1039.77C800.485 1036.44 797.076 1034.75 793.56 1033.66C789.534 1032.41 785.369 1031.97 783.682 1030.78C783.167 1030.42 782.887 1030 782.9 1029.47C782.932 1028.28 783.985 1027.31 787.126 1027.28H787.13C787.335 1027.28 787.543 1027.28 787.766 1027.28C790.762 1027.37 793.914 1028.24 797.23 1029.92C797.476 1030.05 797.725 1030.18 797.975 1030.32L798.919 1028.21L801.974 1021.41C800.076 1020.27 797.843 1019.4 795.46 1018.81C794.129 1018.47 792.749 1018.21 791.354 1018.04L791.451 1014.65L791.516 1012.4L784.078 1012.19L783.915 1017.94C775.231 1018.9 770.765 1023.8 770.595 1029.75C770.54 1031.77 770.932 1033.42 771.644 1034.79C772.566 1036.57 774.031 1037.87 775.745 1038.85C778.689 1040.55 782.371 1041.31 785.329 1042.03C788.361 1042.76 790.634 1043.44 790.591 1044.99C790.554 1046.26 789.266 1046.96 785.735 1046.86C784.265 1046.82 782.717 1046.6 781.187 1046.24C778.49 1045.6 775.828 1044.51 773.645 1043.14L769.381 1052.1C770.51 1052.84 771.894 1053.52 773.453 1054.1C776.194 1055.13 779.474 1055.88 782.832 1056.17L782.742 1059.38L782.674 1061.77L790.109 1061.98L790.275 1056.12C798.489 1054.93 802.743 1050.09 802.907 1044.39C802.96 1042.57 802.635 1041.05 802.037 1039.77Z" fill="#31A552"/>
<path d="M814.454 999.791C814.454 1002.12 812.665 1004 810.456 1004C808.25 1004 806.463 1002.12 806.463 999.791C806.463 997.469 808.25 995.584 810.456 995.584C812.665 995.584 814.454 997.469 814.454 999.791Z" fill="#31A552"/>
<path d="M766.206 999.791C766.206 1002.12 764.416 1004 762.21 1004C760.002 1004 758.213 1002.12 758.213 999.791C758.213 997.469 760.002 995.584 762.21 995.584C764.416 995.584 766.206 997.469 766.206 999.791Z" fill="#31A552"/>
<path d="M762.113 1000.97C762.783 1000.97 763.345 1000.46 763.417 999.791C763.841 995.859 764.668 990.469 766.269 985.103C770.293 971.647 777.096 964.824 786.494 964.824C795.854 964.824 802.511 971.599 806.276 984.96C807.799 990.365 808.528 995.811 808.876 999.768C808.937 1000.44 809.501 1000.97 810.182 1000.97C810.951 1000.97 811.555 1000.31 811.486 999.54C811.13 995.329 810.359 989.464 808.699 983.539C804.555 968.734 796.876 960.911 786.494 960.911C776.129 960.911 768.317 968.719 763.899 983.497C762.128 989.424 761.245 995.301 760.807 999.515C760.727 1000.29 761.334 1000.97 762.113 1000.97" fill="#283A4A"/>
<path d="M1260.08 825.854L1266.12 826.025L1266.26 820.903C1266.27 820.589 1266.51 820.328 1266.81 820.282C1274.1 819.227 1278.54 815.137 1278.71 809.346C1278.75 807.747 1278.48 806.312 1277.91 805.08C1276.71 802.52 1274.19 800.717 1269.95 799.405C1268.44 798.935 1266.86 798.574 1265.47 798.254C1263.16 797.727 1261.16 797.27 1260.04 796.482C1259.33 795.99 1258.98 795.37 1259 794.647C1259.03 793.394 1259.89 791.898 1263.8 791.862C1264.01 791.86 1264.23 791.862 1264.46 791.869C1267.51 791.953 1270.73 792.851 1274.05 794.54L1274.18 794.61L1277.61 786.988C1275.95 786.067 1274.02 785.327 1271.86 784.786C1270.59 784.462 1269.25 784.215 1267.89 784.047C1267.56 784.007 1267.32 783.722 1267.33 783.391L1267.47 778.474L1261.43 778.3L1261.28 783.322C1261.28 783.642 1261.03 783.908 1260.71 783.945C1253.03 784.799 1248.33 788.919 1248.16 794.963C1248.11 796.725 1248.44 798.29 1249.12 799.607C1249.9 801.105 1251.14 802.331 1252.91 803.35C1255.45 804.804 1258.56 805.545 1261.31 806.197L1262.19 806.407C1264.87 807.058 1267.92 807.795 1267.86 809.974C1267.84 810.61 1267.57 811.472 1266.36 811.977C1265.5 812.34 1264.21 812.495 1262.41 812.441C1260.95 812.399 1259.4 812.186 1257.81 811.809C1255.33 811.227 1252.87 810.256 1250.8 809.051L1247.15 816.717C1248.13 817.305 1249.27 817.845 1250.56 818.325C1253.26 819.34 1256.48 820.052 1259.63 820.332C1259.97 820.36 1260.23 820.649 1260.22 820.988L1260.08 825.854ZM1266.75 827.331H1266.73L1259.4 827.122L1258.95 826.922L1258.77 826.459L1258.91 821.554C1255.84 821.232 1252.74 820.52 1250.11 819.53C1248.52 818.936 1247.13 818.251 1245.97 817.495C1245.7 817.32 1245.6 816.97 1245.74 816.681L1249.94 807.855C1250.02 807.688 1250.17 807.564 1250.35 807.513C1250.52 807.461 1250.72 807.49 1250.87 807.587C1252.94 808.891 1255.5 809.946 1258.1 810.557C1259.61 810.913 1261.07 811.116 1262.45 811.154C1264.03 811.2 1265.18 811.076 1265.87 810.789C1266.48 810.536 1266.57 810.231 1266.57 809.938C1266.6 808.887 1264.37 808.261 1261.88 807.659L1261.01 807.45C1258.18 806.778 1254.97 806.015 1252.27 804.467C1250.28 803.319 1248.87 801.924 1247.98 800.201C1247.19 798.688 1246.82 796.912 1246.88 794.924C1247.06 788.433 1252.08 783.798 1260.01 782.732L1260.16 777.621L1260.36 777.172L1260.82 776.997L1268.15 777.206C1268.5 777.217 1268.78 777.514 1268.77 777.868L1268.63 782.846C1269.84 783.016 1271.03 783.248 1272.17 783.537C1274.68 784.165 1276.89 785.051 1278.76 786.168C1279.04 786.335 1279.15 786.688 1279.02 786.985L1275.08 795.762L1274.7 796.108L1274.18 796.065C1273.94 795.933 1273.7 795.808 1273.47 795.686C1270.32 794.085 1267.28 793.232 1264.42 793.154C1264.2 793.146 1264.01 793.146 1263.82 793.146C1262.22 793.162 1260.32 793.442 1260.28 794.679C1260.28 794.865 1260.33 795.119 1260.78 795.427C1261.69 796.07 1263.58 796.501 1265.75 797.001C1267.17 797.325 1268.77 797.692 1270.33 798.176C1273.23 799.074 1277.29 800.709 1279.08 804.536V804.538C1279.74 805.952 1280.05 807.581 1279.99 809.384C1279.82 815.609 1275.06 820.204 1267.54 821.472L1267.39 826.705L1267.19 827.154L1266.75 827.331" fill="#CFDBE5"/>
<path d="M1046.23 533.739C1046.23 534.146 1046.56 534.476 1046.97 534.476H1229.25C1229.65 534.476 1229.98 534.146 1229.98 533.739C1229.98 533.332 1229.65 533 1229.25 533H1046.97C1046.56 533 1046.23 533.332 1046.23 533.739Z" fill="#CFDBE5"/>
<path d="M854.13 797.608H741.467C741.099 797.608 740.759 797.859 740.7 798.221C740.625 798.685 740.977 799.085 741.427 799.085H854.13C854.538 799.085 854.867 798.754 854.867 798.346C854.867 797.939 854.538 797.608 854.13 797.608" fill="#CFDBE5"/>
<path d="M722.657 818.614H722.663H722.657ZM709.056 838.459L709.338 838.518L718.331 842.502L716.775 833.002C716.743 832.802 716.8 832.596 716.93 832.442C720.209 828.532 721.949 823.752 721.963 818.612V818.43C721.989 806.473 712.287 796.725 700.332 796.698H700.102C688.176 796.698 678.45 806.401 678.422 818.329V818.51C678.409 824.302 680.651 829.75 684.736 833.852C688.821 837.958 694.26 840.226 700.049 840.239H700.283C703.241 840.239 706.1 839.658 708.784 838.514L709.056 838.459ZM719.223 844.354L718.942 844.295L709.047 839.912C706.273 841.052 703.327 841.629 700.283 841.629H700.047C693.887 841.613 688.098 839.201 683.75 834.835C679.404 830.468 677.017 824.67 677.032 818.508V818.327C677.061 805.634 687.411 795.309 700.102 795.309H700.334C713.056 795.337 723.381 805.71 723.354 818.432V818.614V818.616C723.339 823.979 721.559 828.974 718.199 833.089L719.909 843.547C719.95 843.799 719.852 844.054 719.648 844.21L719.223 844.354" fill="#CFDBE5"/>
<path d="M693.441 808.45C692.035 808.45 690.712 809.031 689.588 810.148C688.092 811.639 687.266 813.632 687.26 815.762C687.257 817.89 688.075 819.889 689.566 821.387L700.61 832.485L711.702 821.441C713.202 819.948 714.03 817.953 714.034 815.825C714.04 813.693 713.223 811.698 711.733 810.2C710.48 808.942 708.975 808.357 707.374 808.508C705.228 808.707 703.083 810.242 701.335 812.825C701.183 813.051 700.928 813.187 700.656 813.187H700.654C700.382 813.185 700.127 813.05 699.974 812.821C698.238 810.23 696.101 808.688 693.955 808.475C693.784 808.458 693.611 808.45 693.441 808.45ZM700.606 834.465H700.604C700.387 834.465 700.18 834.377 700.026 834.225L688.402 822.548C686.602 820.738 685.614 818.326 685.619 815.758C685.625 813.19 686.623 810.784 688.429 808.985C690.026 807.398 692.042 806.634 694.117 806.842C696.47 807.076 698.762 808.529 700.66 810.967C702.567 808.536 704.865 807.095 707.219 806.871C709.294 806.678 711.308 807.447 712.896 809.042C714.695 810.849 715.683 813.259 715.677 815.829C715.671 818.395 714.67 820.803 712.862 822.604L701.185 834.227C701.033 834.379 700.823 834.465 700.606 834.465" fill="#CFDBE5"/>
<path d="M893.291 708.736C889.798 708.736 886.956 705.892 886.956 702.397C886.956 698.902 889.798 696.06 893.291 696.06C896.786 696.06 899.628 698.902 899.628 702.397C899.628 705.892 896.786 708.736 893.291 708.736ZM893.291 694.592C888.985 694.592 885.482 698.094 885.482 702.397C885.482 706.701 888.985 710.205 893.291 710.205C897.599 710.205 901.098 706.701 901.098 702.397C901.098 698.094 897.599 694.592 893.291 694.592Z" fill="#CFDBE5"/>
<path d="M1259.11 732.005C1255.62 732.005 1252.78 729.159 1252.78 725.664C1252.78 722.171 1255.62 719.329 1259.11 719.329C1262.61 719.329 1265.45 722.171 1265.45 725.664C1265.45 729.159 1262.61 732.005 1259.11 732.005ZM1259.11 717.86C1254.81 717.86 1251.3 721.364 1251.3 725.664C1251.3 729.97 1254.81 733.475 1259.11 733.475C1263.42 733.475 1266.91 729.97 1266.91 725.664C1266.91 721.364 1263.42 717.86 1259.11 717.86Z" fill="#CFDBE5"/>
<path d="M1064.12 752.973C1053.58 752.973 1045.01 761.545 1045.01 772.083C1045.01 782.621 1053.58 791.195 1064.12 791.195H1206C1216.54 791.195 1225.11 782.621 1225.11 772.083C1225.11 761.545 1216.54 752.973 1206 752.973H1064.12ZM1206 793.466H1064.12C1052.33 793.466 1042.74 783.874 1042.74 772.083C1042.74 760.292 1052.33 750.7 1064.12 750.7H1206C1217.79 750.7 1227.38 760.292 1227.38 772.083C1227.38 783.874 1217.79 793.466 1206 793.466Z" fill="#7798B6"/>
<path d="M1073.4 780.584L1065.12 784.936L1066.7 775.718L1060 769.189L1069.26 767.843L1073.4 759.458L1077.54 767.843L1086.79 769.189L1080.1 775.718L1081.68 784.936L1073.4 780.584Z" fill="#44FC78"/>
<path d="M1115.64 780.584L1107.36 784.936L1108.94 775.718L1102.24 769.189L1111.5 767.843L1115.64 759.458L1119.78 767.843L1129.03 769.189L1122.33 775.718L1123.91 784.936L1115.64 780.584" fill="#44FC78"/>
<path d="M1157.87 780.584L1149.6 784.936L1151.18 775.718L1144.48 769.189L1153.73 767.843L1157.87 759.458L1162.01 767.843L1171.27 769.189L1164.57 775.718L1166.15 784.936L1157.87 780.584" fill="#44FC78"/>
<path d="M1200.11 780.584L1191.83 784.936L1193.41 775.718L1186.72 769.189L1195.97 767.843L1200.11 759.458L1204.25 767.843L1213.51 769.189L1206.81 775.718L1208.39 784.936L1200.11 780.584Z" fill="#7798B6"/>
<path d="M871.21 292H874.176L878.472 276.915H878.778L883.074 292H886.04L892.023 272.364H888.852L884.608 287.347H884.403L880.261 272.364H877.04L872.847 287.398H872.642L868.398 272.364H865.227L871.21 292ZM903.576 292.409C907.565 292.409 910.48 290.415 911.4 287.449L908.485 286.631C907.718 288.676 905.941 289.699 903.576 289.699C900.035 289.699 897.593 287.411 897.453 283.205H911.707V281.926C911.707 274.614 907.36 272.108 903.27 272.108C897.951 272.108 894.423 276.301 894.423 282.335C894.423 288.369 897.9 292.409 903.576 292.409ZM897.453 280.597C897.657 277.541 899.818 274.818 903.27 274.818C906.542 274.818 908.639 277.273 908.639 280.597H897.453ZM930.87 292H933.836L938.132 276.915H938.439L942.734 292H945.7L951.683 272.364H948.512L944.268 287.347H944.064L939.922 272.364H936.7L932.507 287.398H932.302L928.058 272.364H924.887L930.87 292ZM962.981 292.409C968.299 292.409 971.879 288.369 971.879 282.284C971.879 276.148 968.299 272.108 962.981 272.108C957.663 272.108 954.083 276.148 954.083 282.284C954.083 288.369 957.663 292.409 962.981 292.409ZM962.981 289.699C958.941 289.699 957.1 286.222 957.1 282.284C957.1 278.347 958.941 274.818 962.981 274.818C967.021 274.818 968.862 278.347 968.862 282.284C968.862 286.222 967.021 289.699 962.981 289.699ZM988.859 283.972C988.859 287.653 986.047 289.341 983.797 289.341C981.291 289.341 979.501 287.5 979.501 284.636V272.364H976.484V284.841C976.484 289.852 979.143 292.256 982.825 292.256C985.791 292.256 987.734 290.67 988.654 288.676H988.859V292H991.876V272.364H988.859V283.972ZM1000.42 265.818H997.402V292H1000.42V265.818ZM1013.36 292.409C1017.14 292.409 1018.42 290.057 1019.09 288.983H1019.44V292H1022.36V265.818H1019.34V275.483H1019.09C1018.42 274.46 1017.25 272.108 1013.41 272.108C1008.45 272.108 1005.02 276.045 1005.02 282.233C1005.02 288.472 1008.45 292.409 1013.36 292.409ZM1013.77 289.699C1009.98 289.699 1008.04 286.375 1008.04 282.182C1008.04 278.04 1009.93 274.818 1013.77 274.818C1017.45 274.818 1019.39 277.784 1019.39 282.182C1019.39 286.631 1017.4 289.699 1013.77 289.699ZM1041.45 265.818H1038.43V292H1041.45V265.818ZM1046.97 292H1049.99V272.364H1046.97V292ZM1048.51 269.091C1049.68 269.091 1050.65 268.17 1050.65 267.045C1050.65 265.92 1049.68 265 1048.51 265C1047.33 265 1046.36 265.92 1046.36 267.045C1046.36 268.17 1047.33 269.091 1048.51 269.091ZM1055.52 292H1058.53V284.649L1060.64 282.693L1067.99 292H1071.83L1062.92 280.75L1071.21 272.364H1067.48L1058.89 281.108H1058.53V265.818H1055.52V292ZM1082.52 292.409C1086.51 292.409 1089.43 290.415 1090.35 287.449L1087.43 286.631C1086.66 288.676 1084.89 289.699 1082.52 289.699C1078.98 289.699 1076.54 287.411 1076.4 283.205H1090.65V281.926C1090.65 274.614 1086.31 272.108 1082.21 272.108C1076.9 272.108 1073.37 276.301 1073.37 282.335C1073.37 288.369 1076.85 292.409 1082.52 292.409ZM1076.4 280.597C1076.6 277.541 1078.76 274.818 1082.21 274.818C1085.49 274.818 1087.58 277.273 1087.58 280.597H1076.4ZM1113.91 272.364H1109.71V267.659H1106.7V272.364H1103.73V274.92H1106.7V287.193C1106.7 290.619 1109.46 292.256 1112.01 292.256C1113.14 292.256 1113.86 292.051 1114.26 291.898L1113.65 289.188C1113.4 289.239 1112.99 289.341 1112.32 289.341C1110.99 289.341 1109.71 288.932 1109.71 286.375V274.92H1113.91V272.364ZM1126.21 292.409C1131.53 292.409 1135.11 288.369 1135.11 282.284C1135.11 276.148 1131.53 272.108 1126.21 272.108C1120.89 272.108 1117.31 276.148 1117.31 282.284C1117.31 288.369 1120.89 292.409 1126.21 292.409ZM1126.21 289.699C1122.17 289.699 1120.33 286.222 1120.33 282.284C1120.33 278.347 1122.17 274.818 1126.21 274.818C1130.25 274.818 1132.09 278.347 1132.09 282.284C1132.09 286.222 1130.25 289.699 1126.21 289.699ZM1149.84 292H1152.86V284.649L1154.97 282.693L1162.32 292H1166.15L1157.24 280.75L1165.54 272.364H1161.81L1153.21 281.108H1152.86V265.818H1149.84V292ZM1172.44 280.188C1172.44 276.761 1174.56 274.818 1177.45 274.818C1180.25 274.818 1181.95 276.646 1181.95 279.727V292H1184.97V279.523C1184.97 274.511 1182.3 272.108 1178.32 272.108C1175.35 272.108 1173.51 273.438 1172.59 275.432H1172.34V272.364H1169.42V292H1172.44V280.188ZM1198.46 292.409C1203.78 292.409 1207.36 288.369 1207.36 282.284C1207.36 276.148 1203.78 272.108 1198.46 272.108C1193.14 272.108 1189.56 276.148 1189.56 282.284C1189.56 288.369 1193.14 292.409 1198.46 292.409ZM1198.46 289.699C1194.42 289.699 1192.58 286.222 1192.58 282.284C1192.58 278.347 1194.42 274.818 1198.46 274.818C1202.5 274.818 1204.34 278.347 1204.34 282.284C1204.34 286.222 1202.5 289.699 1198.46 289.699ZM1215.74 292H1218.71L1223 276.915H1223.31L1227.61 292H1230.57L1236.55 272.364H1233.38L1229.14 287.347H1228.93L1224.79 272.364H1221.57L1217.38 287.398H1217.17L1212.93 272.364H1209.76L1215.74 292ZM1255.12 292H1258.08L1262.38 276.915H1262.68L1266.98 292H1269.95L1275.93 272.364H1272.76L1268.51 287.347H1268.31L1264.17 272.364H1260.95L1256.75 287.398H1256.55L1252.3 272.364H1249.13L1255.12 292ZM1282.93 280.188C1282.93 276.761 1285.12 274.818 1288.1 274.818C1290.94 274.818 1292.65 276.608 1292.65 279.727V292H1295.67V279.523C1295.67 274.473 1292.98 272.108 1288.97 272.108C1285.88 272.108 1284.11 273.399 1283.19 275.432H1282.93V265.818H1279.92V292H1282.93V280.188ZM1306.97 292.46C1310.39 292.46 1312.18 290.619 1312.8 289.341H1312.95V292H1315.97V279.062C1315.97 272.824 1311.21 272.108 1308.7 272.108C1305.74 272.108 1302.36 273.131 1300.83 276.71L1303.69 277.733C1304.36 276.301 1305.93 274.767 1308.81 274.767C1311.58 274.767 1312.95 276.237 1312.95 278.756V278.858C1312.95 280.315 1311.47 280.188 1307.89 280.648C1304.24 281.121 1300.27 281.926 1300.27 286.426C1300.27 290.261 1303.23 292.46 1306.97 292.46ZM1307.43 289.75C1305.02 289.75 1303.28 288.676 1303.28 286.58C1303.28 284.278 1305.38 283.562 1307.73 283.256C1309.01 283.102 1312.44 282.744 1312.95 282.131V284.892C1312.95 287.347 1311.01 289.75 1307.43 289.75ZM1330.01 272.364H1325.82V267.659H1322.8V272.364H1319.84V274.92H1322.8V287.193C1322.8 290.619 1325.56 292.256 1328.12 292.256C1329.25 292.256 1329.96 292.051 1330.37 291.898L1329.76 289.188C1329.5 289.239 1329.09 289.341 1328.43 289.341C1327.1 289.341 1325.82 288.932 1325.82 286.375V274.92H1330.01V272.364ZM1346.62 299.364C1349.34 299.364 1351.26 297.919 1352.4 294.864L1360.76 272.415L1357.46 272.364L1352.04 288.011H1351.83L1346.41 272.364H1343.14L1350.4 292.102L1349.84 293.636C1348.74 296.628 1347.39 296.909 1345.19 296.347L1344.42 299.006C1344.73 299.159 1345.6 299.364 1346.62 299.364ZM1372.02 292.409C1377.34 292.409 1380.92 288.369 1380.92 282.284C1380.92 276.148 1377.34 272.108 1372.02 272.108C1366.71 272.108 1363.13 276.148 1363.13 282.284C1363.13 288.369 1366.71 292.409 1372.02 292.409ZM1372.02 289.699C1367.98 289.699 1366.14 286.222 1366.14 282.284C1366.14 278.347 1367.98 274.818 1372.02 274.818C1376.06 274.818 1377.9 278.347 1377.9 282.284C1377.9 286.222 1376.06 289.699 1372.02 289.699ZM1397.9 283.972C1397.9 287.653 1395.09 289.341 1392.84 289.341C1390.33 289.341 1388.54 287.5 1388.54 284.636V272.364H1385.53V284.841C1385.53 289.852 1388.19 292.256 1391.87 292.256C1394.83 292.256 1396.78 290.67 1397.7 288.676H1397.9V292H1400.92V272.364H1397.9V283.972ZM875.301 329.364H871.108V324.659H868.091V329.364H865.125V331.92H868.091V344.193C868.091 347.619 870.852 349.256 873.409 349.256C874.534 349.256 875.25 349.051 875.659 348.898L875.045 346.188C874.79 346.239 874.381 346.341 873.716 346.341C872.386 346.341 871.108 345.932 871.108 343.375V331.92H875.301V329.364ZM883.278 337.188C883.278 333.761 885.464 331.818 888.443 331.818C891.281 331.818 892.994 333.608 892.994 336.727V349H896.011V336.523C896.011 331.473 893.327 329.108 889.312 329.108C886.219 329.108 884.455 330.399 883.534 332.432H883.278V322.818H880.261V349H883.278V337.188ZM909.508 349.409C914.826 349.409 918.406 345.369 918.406 339.284C918.406 333.148 914.826 329.108 909.508 329.108C904.19 329.108 900.61 333.148 900.61 339.284C900.61 345.369 904.19 349.409 909.508 349.409ZM909.508 346.699C905.468 346.699 903.627 343.222 903.627 339.284C903.627 335.347 905.468 331.818 909.508 331.818C913.548 331.818 915.389 335.347 915.389 339.284C915.389 343.222 913.548 346.699 909.508 346.699ZM935.386 340.972C935.386 344.653 932.574 346.341 930.324 346.341C927.818 346.341 926.028 344.5 926.028 341.636V329.364H923.011V341.841C923.011 346.852 925.67 349.256 929.352 349.256C932.318 349.256 934.261 347.67 935.182 345.676H935.386V349H938.403V329.364H935.386V340.972ZM951.855 356.773C956.56 356.773 960.344 354.625 960.344 349.562V329.364H957.429V332.483H957.123C956.458 331.46 955.23 329.108 951.395 329.108C946.435 329.108 943.009 333.045 943.009 339.08C943.009 345.216 946.588 348.693 951.344 348.693C955.179 348.693 956.407 346.443 957.071 345.369H957.327V349.358C957.327 352.631 955.026 354.114 951.855 354.114C948.289 354.114 947.036 352.234 946.23 351.148L943.827 352.835C945.054 354.893 947.471 356.773 951.855 356.773ZM951.753 345.983C947.969 345.983 946.026 343.119 946.026 339.028C946.026 335.04 947.918 331.818 951.753 331.818C955.435 331.818 957.378 334.784 957.378 339.028C957.378 343.375 955.384 345.983 951.753 345.983ZM968.884 337.188C968.884 333.761 971.07 331.818 974.049 331.818C976.887 331.818 978.6 333.608 978.6 336.727V349H981.617V336.523C981.617 331.473 978.932 329.108 974.918 329.108C971.824 329.108 970.06 330.399 969.14 332.432H968.884V322.818H965.867V349H968.884V337.188ZM995.676 329.364H991.483V324.659H988.466V329.364H985.5V331.92H988.466V344.193C988.466 347.619 991.227 349.256 993.784 349.256C994.909 349.256 995.625 349.051 996.034 348.898L995.42 346.188C995.165 346.239 994.756 346.341 994.091 346.341C992.761 346.341 991.483 345.932 991.483 343.375V331.92H995.676V329.364ZM1018.32 349.409C1023.63 349.409 1027.21 345.369 1027.21 339.284C1027.21 333.148 1023.63 329.108 1018.32 329.108C1013 329.108 1009.42 333.148 1009.42 339.284C1009.42 345.369 1013 349.409 1018.32 349.409ZM1018.32 346.699C1014.28 346.699 1012.44 343.222 1012.44 339.284C1012.44 335.347 1014.28 331.818 1018.32 331.818C1022.36 331.818 1024.2 335.347 1024.2 339.284C1024.2 343.222 1022.36 346.699 1018.32 346.699ZM1040.56 329.364H1036.17V327.369C1036.17 325.426 1036.98 324.403 1038.98 324.403C1039.85 324.403 1040.36 324.608 1040.67 324.71L1041.54 322.102C1041.08 321.898 1040.16 321.591 1038.67 321.591C1035.86 321.591 1033.15 323.278 1033.15 326.653V329.364H1029.98V331.92H1033.15V349H1036.17V331.92H1040.56V329.364ZM1056.86 356.364C1059.58 356.364 1061.5 354.919 1062.64 351.864L1071 329.415L1067.7 329.364L1062.28 345.011H1062.08L1056.66 329.364H1053.38L1060.64 349.102L1060.08 350.636C1058.98 353.628 1057.63 353.909 1055.43 353.347L1054.66 356.006C1054.97 356.159 1055.84 356.364 1056.86 356.364ZM1082.27 349.409C1087.58 349.409 1091.16 345.369 1091.16 339.284C1091.16 333.148 1087.58 329.108 1082.27 329.108C1076.95 329.108 1073.37 333.148 1073.37 339.284C1073.37 345.369 1076.95 349.409 1082.27 349.409ZM1082.27 346.699C1078.23 346.699 1076.39 343.222 1076.39 339.284C1076.39 335.347 1078.23 331.818 1082.27 331.818C1086.31 331.818 1088.15 335.347 1088.15 339.284C1088.15 343.222 1086.31 346.699 1082.27 346.699ZM1108.14 340.972C1108.14 344.653 1105.33 346.341 1103.08 346.341C1100.58 346.341 1098.79 344.5 1098.79 341.636V329.364H1095.77V341.841C1095.77 346.852 1098.43 349.256 1102.11 349.256C1105.08 349.256 1107.02 347.67 1107.94 345.676H1108.14V349H1111.16V329.364H1108.14V340.972ZM1116.69 349H1119.7V336.574C1119.7 333.915 1121.8 331.972 1124.66 331.972C1125.47 331.972 1126.3 332.125 1126.51 332.176V329.108C1126.16 329.082 1125.37 329.057 1124.92 329.057C1122.57 329.057 1120.52 330.386 1119.81 332.33H1119.6V329.364H1116.69V349ZM1140.21 356.364H1143.22V345.983H1143.48C1144.14 347.057 1145.42 349.409 1149.21 349.409C1154.12 349.409 1157.54 345.472 1157.54 339.233C1157.54 333.045 1154.12 329.108 1149.16 329.108C1145.32 329.108 1144.14 331.46 1143.48 332.483H1143.12V329.364H1140.21V356.364ZM1143.17 339.182C1143.17 334.784 1145.12 331.818 1148.8 331.818C1152.63 331.818 1154.52 335.04 1154.52 339.182C1154.52 343.375 1152.58 346.699 1148.8 346.699C1145.17 346.699 1143.17 343.631 1143.17 339.182ZM1174.52 340.972C1174.52 344.653 1171.71 346.341 1169.46 346.341C1166.95 346.341 1165.16 344.5 1165.16 341.636V329.364H1162.14V341.841C1162.14 346.852 1164.8 349.256 1168.49 349.256C1171.45 349.256 1173.39 347.67 1174.31 345.676H1174.52V349H1177.54V329.364H1174.52V340.972ZM1183.06 349H1186.08V336.574C1186.08 333.915 1188.18 331.972 1191.04 331.972C1191.84 331.972 1192.68 332.125 1192.88 332.176V329.108C1192.54 329.082 1191.74 329.057 1191.3 329.057C1188.94 329.057 1186.9 330.386 1186.18 332.33H1185.98V329.364H1183.06V349ZM1203.84 349.409C1208.18 349.409 1211.05 346.75 1211.56 343.273H1208.54C1207.98 345.42 1206.19 346.699 1203.84 346.699C1200.26 346.699 1197.96 343.733 1197.96 339.182C1197.96 334.733 1200.31 331.818 1203.84 331.818C1206.5 331.818 1208.08 333.455 1208.54 335.244H1211.56C1211.05 331.562 1207.93 329.108 1203.79 329.108C1198.47 329.108 1194.94 333.301 1194.94 339.284C1194.94 345.165 1198.31 349.409 1203.84 349.409ZM1218.99 337.188C1218.99 333.761 1221.17 331.818 1224.15 331.818C1226.99 331.818 1228.7 333.608 1228.7 336.727V349H1231.72V336.523C1231.72 331.473 1229.03 329.108 1225.02 329.108C1221.93 329.108 1220.16 330.399 1219.24 332.432H1218.99V322.818H1215.97V349H1218.99V337.188ZM1243.02 349.46C1246.44 349.46 1248.23 347.619 1248.85 346.341H1249V349H1252.02V336.062C1252.02 329.824 1247.26 329.108 1244.75 329.108C1241.79 329.108 1238.41 330.131 1236.88 333.71L1239.74 334.733C1240.41 333.301 1241.98 331.767 1244.86 331.767C1247.63 331.767 1249 333.237 1249 335.756V335.858C1249 337.315 1247.52 337.188 1243.94 337.648C1240.29 338.121 1236.32 338.926 1236.32 343.426C1236.32 347.261 1239.28 349.46 1243.02 349.46ZM1243.48 346.75C1241.07 346.75 1239.33 345.676 1239.33 343.58C1239.33 341.278 1241.43 340.562 1243.78 340.256C1245.06 340.102 1248.49 339.744 1249 339.131V341.892C1249 344.347 1247.06 346.75 1243.48 346.75ZM1271.43 333.761C1270.49 330.974 1268.36 329.108 1264.48 329.108C1260.34 329.108 1257.27 331.46 1257.27 334.784C1257.27 337.494 1258.88 339.31 1262.48 340.153L1265.76 340.92C1267.74 341.381 1268.67 342.327 1268.67 343.682C1268.67 345.369 1266.88 346.75 1264.07 346.75C1261.6 346.75 1260.05 345.689 1259.52 343.58L1256.65 344.295C1257.36 347.632 1260.11 349.409 1264.12 349.409C1268.68 349.409 1271.79 346.916 1271.79 343.528C1271.79 340.793 1270.08 339.067 1266.57 338.21L1263.66 337.494C1261.33 336.919 1260.28 336.139 1260.28 334.631C1260.28 332.943 1262.07 331.716 1264.48 331.716C1267.11 331.716 1268.2 333.173 1268.72 334.528L1271.43 333.761ZM1284.56 349.409C1288.55 349.409 1291.47 347.415 1292.39 344.449L1289.47 343.631C1288.71 345.676 1286.93 346.699 1284.56 346.699C1281.02 346.699 1278.58 344.411 1278.44 340.205H1292.7V338.926C1292.7 331.614 1288.35 329.108 1284.26 329.108C1278.94 329.108 1275.41 333.301 1275.41 339.335C1275.41 345.369 1278.89 349.409 1284.56 349.409ZM1278.44 337.597C1278.65 334.541 1280.81 331.818 1284.26 331.818C1287.53 331.818 1289.63 334.273 1289.63 337.597H1278.44ZM1311.86 349H1314.82L1319.12 333.915H1319.43L1323.72 349H1326.69L1332.67 329.364H1329.5L1325.26 344.347H1325.05L1320.91 329.364H1317.69L1313.5 344.398H1313.29L1309.05 329.364H1305.88L1311.86 349ZM1336.66 349H1339.68V329.364H1336.66V349ZM1338.19 326.091C1339.37 326.091 1340.34 325.17 1340.34 324.045C1340.34 322.92 1339.37 322 1338.19 322C1337.02 322 1336.05 322.92 1336.05 324.045C1336.05 325.17 1337.02 326.091 1338.19 326.091ZM1353.74 329.364H1349.55V324.659H1346.53V329.364H1343.57V331.92H1346.53V344.193C1346.53 347.619 1349.29 349.256 1351.85 349.256C1352.98 349.256 1353.69 349.051 1354.1 348.898L1353.49 346.188C1353.23 346.239 1352.82 346.341 1352.16 346.341C1350.83 346.341 1349.55 345.932 1349.55 343.375V331.92H1353.74V329.364ZM1361.72 337.188C1361.72 333.761 1363.91 331.818 1366.88 331.818C1369.72 331.818 1371.44 333.608 1371.44 336.727V349H1374.45V336.523C1374.45 331.473 1371.77 329.108 1367.75 329.108C1364.66 329.108 1362.9 330.399 1361.98 332.432H1361.72V322.818H1358.7V349H1361.72V337.188ZM1402.47 340.972C1402.47 344.653 1399.66 346.341 1397.41 346.341C1394.9 346.341 1393.11 344.5 1393.11 341.636V329.364H1390.1V341.841C1390.1 346.852 1392.76 349.256 1396.44 349.256C1399.4 349.256 1401.35 347.67 1402.27 345.676H1402.47V349H1405.49V329.364H1402.47V340.972ZM1424.92 333.761C1423.98 330.974 1421.86 329.108 1417.97 329.108C1413.83 329.108 1410.76 331.46 1410.76 334.784C1410.76 337.494 1412.37 339.31 1415.98 340.153L1419.25 340.92C1421.23 341.381 1422.16 342.327 1422.16 343.682C1422.16 345.369 1420.37 346.75 1417.56 346.75C1415.09 346.75 1413.55 345.689 1413.01 343.58L1410.15 344.295C1410.85 347.632 1413.6 349.409 1417.61 349.409C1422.18 349.409 1425.28 346.916 1425.28 343.528C1425.28 340.793 1423.57 339.067 1420.07 338.21L1417.15 337.494C1414.82 336.919 1413.78 336.139 1413.78 334.631C1413.78 332.943 1415.57 331.716 1417.97 331.716C1420.6 331.716 1421.69 333.173 1422.21 334.528L1424.92 333.761ZM1432.02 349.205C1433.29 349.205 1434.32 348.169 1434.32 346.903C1434.32 345.638 1433.29 344.602 1432.02 344.602C1430.76 344.602 1429.72 345.638 1429.72 346.903C1429.72 348.169 1430.76 349.205 1432.02 349.205Z" fill="#283A4A"/>
<path fill-rule="evenodd" clip-rule="evenodd" d="M704.55 264.492C714.352 254.772 727.889 249.841 742.866 249.841C757.746 249.841 771.279 254.774 781.104 264.489C790.943 274.219 796.798 288.483 796.798 306.636C796.798 324.789 790.943 339.054 781.104 348.784C771.279 358.499 757.746 363.432 742.866 363.432C727.88 363.432 714.345 358.444 704.547 348.701C694.736 338.945 688.935 324.683 688.935 306.636C688.935 288.491 694.734 274.225 704.55 264.492ZM708.774 268.752C700.283 277.172 694.935 289.804 694.935 306.636C694.935 323.362 700.281 335.998 708.777 344.447C717.286 352.908 729.217 357.432 742.866 357.432C756.419 357.432 768.351 352.956 776.885 344.517C785.403 336.094 790.798 323.46 790.798 306.636C790.798 289.812 785.403 277.179 776.885 268.755C768.351 260.317 756.419 255.841 742.866 255.841C729.208 255.841 717.279 260.319 708.774 268.752ZM331.312 254.273C331.312 252.616 332.656 251.273 334.312 251.273H362.744C364.401 251.273 365.744 252.616 365.744 254.273V292.182H397.381V254.273C397.381 252.616 398.724 251.273 400.381 251.273H428.812C430.469 251.273 431.812 252.616 431.812 254.273V359C431.812 360.657 430.469 362 428.812 362H400.381C398.724 362 397.381 360.657 397.381 359V321.091H365.744V359C365.744 360.657 364.401 362 362.744 362H334.312C332.656 362 331.312 360.657 331.312 359V254.273ZM337.312 257.273V356H359.744V318.091C359.744 316.434 361.087 315.091 362.744 315.091H400.381C402.038 315.091 403.381 316.434 403.381 318.091V356H425.812V257.273H403.381V295.182C403.381 296.839 402.038 298.182 400.381 298.182H362.744C361.087 298.182 359.744 296.839 359.744 295.182V257.273H337.312ZM439.312 254.273C439.312 252.616 440.656 251.273 442.312 251.273H517.79C519.447 251.273 520.79 252.616 520.79 254.273V277.182C520.79 278.839 519.447 280.182 517.79 280.182H473.744V292.182H513.903C515.56 292.182 516.903 293.525 516.903 295.182V318.091C516.903 319.748 515.56 321.091 513.903 321.091H473.744V333.091H517.585C519.242 333.091 520.585 334.434 520.585 336.091V359C520.585 360.657 519.242 362 517.585 362H442.312C440.656 362 439.312 360.657 439.312 359V254.273ZM445.312 257.273V356H514.585V339.091H470.744C469.087 339.091 467.744 337.748 467.744 336.091V318.091C467.744 316.434 469.087 315.091 470.744 315.091H510.903V298.182H470.744C469.087 298.182 467.744 296.839 467.744 295.182V277.182C467.744 275.525 469.087 274.182 470.744 274.182H514.79V257.273H445.312ZM528.891 254.273C528.891 252.616 530.234 251.273 531.891 251.273H560.322C561.979 251.273 563.322 252.616 563.322 254.273V333.091H602.663C604.32 333.091 605.663 334.434 605.663 336.091V359C605.663 360.657 604.32 362 602.663 362H531.891C530.234 362 528.891 360.657 528.891 359V254.273ZM534.891 257.273V356H599.663V339.091H560.322C558.666 339.091 557.322 337.748 557.322 336.091V257.273H534.891ZM611.156 254.273C611.156 252.616 612.499 251.273 614.156 251.273H642.588C644.245 251.273 645.588 252.616 645.588 254.273V333.091H684.929C686.586 333.091 687.929 334.434 687.929 336.091V359C687.929 360.657 686.586 362 684.929 362H614.156C612.499 362 611.156 360.657 611.156 359V254.273ZM617.156 257.273V356H681.929V339.091H642.588C640.931 339.091 639.588 337.748 639.588 336.091V257.273H617.156ZM729.139 286.849C726.021 291.035 724.185 297.559 724.185 306.636C724.185 315.713 726.021 322.238 729.139 326.424C732.151 330.468 736.619 332.682 742.866 332.682C749.114 332.682 753.582 330.468 756.594 326.424C759.712 322.238 761.548 315.713 761.548 306.636C761.548 297.559 759.712 291.035 756.594 286.849C753.582 282.804 749.114 280.591 742.866 280.591C736.619 280.591 732.151 282.804 729.139 286.849ZM724.327 283.265C728.627 277.491 735 274.591 742.866 274.591C750.733 274.591 757.106 277.491 761.406 283.265C765.601 288.897 767.548 296.895 767.548 306.636C767.548 316.377 765.601 324.376 761.406 330.008C757.106 335.782 750.733 338.682 742.866 338.682C735 338.682 728.627 335.782 724.327 330.008C720.132 324.376 718.185 316.377 718.185 306.636C718.185 296.895 720.132 288.897 724.327 283.265ZM803.889 344.682C803.889 343.025 805.232 341.682 806.889 341.682H828.162C828.995 341.682 829.79 342.028 830.358 342.637C830.925 343.247 831.214 344.065 831.154 344.895L830.745 350.623L830.745 350.626C829.692 365.112 823.84 378.531 821.145 384.71C820.98 385.087 820.827 385.437 820.688 385.759C820.213 386.857 819.131 387.568 817.935 387.568H800.548C799.606 387.568 798.718 387.125 798.151 386.372C797.584 385.619 797.405 384.643 797.666 383.737C797.815 383.22 797.987 382.637 798.176 381.995C800.116 375.414 803.889 362.611 803.889 350.409V344.682ZM809.889 347.682V350.409C809.889 362.25 806.613 374.499 804.556 381.568H815.967C818.762 375.131 823.825 363.052 824.76 350.195M824.761 350.192L824.94 347.682H809.889" fill="#283A4A"/>
<path d="M162.901 74.9997H170.009L171.313 67.227H175.225C181.259 67.227 185.81 63.7497 186.73 58.0736C187.651 52.4997 184.378 48.8179 178.548 48.8179H167.247L162.901 74.9997ZM172.233 61.7043L173.435 54.4941H175.941C178.446 54.4941 179.673 55.8236 179.316 58.0736C178.958 60.3236 177.27 61.7043 174.713 61.7043H172.233Z" fill="#283A4A"/>
<path d="M213.986 62.3691C215.469 53.4202 210.509 48.46 203.196 48.46C196.242 48.46 190.054 53.0111 188.673 61.5509C187.191 70.4486 192.151 75.3577 199.514 75.3577C206.418 75.3577 212.554 70.9088 213.986 62.3691ZM206.827 61.5509C206.009 66.4088 203.503 69.1702 199.77 69.1702C196.497 69.1702 195.014 66.9202 195.833 62.3691C196.6 57.5111 199.156 54.6475 202.941 54.6475C206.264 54.6475 207.543 57.0509 206.827 61.5509Z" fill="#283A4A"/>
<path d="M232.258 56.9997H239.059C239.928 51.835 236.502 48.46 230.161 48.46C223.922 48.46 219.013 51.7838 218.195 56.7952C217.53 60.8861 219.985 63.1361 224.434 64.1588L226.939 64.7213C229.752 65.335 230.672 66.102 230.468 67.2781C230.263 68.5566 228.934 69.477 226.633 69.477C223.922 69.477 222.491 68.1986 222.797 65.7952H216.047C214.974 72.3406 218.962 75.3066 225.763 75.3066C232.411 75.3066 236.86 72.4429 237.729 67.2781C238.394 63.2895 236.451 60.477 230.877 59.2497L228.832 58.7895C226.428 58.2781 225.405 57.5111 225.712 56.2838C225.917 55.1077 226.991 54.2895 229.189 54.2895C231.491 54.2895 232.411 55.3122 232.258 56.9997Z" fill="#283A4A"/>
<path d="M239.155 74.9997H246.263L247.95 64.7725H257.359L255.672 74.9997H262.78L267.126 48.8179H260.018L258.331 59.0452H248.922L250.609 48.8179H243.501L239.155 74.9997Z" fill="#283A4A"/>
<path d="M293.615 62.3691C295.098 53.4202 290.138 48.46 282.825 48.46C275.871 48.46 269.683 53.0111 268.302 61.5509C266.819 70.4486 271.78 75.3577 279.143 75.3577C286.047 75.3577 292.183 70.9088 293.615 62.3691ZM286.456 61.5509C285.638 66.4088 283.132 69.1702 279.399 69.1702C276.126 69.1702 274.643 66.9202 275.461 62.3691C276.229 57.5111 278.785 54.6475 282.569 54.6475C285.893 54.6475 287.172 57.0509 286.456 61.5509Z" fill="#283A4A"/>
<path d="M294.807 74.9997H313.625L314.597 69.2725H302.887L303.602 64.7725H314.392L315.364 59.0452H304.574L305.29 54.5452H317.051L318.023 48.8179H299.154L294.807 74.9997Z" fill="#283A4A"/>
</g>
<defs>
<clipPath id="clip0">
<rect width="1920" height="1080" fill="white"/>
</clipPath>
</defs>
</svg>
