<svg width="81" height="80" viewBox="0 0 81 80" fill="none" xmlns="http://www.w3.org/2000/svg">
<path d="M71.4927 0.70752H8.70094C3.97372 0.70752 0.138428 4.51085 0.138428 9.19867V71.4671C0.138428 76.155 3.97372 79.9583 8.70094 79.9583H71.4927C76.2199 79.9583 80.0552 76.155 80.0552 71.4671V9.19867C80.0552 4.51085 76.2199 0.70752 71.4927 0.70752ZM49.6048 68.5837C48.1063 68.849 47.5533 67.9292 47.5533 67.1685C47.5533 66.2132 47.589 61.3308 47.589 57.386C47.589 54.6264 46.6614 52.8751 45.5732 51.9552C52.1735 51.2299 59.1306 50.3277 59.1306 39.0239C59.1306 35.8043 57.971 34.1945 56.0802 32.1248C56.3834 31.3641 57.4002 28.233 55.7769 24.1643C53.2973 23.4037 47.6247 27.3308 47.6247 27.3308C45.27 26.6763 42.7191 26.3402 40.2038 26.3402C37.6886 26.3402 35.1377 26.6763 32.783 27.3308C32.783 27.3308 27.1103 23.4037 24.6308 24.1643C23.0075 28.2153 24.0064 31.3464 24.3275 32.1248C22.4366 34.1945 21.5447 35.8043 21.5447 39.0239C21.5447 50.2746 28.1985 51.2299 34.7988 51.9552C33.9425 52.7158 33.1754 54.0249 32.9079 55.9C31.2132 56.6607 26.8784 57.9697 24.2918 53.4411C22.6685 50.6461 19.743 50.4162 19.743 50.4162C16.8532 50.3808 19.5468 52.2205 19.5468 52.2205C21.4733 53.105 22.8291 56.5015 22.8291 56.5015C24.5594 61.7554 32.8365 59.9864 32.8365 59.9864C32.8365 62.4453 32.8722 66.4432 32.8722 67.1685C32.8722 67.9292 32.337 68.849 30.8208 68.5837C19.0473 64.6742 10.8059 53.565 10.8059 40.5806C10.8059 24.3412 23.3286 12.0114 39.7044 12.0114C56.0802 12.0114 69.352 24.3412 69.352 40.5806C69.3699 53.565 61.3782 64.6919 49.6048 68.5837ZM32.1051 57.7752C31.7662 57.8459 31.4451 57.7044 31.4094 57.4744C31.3737 57.2091 31.6056 56.9791 31.9446 56.9084C32.2835 56.873 32.6046 57.0145 32.6403 57.2445C32.6938 57.4744 32.4619 57.7044 32.1051 57.7752ZM30.4105 57.6159C30.4105 57.8459 30.1429 58.0405 29.7861 58.0405C29.3937 58.0759 29.1261 57.8813 29.1261 57.6159C29.1261 57.386 29.3937 57.1914 29.7504 57.1914C30.0894 57.156 30.4105 57.3506 30.4105 57.6159ZM27.9666 57.4214C27.8952 57.6513 27.5385 57.7575 27.2352 57.6513C26.8963 57.5806 26.6644 57.3152 26.7357 57.0853C26.8071 56.8553 27.1638 56.7491 27.4671 56.8199C27.8239 56.926 28.0558 57.1914 27.9666 57.4214ZM25.7724 56.4661C25.6119 56.6607 25.273 56.6253 25.0054 56.36C24.7378 56.13 24.6665 55.7939 24.8448 55.6347C25.0054 55.4401 25.3443 55.4755 25.6119 55.7408C25.8438 55.9708 25.933 56.3246 25.7724 56.4661ZM24.1491 54.8563C23.9886 54.9625 23.6853 54.8563 23.4891 54.591C23.2929 54.3256 23.2929 54.0249 23.4891 53.9011C23.6853 53.7419 23.9886 53.8657 24.1491 54.131C24.3454 54.3964 24.3454 54.7148 24.1491 54.8563ZM22.9896 53.1404C22.8291 53.2996 22.5615 53.2112 22.3653 53.0343C22.1691 52.8043 22.1334 52.5389 22.2939 52.4151C22.4545 52.2559 22.722 52.3444 22.9183 52.5213C23.1145 52.7512 23.1502 53.0166 22.9896 53.1404ZM21.7944 51.8313C21.7231 51.9906 21.4912 52.0259 21.295 51.9021C21.0631 51.796 20.956 51.6014 21.0274 51.4422C21.0987 51.336 21.295 51.283 21.5269 51.3714C21.7588 51.4952 21.8658 51.6898 21.7944 51.8313Z" fill="#17171A"/>
</svg>
