<svg width="80" height="80" viewBox="0 0 80 80" fill="none" xmlns="http://www.w3.org/2000/svg">
<path d="M74.2084 0.0415039H5.6905C2.55091 0.0415039 0 2.6281 0 5.80336V74.1964C0 77.3717 2.55091 79.9583 5.6905 79.9583H74.2084C77.348 79.9583 79.9168 77.3717 79.9168 74.1964V5.80336C79.9168 2.6281 77.348 0.0415039 74.2084 0.0415039ZM24.1534 68.5416H12.3086V30.4027H24.1713V68.5416H24.1534ZM18.231 25.1939C14.4314 25.1939 11.3632 22.1078 11.3632 18.326C11.3632 14.5443 14.4314 11.4582 18.231 11.4582C22.0128 11.4582 25.0989 14.5443 25.0989 18.326C25.0989 22.1256 22.0306 25.1939 18.231 25.1939ZM68.5536 68.5416H56.7088V49.9895C56.7088 45.5655 56.6196 39.875 50.5545 39.875C44.3823 39.875 43.4369 44.6914 43.4369 49.6684V68.5416H31.5921V30.4027H42.9553V35.6116H43.1158C44.7034 32.6147 48.5744 29.4573 54.3363 29.4573C66.3238 29.4573 68.5536 37.3598 68.5536 47.6348V68.5416Z" fill="#17171A"/>
</svg>
