<svg width="65" height="63" viewBox="0 0 65 63" fill="none" xmlns="http://www.w3.org/2000/svg">
<path d="M28.1008 0.576256C25.3786 0.958271 21.4614 2.13615 18.4737 3.50505C9.17847 7.77089 2.77143 15.6659 0.64682 25.5028C-0.282698 29.8005 -0.0503185 35.9446 1.17797 39.9239C2.93742 45.5905 5.49359 49.7608 9.61003 53.7083C13.6269 57.5603 17.9093 59.9797 23.8516 61.667C27.802 62.7812 34.4746 63.0677 38.5247 62.3037C45.0313 61.0303 50.376 58.3562 55.09 54.0267C59.6048 49.8563 62.4598 45.2085 64.186 39.1599C64.85 36.8678 64.9496 35.7536 64.9164 31.3922C64.9164 26.808 64.8168 26.0122 63.9869 23.4335C60.1692 11.2409 50.9072 3.15487 38.1263 0.830933C35.7029 0.385246 30.491 0.257908 28.1008 0.576256ZM36.4997 5.35146C39.6202 6.81585 42.276 9.23529 43.4379 11.7184C44.1682 13.2146 44.3674 14.1697 44.467 16.5891C44.5998 19.486 44.5334 19.7726 43.2719 23.1152C41.446 27.8586 41.0809 29.3548 41.3132 31.424C41.6784 34.894 43.5043 37.1861 46.5916 37.9502C48.517 38.4595 50.3429 38.0138 52.0359 36.5813C54.4593 34.512 55.256 31.6469 54.7581 26.3305C54.3929 22.4467 54.6917 20.9186 56.1855 19.295C56.7499 18.6902 57.3142 18.1808 57.4802 18.1808C57.8454 18.1808 59.7044 22.2557 60.3684 24.5478C60.7667 25.9803 60.9659 27.7631 60.9659 30.278C60.9659 33.8117 60.9327 34.0027 59.8704 35.9446C58.4097 38.6187 56.2851 40.5924 53.563 41.834C51.5047 42.789 51.0732 42.8527 47.8531 42.8527C44.7657 42.8527 44.135 42.7572 42.5083 42.025C41.4792 41.5475 40.0186 40.6561 39.2882 39.9876L37.9271 38.8097L36.3669 40.0194L34.8066 41.2291L36.3005 42.5343C41.6784 47.1822 49.5461 48.1054 56.0527 44.7946C57.2146 44.1898 58.1442 43.8077 58.1442 43.9351C58.1442 44.3489 55.6876 48.0417 54.7581 49.0286C53.4966 50.3338 50.7744 51.066 47.0231 51.0979C42.1764 51.0979 38.4251 49.6972 34.4746 46.45L32.5824 44.8901L30.823 46.2908C26.5073 49.8245 23.0217 51.1297 17.9757 51.066C15.8843 51.066 14.158 50.8432 12.8301 50.4293C10.9047 49.8563 10.8051 49.7608 8.74691 46.8639C7.58501 45.2403 6.72189 43.8396 6.78828 43.7441C6.88787 43.6804 7.51862 43.9351 8.24895 44.3808C11.6019 46.4182 16.4154 47.2777 20.3659 46.5455C23.1212 46.0362 26.7065 44.3489 28.6984 42.6299L30.325 41.261L28.7647 40.0512L27.2377 38.8097L25.8766 39.9876C23.6856 41.8977 21.2622 42.789 17.9093 42.9482C13.2285 43.171 9.34446 41.4838 6.5891 38.0457C3.90013 34.6394 3.26939 30.3417 4.69686 25.0571C5.49359 22.0328 7.31943 18.1172 7.81739 18.2763C8.48133 18.4673 10.0416 20.8868 10.3404 22.1283C10.5064 22.7969 10.4732 24.7069 10.3072 26.5215C9.80921 31.4877 10.6723 34.4802 13.1289 36.5813C16.3822 39.319 20.6315 38.4277 22.8557 34.6075C23.6524 33.175 23.7852 32.6656 23.752 30.4372C23.752 28.2406 23.5528 27.4129 22.3577 24.4204C20.5651 19.9636 20.1667 17.8625 20.6315 15.252C21.3618 10.827 24.0508 7.54805 28.7316 5.28779C31.8189 3.79156 33.2464 3.79156 36.4997 5.35146ZM19.3036 8.21658C17.5773 10.827 16.9134 12.9599 16.7474 16.4299C16.5814 19.7726 16.7806 20.6639 19.2704 27.1582C19.6687 28.1769 19.9675 29.6731 19.9675 30.5008C19.9675 34.5757 16.2163 35.8172 14.6228 32.3154C13.992 31.0102 13.9588 30.469 14.158 26.3623C14.3904 22.192 14.324 21.7145 13.6601 19.9954C13.2285 18.913 12.299 17.5123 11.3363 16.4936L9.74282 14.8382L11.0707 13.342C12.631 11.5592 15.7847 9.10795 18.3077 7.70722C19.3036 7.16603 20.1667 6.72035 20.1999 6.72035C20.2663 6.72035 19.8347 7.38887 19.3036 8.21658ZM48.9818 9.04428C50.9072 10.2858 55.1564 14.1378 55.1564 14.6472C55.1564 14.7745 54.5257 15.5386 53.729 16.3026C51.1728 18.8812 51.0068 19.4542 51.0068 25.9803C51.0068 31.3922 50.9736 31.7742 50.2433 32.8884C49.015 34.7667 47.4215 34.9895 46.0272 33.3978C45.1641 32.4428 45.1309 32.2199 45.2969 30.1188C45.4297 28.5271 45.8612 26.9035 46.8904 24.3886C48.2514 21.0141 48.3178 20.7594 48.351 17.385C48.351 13.4693 47.6539 10.9225 45.8612 8.18474L44.8653 6.72035L45.9608 7.2297C46.5252 7.51621 47.9195 8.34391 48.9818 9.04428ZM33.9435 50.8432C36.9976 53.0398 42.2428 54.7907 45.828 54.7907H47.6871L46.8572 55.4274C45.5625 56.3824 41.1805 58.0378 39.9522 58.0378C39.3214 58.0378 37.5288 57.433 35.7029 56.6053L32.5824 55.1409L29.3955 56.6053C27.6692 57.4011 25.7438 58.0378 25.1795 58.0697C23.9844 58.0697 19.37 56.3188 18.2081 55.3956L17.4777 54.8225L19.3036 54.7907C22.9221 54.7589 27.9016 53.1353 30.7566 51.0342C31.4869 50.493 32.2504 50.0473 32.4496 50.0473C32.6156 50.0155 33.3128 50.3975 33.9435 50.8432Z" fill="#17171A"/>
<path d="M26.6733 28.8773C25.611 29.5776 25.6774 31.0739 26.8061 31.7742C27.6028 32.2517 27.7688 32.2517 28.5655 31.8379C29.7606 31.2012 29.9266 29.5776 28.8643 28.8773C27.9348 28.2406 27.6028 28.2406 26.6733 28.8773Z" fill="#17171A"/>
<path d="M36.3669 28.6226C36.1677 28.7499 35.8357 29.1638 35.6034 29.5458C35.0058 30.6918 35.9685 32.1562 37.3296 32.188C38.0931 32.188 39.2218 31.0738 39.2218 30.278C39.2218 29.0046 37.396 27.954 36.3669 28.6226Z" fill="#17171A"/>
</svg>
