<svg width="964" height="197" viewBox="0 0 964 197" fill="none" xmlns="http://www.w3.org/2000/svg">
<path d="M76.858 92.7988C68.5158 103.57 58.4913 112.926 47.1706 120.506C36.1747 127.799 26.032 131.598 18.1755 131.598H17.1773C14.7112 131.599 12.2839 130.985 10.1142 129.813C7.9444 128.641 6.10044 126.947 4.74852 124.885C1.60912 119.798 1.19054 113.374 3.33177 105.517C8.46749 87.808 26.3218 68.231 40.8918 59.811C37.6645 58.8285 34.5956 57.3862 31.7795 55.5285C28.785 53.661 23.6332 49.8132 23.2146 44.8063C22.796 39.7994 28.785 32.8122 33.7758 27.9663C40.5801 21.5759 48.151 16.0546 56.3151 11.5287C62.7549 7.95464 74.588 2.52912 80.3033 6.69888C81.1995 7.31754 81.9513 8.12273 82.507 9.05923C83.0628 9.99572 83.4095 11.0414 83.5232 12.1244C84.3925 18.9828 77.5342 28.2239 72.3823 34.6636C72.1324 34.9322 71.7982 35.1073 71.4352 35.16C71.0722 35.2127 70.702 35.1398 70.386 34.9534C70.2437 34.833 70.1269 34.6854 70.0424 34.5192C69.9579 34.353 69.9074 34.1717 69.8939 33.9857C69.8804 33.7998 69.9042 33.613 69.9638 33.4364C70.0234 33.2598 70.1177 33.0968 70.2411 32.9571C72.8814 29.5279 81.4463 18.9023 80.738 12.4625C80.6605 11.7496 80.4289 11.0621 80.0591 10.4477C79.6894 9.83332 79.1904 9.30674 78.5967 8.90451C75.4573 6.47349 67.6008 8.46983 57.6674 13.8953C40.8918 23.1042 25.5973 38.0928 26.032 44.6614C26.1769 47.3822 28.8977 50.5216 33.1802 53.2424C36.76 55.5913 40.7996 57.1501 45.0294 57.8147C45.3444 57.8228 45.6464 57.9419 45.882 58.1511C46.1177 58.3602 46.2719 58.6459 46.3173 58.9577C46.3165 59.249 46.2368 59.5345 46.0865 59.784C45.9363 60.0335 45.7211 60.2376 45.4641 60.3745C31.1677 67.3777 11.3171 87.9529 6.02038 106.371C4.02404 113.374 4.31383 119.089 7.16344 123.372C9.24027 126.769 12.6051 128.652 17.29 128.942C32.4235 129.506 58.1343 112.649 74.5558 91.0922C74.8067 90.8198 75.1439 90.6423 75.5105 90.5895C75.877 90.5367 76.2506 90.6119 76.5682 90.8025C76.8535 91.0414 77.0408 91.377 77.0942 91.7453C77.1477 92.1136 77.0636 92.4886 76.858 92.7988Z" fill="#17171A" stroke="#1D1D1B" stroke-width="3" stroke-miterlimit="10"/>
<path d="M110.441 92.6539C107.222 98.448 103.236 103.782 98.5922 108.512C92.8769 114.227 87.5802 117.222 83.0241 117.222C81.9232 117.26 80.8265 117.068 79.8042 116.658C74.2982 114.791 72.0281 107.449 73.7347 96.5178C75.4412 85.5862 80.7379 69.9537 87.87 54.949C93.2955 43.6793 100.862 30.9608 105.579 29.1898C106.046 28.9096 106.591 28.7865 107.132 28.8387C107.674 28.8908 108.185 29.1155 108.59 29.4796C109.037 29.9581 109.333 30.557 109.443 31.2023C109.862 35.9033 101.394 52.3408 96.4349 61.6141C89.0131 75.3309 80.8667 88.468 77.1156 92.8954C76.8055 94.2129 76.5637 95.5456 76.3911 96.888C74.9743 106.177 76.536 112.601 80.6896 114.034C89.9629 117.254 103.969 99.0454 107.962 91.3176C108.047 91.158 108.162 91.0166 108.301 90.9015C108.44 90.7864 108.601 90.6998 108.773 90.6468C108.946 90.5937 109.128 90.5751 109.307 90.5922C109.487 90.6092 109.662 90.6615 109.822 90.7461C109.981 90.8307 110.123 90.9459 110.238 91.0851C110.353 91.2243 110.439 91.3848 110.492 91.5575C110.546 91.7302 110.564 91.9116 110.547 92.0914C110.53 92.2712 110.478 92.446 110.393 92.6056L110.441 92.6539ZM79.0153 85.6667C83.1529 79.3718 89.0131 69.5673 94.4386 59.5212C104.291 41.2483 106.722 33.5367 106.722 31.6691C106.377 31.839 106.043 32.0327 105.724 32.2487C99.3006 36.821 85.2941 63.53 79.0153 85.6667Z" fill="#17171A" stroke="#1D1D1B" stroke-width="3" stroke-miterlimit="10"/>
<path d="M142.141 92.7988C141.578 93.5233 140.853 94.5214 140.145 95.5196C134.285 103.086 123.852 116.803 113.726 116.803C113.148 116.827 112.569 116.778 112.003 116.658C110.589 116.524 109.239 116.002 108.103 115.15C106.967 114.298 106.088 113.148 105.563 111.828C102.344 104.696 107.173 91.8328 110.554 86.6971C110.639 86.5366 110.758 86.3963 110.902 86.2855C111.046 86.1748 111.212 86.0962 111.389 86.055C111.566 86.0138 111.75 86.011 111.928 86.0468C112.106 86.0825 112.274 86.1561 112.422 86.2624C112.585 86.362 112.726 86.4939 112.836 86.65C112.946 86.8062 113.023 86.9832 113.062 87.1701C113.101 87.3571 113.102 87.5502 113.064 87.7374C113.026 87.9246 112.95 88.102 112.84 88.2587C109.862 92.6539 105.435 104.664 108.155 110.669C108.489 111.557 109.069 112.332 109.828 112.903C110.586 113.473 111.492 113.815 112.438 113.889C112.856 114.01 113.291 114.059 113.726 114.034C122.436 114.034 132.433 100.897 137.875 93.7486C138.728 92.7505 139.485 91.7523 140.016 91.0439C140.266 90.7754 140.6 90.6003 140.963 90.5476C141.326 90.4949 141.697 90.5678 142.013 90.7541C142.165 90.8732 142.291 91.0233 142.381 91.1945C142.472 91.3657 142.525 91.5542 142.537 91.7475C142.549 91.9407 142.52 92.1344 142.452 92.3156C142.384 92.4968 142.278 92.6615 142.141 92.7988ZM112.438 79.0981C112.314 78.8984 112.261 78.6627 112.287 78.429C112.313 78.1954 112.417 77.9774 112.583 77.8102C112.691 76.5112 113.263 75.2943 114.193 74.381C114.571 74.0101 115.035 73.7382 115.543 73.5893C116.051 73.4405 116.588 73.4193 117.107 73.5277C118.105 73.6565 120.101 74.0912 120.327 75.6689C120.552 77.2467 119.039 77.9551 115.175 79.5167V79.6616C115.218 79.8458 115.215 80.0376 115.168 80.2208C115.121 80.4039 115.031 80.573 114.904 80.7136C114.778 80.8543 114.619 80.9623 114.442 81.0286C114.265 81.0949 114.075 81.1175 113.887 81.0945C113.531 81.0997 113.187 80.9695 112.924 80.7304C112.661 80.4912 112.499 80.1609 112.47 79.8065V79.0981H112.438Z" fill="#17171A" stroke="#1D1D1B" stroke-width="3" stroke-miterlimit="10"/>
<path d="M180.281 92.9598C170.283 101.106 161.557 108.673 154.28 115.386C156.955 117.159 158.965 119.77 159.996 122.808C162.427 131.099 155.858 140.807 149 147.086C143.703 152.093 136.571 156.376 131.145 156.376C130.114 156.379 129.094 156.165 128.151 155.748C127.201 155.418 126.362 154.828 125.73 154.045C125.098 153.263 124.699 152.319 124.577 151.32C123.852 146.893 127.426 139.906 135.428 130.761C139.876 125.517 144.645 120.555 149.708 115.901C146.623 114.544 143.377 113.586 140.048 113.052C139.781 113.015 139.531 112.901 139.328 112.723C139.125 112.546 138.978 112.313 138.905 112.054C138.839 111.832 138.832 111.597 138.882 111.372C138.933 111.147 139.041 110.938 139.195 110.766C143.477 106.049 146.327 102.619 148.323 99.9147C151.543 95.3425 151.044 94.3443 151.044 94.3443C151.044 94.3443 150.915 94.2316 150.915 94.0867C150.915 93.9418 150.481 93.3784 148.066 93.0886C146.256 92.9877 144.442 93.0361 142.64 93.2335C141.916 93.2335 141.497 93.3784 141.03 93.3784C140.65 93.3784 140.286 93.2274 140.017 92.9587C139.748 92.69 139.598 92.3255 139.598 91.9455C139.598 91.5655 139.748 91.201 140.017 90.9323C140.286 90.6636 140.65 90.5127 141.03 90.5127H142.463C147.293 90.0941 152.026 90.0941 153.314 92.7988C155.021 95.6645 152.171 100.655 142.882 110.798C145.993 111.423 149.016 112.429 151.881 113.792C159.303 106.934 168.303 99.303 178.59 90.8024C178.875 90.5982 179.229 90.5142 179.575 90.5684C179.922 90.6226 180.233 90.8107 180.442 91.0922C180.571 91.217 180.671 91.369 180.734 91.5372C180.797 91.7053 180.821 91.8854 180.806 92.0643C180.79 92.2432 180.735 92.4164 180.645 92.5713C180.554 92.7262 180.429 92.8589 180.281 92.9598ZM152.139 117.367C146.279 122.937 141.433 127.944 137.424 132.5C127.861 143.77 127.008 148.938 127.281 150.934C127.325 151.459 127.527 151.959 127.861 152.367C128.194 152.775 128.643 153.072 129.149 153.22C132.852 154.637 140.419 151.224 147.132 145.074C153.427 139.358 159.271 130.584 157.275 123.645C156.392 120.993 154.564 118.758 152.139 117.367Z" fill="#17171A" stroke="#1D1D1B" stroke-width="3" stroke-miterlimit="10"/>
<path d="M232.395 92.7988C231.831 93.5233 231.123 94.5214 230.254 95.5196C224.12 103.569 212.834 118.51 202.128 116.658C200.614 116.473 199.178 115.884 197.971 114.951C196.765 114.019 195.831 112.779 195.27 111.361C193.547 107.079 194.126 101.09 195.559 95.9382C194.835 96.8075 194.126 97.8057 193.418 98.8039C186.56 108.077 180.12 116.932 174.55 116.932C174.002 116.928 173.458 116.835 172.94 116.658C171.652 116.223 169.51 114.936 169.51 110.363C169.789 105.493 171.313 100.775 173.938 96.6626C177.158 91.2371 181.504 87.5182 186.222 86.0853C187.438 85.5633 188.783 85.4207 190.082 85.6764C191.38 85.9321 192.571 86.574 193.499 87.5182C194.036 88.0906 194.455 88.7637 194.731 89.4987C195.007 90.2336 195.136 91.0159 195.109 91.8006C196.718 89.8043 198.103 87.9528 199.536 86.3751C199.782 86.1435 200.099 86.0028 200.436 85.9764C200.773 85.9501 201.108 86.0396 201.387 86.2302C201.673 86.4691 201.86 86.8048 201.913 87.173C201.967 87.5413 201.883 87.9164 201.677 88.2265C198.457 93.0564 195.237 104.326 197.829 110.234C198.235 111.199 198.88 112.045 199.702 112.693C200.524 113.34 201.497 113.769 202.53 113.937C211.53 115.547 222.252 101.364 228.096 93.7969C228.743 92.8445 229.459 91.9406 230.238 91.0922C230.449 90.8097 230.763 90.6211 231.112 90.567C231.461 90.5128 231.818 90.5973 232.105 90.8024C232.258 90.9123 232.387 91.0518 232.485 91.2127C232.583 91.3737 232.647 91.5527 232.674 91.739C232.701 91.9254 232.691 92.1153 232.643 92.2974C232.595 92.4795 232.51 92.65 232.395 92.7988ZM191.695 94.7951C192.549 92.3802 192.549 90.5127 191.551 89.3696C190.809 88.7047 189.842 88.3477 188.846 88.3714C188.262 88.3972 187.683 88.4946 187.123 88.6612C182.562 90.4507 178.773 93.7836 176.417 98.0794C173.946 101.713 172.556 105.972 172.408 110.363C172.408 111.233 172.553 113.583 173.841 113.937C177.85 115.225 185.562 104.793 191.132 97.0812C191.406 96.8075 191.551 96.5178 191.84 96.228C191.678 96.0297 191.578 95.7882 191.552 95.5334C191.526 95.2785 191.576 95.0218 191.695 94.7951Z" fill="#17171A" stroke="#1D1D1B" stroke-width="3" stroke-miterlimit="10"/>
<path d="M354.509 27.5316C346.942 42.81 326.802 62.8055 308.658 73.5277C311.713 73.6844 314.737 74.2253 317.657 75.1377C320.556 75.9023 323.244 77.3134 325.519 79.2652C327.794 81.217 329.598 83.6588 330.795 86.4073C333.515 93.1208 332.807 101.122 328.653 109.542C324.594 117.409 318.783 124.238 311.668 129.506C306.339 133.628 300.13 136.466 293.524 137.797C292.064 138.066 290.582 138.206 289.097 138.215C284.437 138.324 279.885 136.81 276.217 133.933C270.502 129.216 268.506 120.361 271.21 110.798C273.334 103.501 277.495 96.9612 283.205 91.9455C285.773 89.704 288.606 87.7846 291.641 86.2302C292.204 84.3788 292.929 82.3824 293.637 80.37C291.509 81.024 289.295 81.3603 287.068 81.3682C286.752 81.3857 286.44 81.297 286.18 81.1161C285.92 80.9352 285.729 80.6725 285.636 80.37C285.571 80.0743 285.591 79.7664 285.694 79.4816C285.796 79.1969 285.977 78.9468 286.215 78.76C289.102 77.0274 292.226 75.7257 295.488 74.8962C296.213 73.0447 296.921 71.0484 297.775 69.0521C304.214 52.051 312.055 33.907 317.207 23.9736C317.282 23.8068 317.392 23.658 317.53 23.5371C317.668 23.4163 317.83 23.3262 318.005 23.2729C318.18 23.2195 318.365 23.2042 318.546 23.2279C318.728 23.2515 318.902 23.3137 319.058 23.4101C319.228 23.482 319.38 23.59 319.505 23.7267C319.629 23.8634 319.721 24.0255 319.777 24.2016C319.832 24.3778 319.848 24.5639 319.824 24.7469C319.8 24.9299 319.736 25.1055 319.638 25.2616C314.631 35.1144 306.919 52.8238 300.64 69.3902C299.916 71.1128 299.352 72.8193 298.773 74.22L302.637 73.7853C309.571 70.056 316.122 65.6559 322.197 60.6482C335.48 49.7971 346.91 36.66 351.901 26.3724C354.332 21.5426 356.618 14.7969 353.511 10.6593C349.373 5.23383 339.939 3.94587 326.657 7.23016C312.761 10.8941 299.661 17.0946 288.018 25.5191C275.445 34.6475 267.733 44.0818 266.461 52.2281C265.173 60.0847 270.019 65.2204 273.303 68.6496C273.738 69.0843 274.173 69.6478 274.591 70.0824C274.816 70.3479 274.927 70.6913 274.9 71.0379C274.872 71.3846 274.71 71.7065 274.446 71.9339C274.308 72.0594 274.145 72.1555 273.968 72.2164C273.791 72.2772 273.604 72.3016 273.417 72.2881C273.231 72.2746 273.049 72.2233 272.883 72.1376C272.716 72.0518 272.569 71.9332 272.45 71.789L271.307 70.6459C267.878 66.9269 262.163 61.0828 263.74 51.7935C265.173 42.9388 273.159 32.7961 286.457 23.233C298.383 14.668 311.764 8.33522 325.949 4.54155C340.438 0.967471 350.935 2.67401 355.797 8.9689C358.936 13.2514 358.598 19.5301 354.509 27.5316ZM303.522 76.5222C301.236 77.5204 299.095 78.5186 296.954 79.3718C296.39 81.2394 295.666 82.9459 295.247 84.5236C299.482 82.7066 303.954 81.5031 308.529 80.9496C308.718 80.908 308.913 80.9069 309.102 80.9461C309.291 80.9854 309.469 81.0643 309.626 81.1775C309.782 81.2907 309.913 81.4357 310.009 81.603C310.106 81.7703 310.165 81.9561 310.185 82.1482C310.204 82.3403 310.183 82.5343 310.122 82.7175C310.061 82.9008 309.962 83.069 309.832 83.2113C309.701 83.3535 309.542 83.4665 309.365 83.5429C309.187 83.6192 308.996 83.6572 308.803 83.6543C303.654 84.3748 298.648 85.8844 293.959 88.1299C291.383 96.4212 290.739 100.285 290.82 101.412C291.019 101.534 291.186 101.701 291.309 101.9C291.432 102.098 291.507 102.322 291.528 102.555C291.54 102.746 291.511 102.938 291.443 103.117C291.375 103.296 291.27 103.459 291.134 103.594C290.999 103.73 290.836 103.835 290.657 103.903C290.478 103.971 290.286 104 290.095 103.988C289.772 104.025 289.445 103.963 289.158 103.811C288.87 103.659 288.636 103.423 288.485 103.135C287.761 101.992 287.487 99.9147 290.192 90.8507C290.253 90.6174 290.301 90.3809 290.337 90.1424C282.46 95.0656 276.627 102.67 273.915 111.555C271.484 120.136 273.046 127.847 278.053 131.695C287.197 139.133 300.592 134.271 310.042 127.268C322.761 117.705 333.467 100.559 328.186 87.5664C326.319 82.8493 322.471 79.5167 316.756 77.9068C312.492 76.5176 307.982 76.0457 303.522 76.5222Z" fill="#17171A" stroke="#1D1D1B" stroke-width="3" stroke-miterlimit="10"/>
<path d="M397.35 92.7988C396.786 93.5233 396.062 94.5214 395.209 95.5196C389.075 103.569 377.789 118.51 367.083 116.658C365.566 116.478 364.126 115.89 362.916 114.957C361.705 114.025 360.77 112.782 360.208 111.361C358.486 107.079 359.065 101.09 360.498 95.9382C359.774 96.8075 359.065 97.8057 358.341 98.8039C351.499 108.077 345.059 116.932 339.488 116.932C338.94 116.929 338.397 116.837 337.879 116.658C336.591 116.223 334.449 114.936 334.449 110.363C334.728 105.493 336.252 100.775 338.877 96.6626C342.097 91.2371 346.443 87.5182 351.161 86.0853C352.377 85.5633 353.722 85.4207 355.021 85.6764C356.319 85.9321 357.51 86.574 358.438 87.5182C358.975 88.0906 359.394 88.7637 359.67 89.4987C359.946 90.2336 360.075 91.0159 360.047 91.8006C361.657 89.8043 363.042 87.9528 364.475 86.3751C364.721 86.1435 365.038 86.0028 365.375 85.9764C365.712 85.9501 366.047 86.0396 366.326 86.2302C366.612 86.4691 366.799 86.8048 366.852 87.173C366.906 87.5413 366.822 87.9164 366.616 88.2265C363.477 93.0564 360.176 104.326 362.752 110.234C363.163 111.199 363.811 112.044 364.636 112.691C365.461 113.338 366.435 113.767 367.469 113.937C376.469 115.547 387.175 101.364 393.035 93.7969C393.682 92.8445 394.398 91.9406 395.177 91.0922C395.388 90.8097 395.702 90.6211 396.051 90.567C396.4 90.5128 396.757 90.5973 397.044 90.8024C397.198 90.911 397.329 91.0497 397.428 91.21C397.528 91.3703 397.593 91.5491 397.622 91.7355C397.651 91.9219 397.641 92.1122 397.594 92.2949C397.548 92.4776 397.465 92.649 397.35 92.7988ZM356.65 94.7951C357.504 92.3802 357.504 90.5127 356.506 89.3696C355.764 88.7047 354.797 88.3477 353.801 88.3714C353.217 88.3972 352.638 88.4946 352.078 88.6612C347.517 90.4507 343.728 93.7836 341.372 98.0794C338.894 101.709 337.503 105.971 337.363 110.363C337.363 111.233 337.508 113.583 338.796 113.937C342.789 115.225 350.517 104.793 356.087 97.0812C356.361 96.8075 356.506 96.5178 356.795 96.228C356.633 96.0297 356.533 95.7882 356.507 95.5334C356.481 95.2785 356.531 95.0218 356.65 94.7951Z" fill="#17171A" stroke="#1D1D1B" stroke-width="3" stroke-miterlimit="10"/>
<path d="M466.465 92.7988C464.469 95.3747 447.146 117.511 434.749 117.511C434.032 117.54 433.314 117.491 432.608 117.367C427.472 116.079 425.186 111.651 426.329 105.228C426.456 104.309 426.645 103.4 426.893 102.507C419.326 110.798 408.04 120.796 398.622 120.796C397.663 120.843 396.702 120.745 395.772 120.506C389.767 119.218 387.046 113.937 388.479 106.016C389.724 99.7166 392.524 93.828 396.626 88.8866C401.198 83.3162 406.189 80.4505 410.761 80.8369C411.88 80.9103 412.956 81.2983 413.865 81.9563C414.773 82.6142 415.478 83.5153 415.897 84.5559C416.447 85.7056 416.697 86.9758 416.624 88.2482C416.55 89.5206 416.156 90.7538 415.478 91.8328C415.228 92.1013 414.894 92.2764 414.531 92.3291C414.168 92.3818 413.798 92.309 413.482 92.1226C413.199 91.9108 413.011 91.5968 412.956 91.2479C412.902 90.8989 412.987 90.5426 413.192 90.2551C413.566 89.5584 413.785 88.7895 413.835 88.0005C413.885 87.2116 413.765 86.4211 413.482 85.6828C413.2 85.1147 412.773 84.631 412.244 84.2805C411.716 83.93 411.104 83.7251 410.471 83.6865C406.897 83.2679 402.615 85.8277 398.767 90.6898C394.919 95.2345 392.312 100.698 391.2 106.548C390.476 110.83 390.765 116.401 396.481 117.689C401.198 118.832 407.911 115.966 415.8 109.397C421.831 104.143 427.332 98.3082 432.222 91.9777C432.439 91.6324 432.676 91.2992 432.93 90.9795C432.949 90.9795 432.968 90.9758 432.985 90.9685C433.003 90.9612 433.019 90.9506 433.032 90.9371C433.046 90.9237 433.056 90.9077 433.064 90.8901C433.071 90.8725 433.075 90.8537 433.075 90.8347C436.939 86.1175 441.221 83.6865 444.924 84.1212C445.897 84.2242 446.828 84.5741 447.628 85.1375C448.428 85.701 449.071 86.4595 449.496 87.3411C449.904 88.3515 450.079 89.4411 450.006 90.5284C449.934 91.6157 449.616 92.6725 449.078 93.6199C448.827 93.8923 448.49 94.0698 448.123 94.1226C447.756 94.1754 447.383 94.1002 447.065 93.9096C446.79 93.6959 446.607 93.3839 446.556 93.0389C446.505 92.6939 446.59 92.3426 446.792 92.0582C447.065 91.5059 447.219 90.9023 447.244 90.2866C447.269 89.6708 447.164 89.0567 446.936 88.4841C446.718 88.0629 446.391 87.7078 445.989 87.4559C445.587 87.2039 445.125 87.0642 444.65 87.0513C441.93 86.7776 438.355 88.7739 435.216 92.6217C435.216 92.7666 435.216 92.7666 435.071 92.7666C434.853 93.1119 434.617 93.4451 434.363 93.7648C431.788 97.3047 429.989 101.348 429.082 105.63C428.503 109.059 428.792 113.487 433.22 114.63C442.074 116.626 457.369 100.06 464.211 91.06C464.315 90.8869 464.455 90.7377 464.621 90.6224C464.787 90.507 464.975 90.428 465.174 90.3907C465.373 90.3533 465.577 90.3583 465.773 90.4055C465.97 90.4527 466.154 90.5409 466.314 90.6643C466.474 90.7877 466.606 90.9436 466.702 91.1217C466.797 91.2998 466.854 91.4961 466.868 91.6977C466.882 91.8993 466.854 92.1016 466.784 92.2914C466.715 92.4811 466.606 92.6541 466.465 92.7988Z" fill="#17171A" stroke="#1D1D1B" stroke-width="3" stroke-miterlimit="10"/>
<path d="M498.181 92.7988C497.618 93.5233 496.893 94.5214 496.185 95.5196C490.324 103.086 479.892 116.803 469.765 116.803C469.187 116.827 468.609 116.778 468.043 116.658C466.629 116.524 465.279 116.002 464.143 115.15C463.006 114.298 462.128 113.148 461.603 111.828C458.464 104.696 463.213 91.8328 466.594 86.6971C466.679 86.5366 466.798 86.3963 466.942 86.2855C467.086 86.1748 467.252 86.0962 467.429 86.055C467.606 86.0138 467.789 86.011 467.968 86.0468C468.146 86.0826 468.314 86.1561 468.461 86.2624C468.624 86.362 468.765 86.4939 468.876 86.6501C468.986 86.8062 469.063 86.9832 469.102 87.1702C469.141 87.3571 469.142 87.5502 469.103 87.7374C469.065 87.9246 468.989 88.102 468.88 88.2587C465.885 92.6861 461.458 104.696 464.179 110.685C464.513 111.574 465.093 112.348 465.851 112.919C466.61 113.489 467.515 113.831 468.461 113.905C468.879 114.026 469.315 114.075 469.749 114.05C478.459 114.05 488.457 100.913 493.899 93.7647C494.752 92.7666 495.508 91.7684 496.04 91.06C496.29 90.7915 496.624 90.6164 496.987 90.5637C497.35 90.511 497.72 90.5839 498.036 90.7703C498.187 90.8881 498.312 91.0364 498.402 91.2056C498.493 91.3748 498.546 91.561 498.56 91.7523C498.574 91.9435 498.547 92.1355 498.482 92.3158C498.416 92.4961 498.314 92.6606 498.181 92.7988ZM468.477 79.0981C468.353 78.8984 468.3 78.6627 468.327 78.429C468.353 78.1954 468.457 77.9774 468.622 77.8102C468.724 76.5093 469.296 75.29 470.232 74.381C470.619 73.9972 471.096 73.7176 471.62 73.5683C472.143 73.4191 472.696 73.4051 473.227 73.5277C474.241 73.6565 476.237 74.0912 476.447 75.669C476.656 77.2467 475.159 77.9551 471.295 79.5167V79.6616C471.338 79.8458 471.336 80.0376 471.288 80.2208C471.241 80.4039 471.151 80.573 471.024 80.7136C470.898 80.8543 470.739 80.9623 470.562 81.0286C470.385 81.0949 470.195 81.1175 470.007 81.0945C469.651 81.0997 469.307 80.9695 469.044 80.7304C468.781 80.4912 468.619 80.1609 468.59 79.8065V79.0981H468.477Z" fill="#17171A" stroke="#1D1D1B" stroke-width="3" stroke-miterlimit="10"/>
<path d="M636.008 29.6728C636.144 38.8454 635.182 48.0013 633.143 56.9453C628.715 76.8603 620.005 97.5159 609.75 112.376C605.21 119.302 599.456 125.35 592.765 130.23C588.779 133.062 584.048 134.657 579.161 134.818C577.468 134.806 575.784 134.568 574.154 134.11C569.872 132.967 566.442 129.828 564.028 124.692C560.019 116.401 558.731 102.974 560.453 86.6971C561.431 77.7161 563.149 68.8312 565.589 60.133C563.883 63.5622 561.87 67.1201 560.019 70.8391C554.738 80.692 549.313 90.8346 544.885 98.5463C537.592 111.12 535.596 112.263 534.163 112.408H534.083C533.642 112.398 533.212 112.275 532.834 112.049C532.456 111.823 532.143 111.503 531.925 111.12C531.217 109.977 530.508 107.256 532.505 97.9828C534.297 90.1011 536.538 82.3285 539.218 74.703C545.642 55.1034 553.167 35.8823 561.758 17.1313C561.833 16.9633 561.94 16.8116 562.074 16.685C562.207 16.5585 562.365 16.4595 562.537 16.3937C562.708 16.3279 562.892 16.2966 563.076 16.3017C563.26 16.3067 563.441 16.3479 563.609 16.423C563.777 16.498 563.929 16.6054 564.055 16.7391C564.182 16.8728 564.281 17.03 564.347 17.202C564.412 17.3739 564.444 17.5571 564.439 17.7411C564.434 17.9251 564.392 18.1063 564.317 18.2744C555.65 37.1623 548.024 56.5106 541.472 76.2324C538.478 85.5218 536.32 93.5232 535.032 99.3673C533.6 106.516 533.889 108.802 534.163 109.365C535.032 108.802 537.174 106.145 542.889 96.4855C547.171 88.9188 552.452 78.921 557.378 69.3419C562.305 59.7627 567.376 50.6343 571.24 44.0657C571.316 43.8989 571.426 43.7501 571.564 43.6292C571.701 43.5084 571.863 43.4183 572.038 43.365C572.214 43.3117 572.398 43.2963 572.58 43.32C572.761 43.3437 572.936 43.4058 573.092 43.5022C573.381 43.6657 573.6 43.9301 573.707 44.2449C573.814 44.5597 573.801 44.9028 573.671 45.2088C563.673 68.4886 558.248 106.387 566.378 123.484C568.519 127.767 571.385 130.472 574.814 131.325C584.812 134.19 596.371 126.769 607.383 110.766C617.365 96.2763 625.946 75.9104 630.373 56.3496C634.801 35.7745 633.947 19.3209 627.942 11.0779C623.515 4.92794 616.238 3.2214 606.369 6.2481C606.192 6.31483 606.003 6.34566 605.813 6.33881C605.624 6.33196 605.437 6.28757 605.265 6.2082C605.093 6.12883 604.938 6.01606 604.81 5.87644C604.682 5.73682 604.582 5.57312 604.518 5.39483C604.434 5.01781 604.489 4.62342 604.673 4.28357C604.856 3.94371 605.155 3.68102 605.516 3.54339C619.377 -0.610271 626.445 4.39666 630.229 9.38749C633.722 14.0724 635.509 20.963 636.008 29.6728Z" fill="#17171A" stroke="#1D1D1B" stroke-width="3" stroke-miterlimit="10"/>
<path d="M675.13 93.0886C669.849 97.0812 656.567 98.8039 648.131 97.371C648.011 97.8387 647.963 98.3217 647.986 98.8039C646.988 105.083 643.285 111.683 638.713 114.791C637.106 116.017 635.162 116.719 633.143 116.803C632.602 116.83 632.06 116.781 631.533 116.658C627.25 115.805 625.254 110.09 626.542 102.169C628.152 92.5895 633.964 83.3162 642.11 84.3144C642.306 84.3201 642.498 84.3684 642.674 84.456C642.849 84.5435 643.004 84.6682 643.126 84.8213C643.249 84.9745 643.337 85.1525 643.384 85.3429C643.43 85.5334 643.435 85.7318 643.398 85.9243C643.331 86.2869 643.125 86.6091 642.825 86.8225C642.524 87.0359 642.152 87.1238 641.788 87.0674C635.348 86.359 630.518 94.6502 629.214 102.636C628.361 108.786 629.504 113.358 632.08 113.905C632.966 114.035 633.869 113.974 634.73 113.727C635.591 113.48 636.389 113.052 637.071 112.472C641.08 109.768 644.364 103.907 645.121 98.337C645.238 97.8089 645.287 97.2677 645.265 96.727C644.02 96.3855 642.854 95.8 641.836 95.0044C641.12 94.4517 640.625 93.6606 640.442 92.7745C640.259 91.8884 640.399 90.966 640.838 90.1746V90.0458C642.448 87.6148 644.058 87.9045 644.686 88.1782C646.553 88.7578 647.696 91.3176 647.906 94.4731C655.344 95.8899 668.481 94.618 673.343 90.7542C673.652 90.545 674.028 90.4588 674.397 90.5124C674.766 90.566 675.102 90.7556 675.339 91.0439C675.464 91.1898 675.559 91.3597 675.616 91.5432C675.674 91.7266 675.693 91.9199 675.674 92.1112C675.654 92.3025 675.596 92.4878 675.502 92.6558C675.409 92.8239 675.282 92.9711 675.13 93.0886ZM645.169 93.7969C645.099 92.6797 644.644 91.6212 643.881 90.8024C643.881 90.9473 643.591 91.0922 643.317 91.5108C643.044 91.9294 643.172 92.509 643.736 92.9437C644.171 93.2935 644.654 93.5807 645.169 93.7969Z" fill="#17171A" stroke="#1D1D1B" stroke-width="3" stroke-miterlimit="10"/>
<path d="M741.122 92.509C737.962 98.3895 733.965 103.78 729.256 108.512C722.269 115.66 715.684 118.365 710.549 116.658C705.977 115.048 703.401 109.51 703.272 102.169C695.077 112.279 687.832 117.222 681.988 117.222C680.773 117.251 679.562 117.06 678.414 116.658C672.989 114.517 670.703 107.224 672.409 96.5178C674.019 85.3769 679.412 69.8088 686.561 54.949C691.986 43.6793 699.553 30.9608 704.125 29.0932C704.639 28.8738 705.202 28.7984 705.755 28.875C706.308 28.9515 706.83 29.1773 707.265 29.5279C707.744 29.9827 708.047 30.5933 708.118 31.2506C708.552 35.9516 700.068 52.1798 695.126 61.5175C687.704 75.2343 679.557 88.3714 675.806 92.7988C675.532 94.2316 675.243 95.5196 675.098 96.9363C673.665 106.081 675.243 112.376 679.38 113.937C684.387 115.934 690.811 111.088 695.383 106.805C698.307 103.86 701.069 100.759 703.658 97.5159C703.658 96.9363 703.803 96.5178 703.803 95.906C705.912 85.8069 709.423 76.0526 714.236 66.927C716.087 63.2241 722.511 51.0851 726.938 48.9439C727.345 48.6863 727.817 48.5495 728.298 48.5495C728.78 48.5495 729.252 48.6863 729.659 48.9439C731.092 49.6522 731.269 51.6486 729.949 55.6573C728.698 59.4773 727.17 63.2008 725.376 66.7982C720.114 77.9822 713.739 88.6079 706.347 98.5141C705.494 106.371 707.49 112.505 711.483 113.937C720.917 117.157 734.762 99.0937 738.771 91.2371C738.958 90.934 739.249 90.7085 739.589 90.602C739.929 90.4956 740.296 90.5153 740.623 90.6576C740.782 90.741 740.923 90.8566 741.036 90.9971C741.148 91.1376 741.231 91.3 741.278 91.4739C741.325 91.6479 741.335 91.8297 741.308 92.0078C741.281 92.186 741.218 92.3566 741.122 92.509ZM677.706 85.5218C681.843 79.2269 687.704 69.4224 692.984 59.5212C702.982 41.1034 705.413 33.5367 705.268 31.6691C705.123 31.6691 704.833 31.814 704.415 32.2487C697.975 36.821 683.985 63.53 677.706 85.5218ZM707.554 92.2353C711.539 86.4365 715.209 80.4282 718.55 74.2361C724.99 62.3869 728.113 53.9508 728.113 51.5198C726.697 52.2442 722.688 56.5267 717.407 66.9431C713.122 74.949 709.814 83.4405 707.554 92.2353Z" fill="#17171A" stroke="#1D1D1B" stroke-width="3" stroke-miterlimit="10"/>
<path d="M832.229 92.7988C818.946 107.803 809.947 113.937 803.958 112.118C798.532 110.508 797.389 103.119 796.52 97.6286C796.374 95.8256 795.99 94.0499 795.377 92.348C794.958 92.2031 792.962 91.6235 785.524 98.0472C780.022 102.817 774.823 107.925 769.956 113.342C769.829 113.479 769.674 113.587 769.502 113.659C769.33 113.732 769.144 113.766 768.958 113.76C768.587 113.74 768.234 113.592 767.959 113.342C766.35 111.732 767.67 108.625 770.101 102.764C770.954 100.478 771.952 98.1921 772.532 96.3246C772.897 95.4186 773.088 94.4518 773.095 93.475C771.093 95.3488 769.191 97.3263 767.396 99.3996C760.811 106.838 751.828 116.835 744.39 116.835C743.817 116.859 743.244 116.81 742.683 116.69C741.27 116.415 739.951 115.785 738.849 114.858C737.748 113.931 736.901 112.739 736.388 111.394C733.169 103.972 738.256 91.3981 741.395 86.5522C741.632 86.2638 741.968 86.0742 742.337 86.0206C742.707 85.967 743.083 86.0533 743.392 86.2624C743.673 86.4713 743.861 86.7825 743.916 87.1288C743.97 87.4751 743.886 87.8289 743.681 88.1138C740.687 92.6861 736.388 104.213 738.964 110.395C739.305 111.304 739.882 112.107 740.634 112.72C741.386 113.334 742.288 113.737 743.247 113.889C743.682 113.889 743.971 114.034 744.39 114.034C750.685 114.034 759.395 104.181 765.319 97.4676C767.187 95.4713 768.893 93.6038 770.149 92.3319C771.147 91.3176 772.999 89.6111 774.431 90.6093C777.297 92.4607 775.14 97.7574 772.58 103.891C772 105.179 771.292 106.886 770.712 108.319C783.721 94.8917 792.576 87.3894 796.858 90.0458C798.291 91.0439 798.565 93.475 799.289 97.0329C799.997 101.863 800.996 108.303 804.715 109.462C807.934 110.315 815.002 107.852 830.136 90.899C830.392 90.6328 830.737 90.4707 831.106 90.444C831.474 90.4172 831.84 90.5277 832.132 90.7542C832.282 90.8756 832.406 91.0275 832.493 91.2C832.581 91.3725 832.631 91.5616 832.64 91.7548C832.649 91.948 832.617 92.1409 832.546 92.3209C832.475 92.5008 832.367 92.6637 832.229 92.7988ZM743.247 79.0981C743.128 78.8967 743.078 78.6623 743.104 78.43C743.13 78.1977 743.231 77.9802 743.392 77.8102C743.5 76.4687 744.068 75.2058 745.002 74.2361C745.417 73.9025 745.901 73.6657 746.419 73.5432C746.937 73.4206 747.476 73.4153 747.996 73.5277C748.994 73.6565 750.991 73.9463 751.136 75.5241C751.28 77.1018 749.848 77.9551 746.145 79.5167V79.6616C746.141 80.0403 745.988 80.4024 745.72 80.6702C745.453 80.938 745.091 81.0903 744.712 81.0945C744.355 81.1 744.009 80.9704 743.743 80.7315C743.477 80.4927 743.311 80.1623 743.279 79.8065V79.0981H743.247Z" fill="#17171A" stroke="#1D1D1B" stroke-width="3" stroke-miterlimit="10"/>
<path d="M882.362 92.9598C873.758 101.596 865.921 110.964 858.937 120.957C856.362 130.101 853.367 138.956 851.515 144.381C844.222 164.651 833.806 187.947 828.091 193.227C827.367 193.968 826.402 194.425 825.37 194.515C825.078 194.538 824.785 194.488 824.517 194.37C823.985 194.117 823.524 193.736 823.175 193.262C822.827 192.787 822.602 192.233 822.52 191.649C821.377 185.66 827.656 168.515 838.362 148.954C843.712 138.854 849.725 129.119 856.361 119.814C859.082 109.671 860.934 100.382 860.789 93.813C860.789 90.3839 860.225 86.1014 857.569 85.6828C855.138 85.1032 852.433 87.5342 849.712 91.1083C850.008 92.2765 850.154 93.4774 850.147 94.6824C850.143 95.0596 849.99 95.42 849.722 95.6852C849.453 95.9504 849.091 96.0992 848.714 96.0992C848.006 95.9543 847.281 95.3908 847.426 94.6824V94.3926C845.816 96.6787 844.206 99.3835 842.854 101.814C837.718 110.524 833.436 117.914 828.364 116.529C825.37 115.821 823.663 112.666 823.535 108.238C823.39 99.6732 828.96 88.6773 838.25 85.8116C839.641 85.3051 841.134 85.1445 842.601 85.3437C844.068 85.5428 845.464 86.0957 846.67 86.9547C847.266 87.3608 847.807 87.8424 848.279 88.3875C851.274 84.6846 854.558 82.2536 858.132 82.8171C859.742 83.1069 861.835 84.25 862.962 87.9689C864.572 93.6681 863.252 103.537 860.821 113.728C866.729 105.65 873.276 98.0589 880.398 91.0278C880.526 90.8914 880.681 90.7826 880.852 90.7082C881.024 90.6339 881.209 90.5955 881.396 90.5955C881.583 90.5955 881.768 90.6339 881.94 90.7082C882.112 90.7826 882.266 90.8914 882.394 91.0278C882.642 91.2905 882.777 91.6395 882.771 92.0003C882.765 92.3612 882.618 92.7055 882.362 92.9598ZM853.802 128.379C849.229 135.382 844.802 142.659 840.793 150.226C829.363 171.155 824.372 186.659 825.225 191.086C825.37 191.36 825.37 191.505 825.515 191.649C825.95 191.36 828.236 189.798 833.371 180.09C837.904 171.075 841.956 161.826 845.51 152.383C848.36 144.929 851.371 136.509 853.802 128.379ZM846.412 90.6575C846.086 90.0494 845.587 89.551 844.979 89.2247C843.98 88.409 842.709 88.0007 841.421 88.0816C840.648 88.0424 839.874 88.1405 839.135 88.3714C830.554 91.0922 826.255 101.653 826.416 108.222C826.416 109.655 826.706 113.229 829.137 113.792C831.987 114.662 836.414 107.079 840.407 100.366C842.371 97.0812 844.367 93.652 846.412 90.6575Z" fill="#17171A" stroke="#1D1D1B" stroke-width="3" stroke-miterlimit="10"/>
<path d="M915.785 92.7988C911.211 98.6403 906.09 104.031 900.49 108.898C894.051 114.179 888.206 116.948 883.216 116.948C882.137 116.932 881.061 116.841 879.996 116.674C874.699 115.241 872.284 110.669 873.427 104.246C874.438 99.4466 876.705 95.0021 879.996 91.3659C883.699 87.2284 888.045 85.232 891.845 85.6667C892.655 85.6427 893.455 85.8592 894.143 86.2889C894.83 86.7187 895.375 87.3425 895.709 88.0816C896.417 89.9492 895.419 92.3802 892.988 95.2298C889.269 99.5123 882.556 103.376 877.855 102.088C877.565 102.088 877.275 101.798 876.985 101.653C876.686 102.641 876.45 103.647 876.277 104.664C875.697 107.659 875.568 112.714 880.704 113.937C885.421 115.08 891.555 112.649 898.558 106.805C904.016 102.028 909.032 96.7687 913.547 91.0922C913.759 90.8097 914.073 90.6211 914.422 90.567C914.771 90.5128 915.127 90.5973 915.415 90.8025C915.572 90.9075 915.707 91.0431 915.811 91.2011C915.915 91.3591 915.987 91.5364 916.021 91.7225C916.056 91.9086 916.052 92.0997 916.012 92.2845C915.971 92.4694 915.894 92.6443 915.785 92.7988ZM878.064 99.3996H878.611C882.04 100.398 887.756 96.9685 891.04 93.4106C892.746 91.2693 893.326 89.6916 893.181 89.1281C892.974 88.9067 892.725 88.7286 892.449 88.6042C892.173 88.4798 891.874 88.4116 891.571 88.4036C886.5 87.8079 880.929 93.2335 878.064 99.3996Z" fill="#17171A" stroke="#1D1D1B" stroke-width="3" stroke-miterlimit="10"/>
<path d="M961.765 92.6539C957.129 99.4394 952.075 105.929 946.631 112.086C937.487 122.379 930.344 127.52 925.203 127.509C923.892 127.551 922.598 127.203 921.484 126.511C915.35 122.502 918.264 115.805 920.631 109.655C921.918 106.435 923.351 103.215 923.206 100.655C923.062 97.0812 920.631 96.0831 917.91 94.7951C915.693 94.179 913.755 92.8207 912.42 90.9473C909.57 85.0871 917.427 77.0857 918.28 76.2324C918.409 76.098 918.564 75.9911 918.736 75.9181C918.907 75.845 919.092 75.8074 919.278 75.8074C919.465 75.8074 919.649 75.845 919.821 75.9181C919.992 75.9911 920.147 76.098 920.276 76.2324C920.413 76.3604 920.522 76.515 920.596 76.6867C920.67 76.8584 920.709 77.0435 920.709 77.2306C920.709 77.4177 920.67 77.6028 920.596 77.7745C920.522 77.9462 920.413 78.1008 920.276 78.2288C918.28 80.2251 913.273 86.2785 914.996 89.6594C915.968 90.9098 917.317 91.8131 918.844 92.2353C922.063 93.5232 925.702 95.2298 925.992 100.51C926.137 103.73 924.559 107.224 923.142 110.798C920.421 117.367 918.988 121.649 922.852 124.08C926.716 126.511 934.283 121.649 944.409 110.234C949.838 104.2 954.851 97.8046 959.414 91.0922C959.511 90.9261 959.641 90.7819 959.796 90.6687C959.952 90.5556 960.129 90.4761 960.317 90.4352C960.504 90.3943 960.699 90.393 960.887 90.4312C961.075 90.4695 961.254 90.5466 961.41 90.6575C961.709 90.8852 961.911 91.2169 961.977 91.5866C962.042 91.9564 961.967 92.3373 961.765 92.6539Z" fill="#17171A" stroke="#1D1D1B" stroke-width="3" stroke-miterlimit="10"/>
</svg>
