<svg width="1920" height="1078" viewBox="0 0 1920 1078" fill="none" xmlns="http://www.w3.org/2000/svg">
<rect width="1920" height="1078" fill="#4C74C2"/>
<path d="M775.648 1040.29C773.392 1040.29 771.544 1039.77 770.104 1038.74C768.688 1037.68 767.896 1036.26 767.728 1034.46H770.32C770.44 1035.56 770.956 1036.46 771.868 1037.16C772.804 1037.83 774.052 1038.16 775.612 1038.16C776.98 1038.16 778.048 1037.84 778.816 1037.19C779.608 1036.54 780.004 1035.74 780.004 1034.78C780.004 1034.11 779.788 1033.56 779.356 1033.12C778.924 1032.69 778.372 1032.36 777.7 1032.12C777.052 1031.85 776.164 1031.58 775.036 1031.29C773.572 1030.9 772.384 1030.52 771.472 1030.14C770.56 1029.75 769.78 1029.19 769.132 1028.44C768.508 1027.68 768.196 1026.66 768.196 1025.38C768.196 1024.42 768.484 1023.54 769.06 1022.72C769.636 1021.9 770.452 1021.26 771.508 1020.78C772.564 1020.3 773.764 1020.06 775.108 1020.06C777.22 1020.06 778.924 1020.6 780.22 1021.68C781.516 1022.73 782.212 1024.2 782.308 1026.07H779.788C779.716 1024.92 779.26 1023.99 778.42 1023.3C777.604 1022.58 776.476 1022.22 775.036 1022.22C773.764 1022.22 772.732 1022.52 771.94 1023.12C771.148 1023.72 770.752 1024.46 770.752 1025.35C770.752 1026.12 770.98 1026.75 771.436 1027.26C771.916 1027.74 772.504 1028.12 773.2 1028.41C773.896 1028.67 774.832 1028.97 776.008 1029.31C777.424 1029.69 778.552 1030.06 779.392 1030.42C780.232 1030.78 780.952 1031.31 781.552 1032.01C782.152 1032.7 782.464 1033.63 782.488 1034.78C782.488 1035.84 782.2 1036.78 781.624 1037.62C781.048 1038.44 780.244 1039.09 779.212 1039.57C778.18 1040.05 776.992 1040.29 775.648 1040.29ZM786.08 1030.17C786.08 1028.13 786.488 1026.36 787.304 1024.84C788.12 1023.31 789.248 1022.13 790.688 1021.32C792.128 1020.48 793.772 1020.06 795.62 1020.06C798.044 1020.06 800.036 1020.66 801.596 1021.86C803.18 1023.06 804.2 1024.69 804.656 1026.75H801.956C801.62 1025.34 800.888 1024.23 799.76 1023.44C798.656 1022.62 797.276 1022.22 795.62 1022.22C794.3 1022.22 793.112 1022.52 792.056 1023.12C791 1023.72 790.16 1024.62 789.536 1025.82C788.936 1026.99 788.636 1028.44 788.636 1030.17C788.636 1031.9 788.936 1033.36 789.536 1034.56C790.16 1035.76 791 1036.66 792.056 1037.26C793.112 1037.86 794.3 1038.16 795.62 1038.16C797.276 1038.16 798.656 1037.77 799.76 1036.98C800.888 1036.16 801.62 1035.03 801.956 1033.59H804.656C804.2 1035.61 803.18 1037.23 801.596 1038.45C800.012 1039.68 798.02 1040.29 795.62 1040.29C793.772 1040.29 792.128 1039.88 790.688 1039.06C789.248 1038.22 788.12 1037.05 787.304 1035.54C786.488 1034 786.08 1032.21 786.08 1030.17ZM811.83 1023.84C812.382 1022.61 813.222 1021.66 814.35 1020.99C815.502 1020.32 816.906 1019.98 818.562 1019.98V1022.61H817.878C816.054 1022.61 814.59 1023.1 813.486 1024.09C812.382 1025.07 811.83 1026.72 811.83 1029.02V1040H809.31V1020.34H811.83V1023.84ZM830.957 1040.29C829.109 1040.29 827.441 1039.88 825.953 1039.06C824.489 1038.22 823.325 1037.05 822.461 1035.54C821.621 1034 821.201 1032.21 821.201 1030.17C821.201 1028.13 821.633 1026.36 822.497 1024.84C823.361 1023.31 824.537 1022.13 826.025 1021.32C827.513 1020.48 829.181 1020.06 831.029 1020.06C832.877 1020.06 834.545 1020.48 836.033 1021.32C837.545 1022.13 838.721 1023.31 839.561 1024.84C840.425 1026.36 840.857 1028.13 840.857 1030.17C840.857 1032.19 840.425 1033.96 839.561 1035.5C838.697 1037.04 837.509 1038.22 835.997 1039.06C834.485 1039.88 832.805 1040.29 830.957 1040.29ZM830.957 1038.09C832.253 1038.09 833.453 1037.8 834.557 1037.23C835.661 1036.63 836.549 1035.74 837.221 1034.56C837.917 1033.36 838.265 1031.9 838.265 1030.17C838.265 1028.44 837.929 1026.99 837.257 1025.82C836.585 1024.62 835.697 1023.73 834.593 1023.15C833.489 1022.55 832.289 1022.25 830.993 1022.25C829.697 1022.25 828.497 1022.55 827.393 1023.15C826.289 1023.73 825.401 1024.62 824.729 1025.82C824.081 1026.99 823.757 1028.44 823.757 1030.17C823.757 1031.9 824.081 1033.36 824.729 1034.56C825.401 1035.74 826.277 1036.63 827.357 1037.23C828.461 1037.8 829.661 1038.09 830.957 1038.09ZM847.97 1013.36V1040H845.45V1013.36H847.97ZM856.197 1013.36V1040H853.677V1013.36H856.197ZM870.63 1030.14C870.63 1028.12 871.038 1026.36 871.854 1024.84C872.67 1023.31 873.786 1022.13 875.202 1021.32C876.642 1020.48 878.262 1020.06 880.062 1020.06C881.79 1020.06 883.35 1020.48 884.742 1021.32C886.134 1022.16 887.154 1023.25 887.802 1024.59V1013.36H890.322V1040H887.802V1035.61C887.202 1036.98 886.218 1038.1 884.85 1038.99C883.482 1039.86 881.874 1040.29 880.026 1040.29C878.226 1040.29 876.606 1039.87 875.166 1039.03C873.75 1038.19 872.634 1037 871.818 1035.46C871.026 1033.93 870.63 1032.15 870.63 1030.14ZM887.802 1030.17C887.802 1028.59 887.478 1027.2 886.83 1026C886.182 1024.8 885.294 1023.87 884.166 1023.22C883.062 1022.58 881.838 1022.25 880.494 1022.25C879.102 1022.25 877.854 1022.56 876.75 1023.19C875.646 1023.81 874.77 1024.72 874.122 1025.92C873.498 1027.1 873.186 1028.5 873.186 1030.14C873.186 1031.74 873.498 1033.16 874.122 1034.38C874.77 1035.58 875.646 1036.51 876.75 1037.16C877.854 1037.78 879.102 1038.09 880.494 1038.09C881.838 1038.09 883.062 1037.77 884.166 1037.12C885.294 1036.47 886.182 1035.55 886.83 1034.35C887.478 1033.15 887.802 1031.76 887.802 1030.17ZM904.679 1040.29C902.831 1040.29 901.163 1039.88 899.675 1039.06C898.211 1038.22 897.047 1037.05 896.183 1035.54C895.343 1034 894.923 1032.21 894.923 1030.17C894.923 1028.13 895.355 1026.36 896.219 1024.84C897.083 1023.31 898.259 1022.13 899.747 1021.32C901.235 1020.48 902.903 1020.06 904.751 1020.06C906.599 1020.06 908.267 1020.48 909.755 1021.32C911.267 1022.13 912.443 1023.31 913.283 1024.84C914.147 1026.36 914.579 1028.13 914.579 1030.17C914.579 1032.19 914.147 1033.96 913.283 1035.5C912.419 1037.04 911.231 1038.22 909.719 1039.06C908.207 1039.88 906.527 1040.29 904.679 1040.29ZM904.679 1038.09C905.975 1038.09 907.175 1037.8 908.279 1037.23C909.383 1036.63 910.271 1035.74 910.943 1034.56C911.639 1033.36 911.987 1031.9 911.987 1030.17C911.987 1028.44 911.651 1026.99 910.979 1025.82C910.307 1024.62 909.419 1023.73 908.315 1023.15C907.211 1022.55 906.011 1022.25 904.715 1022.25C903.419 1022.25 902.219 1022.55 901.115 1023.15C900.011 1023.73 899.123 1024.62 898.451 1025.82C897.803 1026.99 897.479 1028.44 897.479 1030.17C897.479 1031.9 897.803 1033.36 898.451 1034.56C899.123 1035.74 899.999 1036.63 901.079 1037.23C902.183 1037.8 903.383 1038.09 904.679 1038.09ZM945.093 1020.34L938.937 1040H936.417L930.981 1023.51L925.545 1040H922.989L916.833 1020.34H919.389L924.285 1037.44L929.793 1020.34H932.313L937.749 1037.48L942.609 1020.34H945.093ZM957.744 1019.98C960.096 1019.98 962.016 1020.72 963.504 1022.18C964.992 1023.62 965.736 1025.72 965.736 1028.48V1040H963.252V1028.77C963.252 1026.63 962.712 1025 961.632 1023.87C960.576 1022.74 959.124 1022.18 957.276 1022.18C955.38 1022.18 953.868 1022.78 952.74 1023.98C951.612 1025.18 951.048 1026.94 951.048 1029.27V1040H948.528V1020.34H951.048V1023.69C951.672 1022.49 952.572 1021.58 953.748 1020.96C954.924 1020.31 956.256 1019.98 957.744 1019.98ZM980.037 1030.14C980.037 1028.12 980.433 1026.36 981.225 1024.84C982.041 1023.31 983.157 1022.13 984.573 1021.32C986.013 1020.48 987.633 1020.06 989.433 1020.06C991.305 1020.06 992.913 1020.49 994.257 1021.35C995.625 1022.22 996.609 1023.32 997.209 1024.66V1020.34H999.729V1040H997.209V1035.64C996.585 1036.99 995.589 1038.1 994.221 1038.99C992.877 1039.86 991.269 1040.29 989.397 1040.29C987.621 1040.29 986.013 1039.87 984.573 1039.03C983.157 1038.19 982.041 1037 981.225 1035.46C980.433 1033.93 980.037 1032.15 980.037 1030.14ZM997.209 1030.17C997.209 1028.59 996.885 1027.2 996.237 1026C995.589 1024.8 994.701 1023.87 993.573 1023.22C992.469 1022.58 991.245 1022.25 989.901 1022.25C988.509 1022.25 987.261 1022.56 986.157 1023.19C985.053 1023.81 984.177 1024.72 983.529 1025.92C982.905 1027.1 982.593 1028.5 982.593 1030.14C982.593 1031.74 982.905 1033.16 983.529 1034.38C984.177 1035.58 985.053 1036.51 986.157 1037.16C987.261 1037.78 988.509 1038.09 989.901 1038.09C991.245 1038.09 992.469 1037.77 993.573 1037.12C994.701 1036.47 995.589 1035.55 996.237 1034.35C996.885 1033.15 997.209 1031.76 997.209 1030.17ZM1014.7 1019.98C1017.05 1019.98 1018.97 1020.72 1020.46 1022.18C1021.95 1023.62 1022.69 1025.72 1022.69 1028.48V1040H1020.21V1028.77C1020.21 1026.63 1019.67 1025 1018.59 1023.87C1017.53 1022.74 1016.08 1022.18 1014.23 1022.18C1012.33 1022.18 1010.82 1022.78 1009.69 1023.98C1008.57 1025.18 1008 1026.94 1008 1029.27V1040H1005.48V1020.34H1008V1023.69C1008.63 1022.49 1009.53 1021.58 1010.7 1020.96C1011.88 1020.31 1013.21 1019.98 1014.7 1019.98ZM1027.11 1030.14C1027.11 1028.12 1027.52 1026.36 1028.33 1024.84C1029.15 1023.31 1030.27 1022.13 1031.68 1021.32C1033.12 1020.48 1034.74 1020.06 1036.54 1020.06C1038.27 1020.06 1039.83 1020.48 1041.22 1021.32C1042.61 1022.16 1043.63 1023.25 1044.28 1024.59V1013.36H1046.8V1040H1044.28V1035.61C1043.68 1036.98 1042.7 1038.1 1041.33 1038.99C1039.96 1039.86 1038.35 1040.29 1036.51 1040.29C1034.71 1040.29 1033.09 1039.87 1031.65 1039.03C1030.23 1038.19 1029.11 1037 1028.3 1035.46C1027.51 1033.93 1027.11 1032.15 1027.11 1030.14ZM1044.28 1030.17C1044.28 1028.59 1043.96 1027.2 1043.31 1026C1042.66 1024.8 1041.77 1023.87 1040.65 1023.22C1039.54 1022.58 1038.32 1022.25 1036.97 1022.25C1035.58 1022.25 1034.33 1022.56 1033.23 1023.19C1032.13 1023.81 1031.25 1024.72 1030.6 1025.92C1029.98 1027.1 1029.67 1028.5 1029.67 1030.14C1029.67 1031.74 1029.98 1033.16 1030.6 1034.38C1031.25 1035.58 1032.13 1036.51 1033.23 1037.16C1034.33 1037.78 1035.58 1038.09 1036.97 1038.09C1038.32 1038.09 1039.54 1037.77 1040.65 1037.12C1041.77 1036.47 1042.66 1035.55 1043.31 1034.35C1043.96 1033.15 1044.28 1031.76 1044.28 1030.17ZM1073.05 1040L1064.95 1031.18V1040H1062.43V1013.36H1064.95V1029.13L1072.87 1020.34H1076.4L1067.08 1030.14L1076.47 1040H1073.05ZM1088.95 1019.98C1091.3 1019.98 1093.22 1020.72 1094.71 1022.18C1096.2 1023.62 1096.94 1025.72 1096.94 1028.48V1040H1094.46V1028.77C1094.46 1026.63 1093.92 1025 1092.84 1023.87C1091.78 1022.74 1090.33 1022.18 1088.48 1022.18C1086.58 1022.18 1085.07 1022.78 1083.94 1023.98C1082.82 1025.18 1082.25 1026.94 1082.25 1029.27V1040H1079.73V1020.34H1082.25V1023.69C1082.88 1022.49 1083.78 1021.58 1084.95 1020.96C1086.13 1020.31 1087.46 1019.98 1088.95 1019.98ZM1111.12 1040.29C1109.27 1040.29 1107.6 1039.88 1106.11 1039.06C1104.65 1038.22 1103.48 1037.05 1102.62 1035.54C1101.78 1034 1101.36 1032.21 1101.36 1030.17C1101.36 1028.13 1101.79 1026.36 1102.66 1024.84C1103.52 1023.31 1104.7 1022.13 1106.18 1021.32C1107.67 1020.48 1109.34 1020.06 1111.19 1020.06C1113.04 1020.06 1114.7 1020.48 1116.19 1021.32C1117.7 1022.13 1118.88 1023.31 1119.72 1024.84C1120.58 1026.36 1121.02 1028.13 1121.02 1030.17C1121.02 1032.19 1120.58 1033.96 1119.72 1035.5C1118.86 1037.04 1117.67 1038.22 1116.16 1039.06C1114.64 1039.88 1112.96 1040.29 1111.12 1040.29ZM1111.12 1038.09C1112.41 1038.09 1113.61 1037.8 1114.72 1037.23C1115.82 1036.63 1116.71 1035.74 1117.38 1034.56C1118.08 1033.36 1118.42 1031.9 1118.42 1030.17C1118.42 1028.44 1118.09 1026.99 1117.42 1025.82C1116.74 1024.62 1115.86 1023.73 1114.75 1023.15C1113.65 1022.55 1112.45 1022.25 1111.15 1022.25C1109.86 1022.25 1108.66 1022.55 1107.55 1023.15C1106.45 1023.73 1105.56 1024.62 1104.89 1025.82C1104.24 1026.99 1103.92 1028.44 1103.92 1030.17C1103.92 1031.9 1104.24 1033.36 1104.89 1034.56C1105.56 1035.74 1106.44 1036.63 1107.52 1037.23C1108.62 1037.8 1109.82 1038.09 1111.12 1038.09ZM1151.53 1020.34L1145.37 1040H1142.85L1137.42 1023.51L1131.98 1040H1129.43L1123.27 1020.34H1125.83L1130.72 1037.44L1136.23 1020.34H1138.75L1144.19 1037.48L1149.05 1020.34H1151.53Z" fill="white"/>
<path d="M450.288 766.997H414.288L408.816 783.557H379.152L416.16 682.037H448.704L485.568 783.557H455.76L450.288 766.997ZM443.232 745.397L432.288 712.565L421.488 745.397H443.232ZM522.991 676.997V783.557H494.767V676.997H522.991ZM567.288 714.005C569.496 710.165 572.616 707.189 576.648 705.077C580.68 702.869 585.432 701.765 590.904 701.765C597.336 701.765 603.144 703.445 608.328 706.805C613.608 710.165 617.736 714.965 620.712 721.205C623.784 727.445 625.32 734.741 625.32 743.093C625.32 751.445 623.784 758.789 620.712 765.125C617.736 771.365 613.608 776.165 608.328 779.525C603.144 782.885 597.336 784.565 590.904 784.565C585.432 784.565 580.68 783.509 576.648 781.397C572.616 779.189 569.496 776.165 567.288 772.325V783.557H539.064V676.997H567.288V714.005ZM596.664 743.093C596.664 737.813 595.224 733.733 592.344 730.853C589.56 727.877 586.104 726.389 581.976 726.389C577.848 726.389 574.344 727.877 571.464 730.853C568.68 733.829 567.288 737.909 567.288 743.093C567.288 748.373 568.68 752.501 571.464 755.477C574.344 758.453 577.848 759.941 581.976 759.941C586.104 759.941 589.56 758.453 592.344 755.477C595.224 752.405 596.664 748.277 596.664 743.093ZM714.123 742.229C714.123 744.437 713.979 746.645 713.691 748.853H660.267C660.555 753.269 661.755 756.581 663.867 758.789C666.075 760.901 668.859 761.957 672.219 761.957C676.923 761.957 680.283 759.845 682.299 755.621H712.395C711.147 761.189 708.699 766.181 705.051 770.597C701.499 774.917 696.987 778.325 691.515 780.821C686.043 783.317 679.995 784.565 673.371 784.565C665.403 784.565 658.299 782.885 652.059 779.525C645.915 776.165 641.067 771.365 637.515 765.125C634.059 758.885 632.331 751.541 632.331 743.093C632.331 734.645 634.059 727.349 637.515 721.205C640.971 714.965 645.771 710.165 651.915 706.805C658.155 703.445 665.307 701.765 673.371 701.765C681.339 701.765 688.395 703.397 694.539 706.661C700.683 709.925 705.483 714.629 708.939 720.773C712.395 726.821 714.123 733.973 714.123 742.229ZM685.323 735.173C685.323 731.717 684.171 729.029 681.867 727.109C679.563 725.093 676.683 724.085 673.227 724.085C669.771 724.085 666.939 725.045 664.731 726.965C662.523 728.789 661.083 731.525 660.411 735.173H685.323ZM753.897 717.029C757.065 712.421 760.905 708.773 765.417 706.085C769.929 703.397 774.777 702.053 779.961 702.053V732.149H772.041C765.897 732.149 761.337 733.349 758.361 735.749C755.385 738.149 753.897 742.325 753.897 748.277V783.557H725.673V702.773H753.897V717.029ZM837.744 759.509V783.557H825.504C804.864 783.557 794.544 773.333 794.544 752.885V726.245H784.608V702.773H794.544V683.189H822.912V702.773H837.6V726.245H822.912V753.317C822.912 755.525 823.392 757.109 824.352 758.069C825.408 759.029 827.136 759.509 829.536 759.509H837.744ZM906.476 704.645V721.205H938.876V742.661H906.476V760.949H943.196V783.557H878.252V682.037H943.196V704.645H906.476ZM971.398 695.285C966.406 695.285 962.374 693.941 959.302 691.253C956.326 688.469 954.838 685.013 954.838 680.885C954.838 676.661 956.326 673.157 959.302 670.373C962.374 667.589 966.406 666.197 971.398 666.197C976.294 666.197 980.23 667.589 983.206 670.373C986.278 673.157 987.814 676.661 987.814 680.885C987.814 685.013 986.278 688.469 983.206 691.253C980.23 693.941 976.294 695.285 971.398 695.285ZM985.366 702.773V783.557H957.142V702.773H985.366ZM1054.29 702.053C1063.6 702.053 1070.99 705.173 1076.46 711.413C1081.94 717.557 1084.67 725.909 1084.67 736.469V783.557H1056.45V740.213C1056.45 735.605 1055.25 732.005 1052.85 729.413C1050.45 726.725 1047.23 725.381 1043.2 725.381C1038.98 725.381 1035.66 726.725 1033.26 729.413C1030.86 732.005 1029.66 735.605 1029.66 740.213V783.557H1001.44V702.773H1029.66V714.293C1032.16 710.645 1035.52 707.717 1039.74 705.509C1043.97 703.205 1048.82 702.053 1054.29 702.053ZM1134.57 784.565C1127.28 784.565 1120.75 783.365 1114.99 780.965C1109.33 778.469 1104.81 775.109 1101.45 770.885C1098.19 766.565 1096.37 761.717 1095.98 756.341H1123.34C1123.73 758.933 1124.93 760.949 1126.94 762.389C1128.96 763.829 1131.45 764.549 1134.43 764.549C1136.73 764.549 1138.56 764.069 1139.9 763.109C1141.25 762.149 1141.92 760.901 1141.92 759.365C1141.92 757.349 1140.81 755.861 1138.61 754.901C1136.4 753.941 1132.75 752.885 1127.66 751.733C1121.9 750.581 1117.1 749.285 1113.26 747.845C1109.42 746.405 1106.06 744.053 1103.18 740.789C1100.4 737.525 1099.01 733.109 1099.01 727.541C1099.01 722.741 1100.3 718.421 1102.89 714.581C1105.49 710.645 1109.28 707.525 1114.27 705.221C1119.36 702.917 1125.45 701.765 1132.56 701.765C1143.12 701.765 1151.42 704.357 1157.47 709.541C1163.52 714.725 1167.02 721.541 1167.98 729.989H1142.49C1142.01 727.397 1140.86 725.429 1139.04 724.085C1137.31 722.645 1134.96 721.925 1131.98 721.925C1129.68 721.925 1127.9 722.357 1126.65 723.221C1125.5 724.085 1124.93 725.285 1124.93 726.821C1124.93 728.741 1126.03 730.229 1128.24 731.285C1130.45 732.245 1134 733.253 1138.89 734.309C1144.75 735.557 1149.6 736.949 1153.44 738.485C1157.37 740.021 1160.78 742.517 1163.66 745.973C1166.64 749.333 1168.13 753.941 1168.13 759.797C1168.13 764.501 1166.73 768.725 1163.95 772.469C1161.26 776.213 1157.37 779.189 1152.29 781.397C1147.29 783.509 1141.39 784.565 1134.57 784.565ZM1229.67 759.509V783.557H1217.43C1196.79 783.557 1186.47 773.333 1186.47 752.885V726.245H1176.53V702.773H1186.47V683.189H1214.83V702.773H1229.52V726.245H1214.83V753.317C1214.83 755.525 1215.31 757.109 1216.27 758.069C1217.33 759.029 1219.06 759.509 1221.46 759.509H1229.67ZM1319.79 742.229C1319.79 744.437 1319.65 746.645 1319.36 748.853H1265.94C1266.23 753.269 1267.43 756.581 1269.54 758.789C1271.75 760.901 1274.53 761.957 1277.89 761.957C1282.59 761.957 1285.95 759.845 1287.97 755.621H1318.07C1316.82 761.189 1314.37 766.181 1310.72 770.597C1307.17 774.917 1302.66 778.325 1297.19 780.821C1291.71 783.317 1285.67 784.565 1279.04 784.565C1271.07 784.565 1263.97 782.885 1257.73 779.525C1251.59 776.165 1246.74 771.365 1243.19 765.125C1239.73 758.885 1238 751.541 1238 743.093C1238 734.645 1239.73 727.349 1243.19 721.205C1246.64 714.965 1251.44 710.165 1257.59 706.805C1263.83 703.445 1270.98 701.765 1279.04 701.765C1287.01 701.765 1294.07 703.397 1300.21 706.661C1306.35 709.925 1311.15 714.629 1314.61 720.773C1318.07 726.821 1319.79 733.973 1319.79 742.229ZM1290.99 735.173C1290.99 731.717 1289.84 729.029 1287.54 727.109C1285.23 725.093 1282.35 724.085 1278.9 724.085C1275.44 724.085 1272.61 725.045 1270.4 726.965C1268.19 728.789 1266.75 731.525 1266.08 735.173H1290.99ZM1345.6 695.285C1340.61 695.285 1336.58 693.941 1333.51 691.253C1330.53 688.469 1329.04 685.013 1329.04 680.885C1329.04 676.661 1330.53 673.157 1333.51 670.373C1336.58 667.589 1340.61 666.197 1345.6 666.197C1350.5 666.197 1354.43 667.589 1357.41 670.373C1360.48 673.157 1362.02 676.661 1362.02 680.885C1362.02 685.013 1360.48 688.469 1357.41 691.253C1354.43 693.941 1350.5 695.285 1345.6 695.285ZM1359.57 702.773V783.557H1331.35V702.773H1359.57ZM1428.49 702.053C1437.8 702.053 1445.19 705.173 1450.67 711.413C1456.14 717.557 1458.87 725.909 1458.87 736.469V783.557H1430.65V740.213C1430.65 735.605 1429.45 732.005 1427.05 729.413C1424.65 726.725 1421.43 725.381 1417.4 725.381C1413.18 725.381 1409.87 726.725 1407.47 729.413C1405.07 732.005 1403.87 735.605 1403.87 740.213V783.557H1375.64V702.773H1403.87V714.293C1406.36 710.645 1409.72 707.717 1413.95 705.509C1418.17 703.205 1423.02 702.053 1428.49 702.053ZM1503.02 681.893C1512.52 681.893 1520.2 684.581 1526.06 689.957C1531.91 695.333 1534.84 702.533 1534.84 711.557C1534.84 721.637 1531.72 729.125 1525.48 734.021C1519.24 738.821 1510.79 741.221 1500.14 741.221L1499.7 754.901H1488.33L1487.75 732.149H1491.93C1501.43 732.149 1508.87 730.709 1514.25 727.829C1519.62 724.949 1522.31 719.525 1522.31 711.557C1522.31 705.797 1520.58 701.237 1517.13 697.877C1513.67 694.517 1509.02 692.837 1503.16 692.837C1497.21 692.837 1492.5 694.469 1489.05 697.733C1485.69 700.901 1484.01 705.269 1484.01 710.837H1471.62C1471.62 705.077 1472.92 700.037 1475.51 695.717C1478.1 691.301 1481.75 687.893 1486.46 685.493C1491.26 683.093 1496.78 681.893 1503.02 681.893ZM1493.94 784.421C1491.45 784.421 1489.34 783.557 1487.61 781.829C1485.88 780.101 1485.02 777.989 1485.02 775.493C1485.02 772.997 1485.88 770.885 1487.61 769.157C1489.34 767.429 1491.45 766.565 1493.94 766.565C1496.34 766.565 1498.36 767.429 1499.99 769.157C1501.72 770.885 1502.58 772.997 1502.58 775.493C1502.58 777.989 1501.72 780.101 1499.99 781.829C1498.36 783.557 1496.34 784.421 1493.94 784.421Z" fill="white"/>
<path d="M822.648 590.485L811.704 625.557H805.688L797.24 597.717L788.792 625.557H782.776L771.768 590.485H777.72L785.784 619.925L794.488 590.485H800.44L808.952 619.989L816.888 590.485H822.648ZM861.836 589.845C864.481 589.845 866.871 590.421 869.004 591.573C871.137 592.682 872.801 594.368 873.996 596.629C875.233 598.89 875.852 601.642 875.852 604.885V625.557H870.092V605.717C870.092 602.218 869.217 599.552 867.468 597.717C865.719 595.84 863.329 594.901 860.3 594.901C857.228 594.901 854.775 595.861 852.94 597.781C851.148 599.701 850.252 602.496 850.252 606.165V625.557H844.428V578.197H850.252V595.477C851.404 593.685 852.983 592.298 854.988 591.317C857.036 590.336 859.319 589.845 861.836 589.845ZM916.662 626.133C913.376 626.133 910.39 625.386 907.702 623.893C905.056 622.4 902.966 620.288 901.43 617.557C899.936 614.784 899.19 611.584 899.19 607.957C899.19 604.373 899.958 601.216 901.494 598.485C903.072 595.712 905.206 593.6 907.894 592.149C910.582 590.656 913.59 589.909 916.918 589.909C920.246 589.909 923.254 590.656 925.942 592.149C928.63 593.6 930.742 595.69 932.278 598.421C933.856 601.152 934.646 604.33 934.646 607.957C934.646 611.584 933.835 614.784 932.214 617.557C930.635 620.288 928.48 622.4 925.75 623.893C923.019 625.386 919.99 626.133 916.662 626.133ZM916.662 621.013C918.752 621.013 920.715 620.522 922.55 619.541C924.384 618.56 925.856 617.088 926.966 615.125C928.118 613.162 928.694 610.773 928.694 607.957C928.694 605.141 928.139 602.752 927.03 600.789C925.92 598.826 924.47 597.376 922.678 596.437C920.886 595.456 918.944 594.965 916.854 594.965C914.72 594.965 912.758 595.456 910.966 596.437C909.216 597.376 907.808 598.826 906.742 600.789C905.675 602.752 905.142 605.141 905.142 607.957C905.142 610.816 905.654 613.226 906.678 615.189C907.744 617.152 909.152 618.624 910.902 619.605C912.651 620.544 914.571 621.013 916.662 621.013ZM1038.09 590.485L1027.14 625.557H1021.13L1012.68 597.717L1004.23 625.557H998.214L987.206 590.485H993.158L1001.22 619.925L1009.93 590.485H1015.88L1024.39 619.989L1032.33 590.485H1038.09ZM1057.69 607.893C1057.69 604.309 1058.41 601.173 1059.87 598.485C1061.32 595.754 1063.3 593.642 1065.82 592.149C1068.38 590.656 1071.21 589.909 1074.33 589.909C1077.4 589.909 1080.07 590.57 1082.33 591.893C1084.59 593.216 1086.28 594.88 1087.39 596.885V590.485H1093.27V625.557H1087.39V619.029C1086.23 621.077 1084.51 622.784 1082.2 624.149C1079.94 625.472 1077.29 626.133 1074.27 626.133C1071.15 626.133 1068.33 625.365 1065.82 623.829C1063.3 622.293 1061.32 620.138 1059.87 617.365C1058.41 614.592 1057.69 611.434 1057.69 607.893ZM1087.39 607.957C1087.39 605.312 1086.85 603.008 1085.79 601.045C1084.72 599.082 1083.27 597.589 1081.43 596.565C1079.64 595.498 1077.66 594.965 1075.48 594.965C1073.31 594.965 1071.32 595.477 1069.53 596.501C1067.74 597.525 1066.31 599.018 1065.24 600.981C1064.17 602.944 1063.64 605.248 1063.64 607.893C1063.64 610.581 1064.17 612.928 1065.24 614.933C1066.31 616.896 1067.74 618.41 1069.53 619.477C1071.32 620.501 1073.31 621.013 1075.48 621.013C1077.66 621.013 1079.64 620.501 1081.43 619.477C1083.27 618.41 1084.72 616.896 1085.79 614.933C1086.85 612.928 1087.39 610.602 1087.39 607.957ZM1131.53 626.133C1128.84 626.133 1126.43 625.685 1124.3 624.789C1122.17 623.85 1120.48 622.57 1119.24 620.949C1118.01 619.285 1117.32 617.386 1117.2 615.253H1123.21C1123.38 617.002 1124.19 618.432 1125.64 619.541C1127.14 620.65 1129.08 621.205 1131.47 621.205C1133.69 621.205 1135.44 620.714 1136.72 619.733C1138 618.752 1138.64 617.514 1138.64 616.021C1138.64 614.485 1137.95 613.354 1136.59 612.629C1135.22 611.861 1133.11 611.114 1130.25 610.389C1127.65 609.706 1125.52 609.024 1123.85 608.341C1122.23 607.616 1120.82 606.57 1119.63 605.205C1118.48 603.797 1117.9 601.962 1117.9 599.701C1117.9 597.909 1118.43 596.266 1119.5 594.773C1120.57 593.28 1122.08 592.106 1124.04 591.253C1126.01 590.357 1128.25 589.909 1130.76 589.909C1134.65 589.909 1137.78 590.89 1140.17 592.853C1142.56 594.816 1143.84 597.504 1144.01 600.917H1138.19C1138.06 599.082 1137.31 597.61 1135.95 596.501C1134.62 595.392 1132.83 594.837 1130.57 594.837C1128.48 594.837 1126.82 595.285 1125.58 596.181C1124.34 597.077 1123.72 598.25 1123.72 599.701C1123.72 600.853 1124.09 601.813 1124.81 602.581C1125.58 603.306 1126.52 603.904 1127.63 604.373C1128.78 604.8 1130.36 605.29 1132.36 605.845C1134.88 606.528 1136.93 607.21 1138.51 607.893C1140.09 608.533 1141.43 609.514 1142.54 610.837C1143.69 612.16 1144.29 613.888 1144.33 616.021C1144.33 617.941 1143.8 619.669 1142.73 621.205C1141.66 622.741 1140.15 623.957 1138.19 624.853C1136.27 625.706 1134.05 626.133 1131.53 626.133Z" fill="white"/>
<path d="M1002.24 435.664H1037.19C1050.49 435.664 1061.26 424.891 1061.26 411.6H1073.01C1098.96 411.6 1120 390.562 1120 364.609H1068.13V364.417C1094.08 364.417 1115.12 343.379 1115.12 317.428H1079.87C1088.65 308.89 1094.1 296.962 1094.1 283.756H1047.15C1062.68 274.435 1073.08 257.435 1073.08 238H998.538C981.708 238 967.135 247.629 959.999 261.675C952.865 247.629 938.292 238 921.462 238H846.916C846.916 257.435 857.318 274.435 872.85 283.756H825.897C825.897 296.962 831.355 308.89 840.127 317.428H804.877C804.877 343.379 825.918 364.417 851.868 364.417V364.609H800C800 390.562 821.041 411.6 846.993 411.6H858.743C858.743 424.891 869.514 435.664 882.805 435.664H917.755H1002.24" fill="white"/>
<path d="M959.999 282.975C908.667 282.975 867.052 324.592 867.052 375.927V394.162C867.052 445.498 908.667 487.113 959.999 487.113C1011.33 487.113 1052.95 445.498 1052.95 394.162V375.927C1052.95 324.592 1011.33 282.975 959.999 282.975Z" fill="#FAB699"/>
<path d="M1023.02 429.865C1023.02 406.265 1003.89 387.135 980.291 387.135H939.712C916.114 387.135 896.985 406.265 896.985 429.865H1023.02" fill="white"/>
<path d="M960.001 361.736C950.973 361.736 943.655 369.055 943.655 378.085V387.135C943.655 396.163 950.973 403.482 960.001 403.482C969.029 403.482 976.35 396.163 976.35 387.135V378.085C976.35 369.055 969.029 361.736 960.001 361.736Z" fill="#BF8C66"/>
<path d="M915.418 365.388C915.418 360.664 911.59 356.835 906.868 356.835C902.145 356.835 898.314 360.664 898.314 365.388C898.314 370.111 902.145 373.94 906.868 373.94C911.59 373.94 915.418 370.111 915.418 365.388Z" fill="#1E2226"/>
<path d="M927.887 345.387C927.887 349.24 924.733 352.395 920.881 352.395H891.78C887.929 352.395 884.776 349.24 884.776 345.387V343.491C884.776 339.638 887.929 336.485 891.78 336.485H920.881C924.733 336.485 927.887 339.638 927.887 343.491V345.387Z" fill="white"/>
<path d="M1004.59 365.388C1004.59 360.664 1008.42 356.835 1013.14 356.835C1017.86 356.835 1021.69 360.664 1021.69 365.388C1021.69 370.111 1017.86 373.94 1013.14 373.94C1008.42 373.94 1004.59 370.111 1004.59 365.388Z" fill="#1E2226"/>
<path d="M992.12 345.387C992.12 349.24 995.272 352.395 999.125 352.395H1028.22C1032.08 352.395 1035.23 349.24 1035.23 345.387V343.491C1035.23 339.638 1032.08 336.485 1028.22 336.485H999.125C995.272 336.485 992.12 339.638 992.12 343.491V345.387Z" fill="white"/>
<path d="M932.749 429.865C932.749 444.912 944.949 457.113 959.999 457.113C975.05 457.113 987.251 444.912 987.251 429.865H932.749Z" fill="#95604E"/>
<path d="M960.001 443.186C950.764 443.186 943.277 446.596 943.277 455.833V461.015C943.277 470.251 950.764 477.74 960.001 477.74C969.237 477.74 976.726 470.251 976.726 461.015V455.833C976.726 446.596 969.237 443.186 960.001 443.186Z" fill="#F36384"/>
<rect width="1920" height="127" fill="#4C74C2"/>
<path d="M776.291 50.62V76H769.235V65.812H760.631V76H753.575V50.62H760.631V60.16H769.235V50.62H776.291ZM792.497 76.252C790.121 76.252 787.937 75.7 785.945 74.596C783.953 73.468 782.369 71.92 781.193 69.952C780.041 67.96 779.465 65.716 779.465 63.22C779.465 60.724 780.041 58.492 781.193 56.524C782.369 54.532 783.953 52.984 785.945 51.88C787.937 50.776 790.121 50.224 792.497 50.224C794.897 50.224 797.081 50.776 799.049 51.88C801.041 52.984 802.613 54.532 803.765 56.524C804.917 58.492 805.493 60.724 805.493 63.22C805.493 65.716 804.917 67.96 803.765 69.952C802.613 71.92 801.041 73.468 799.049 74.596C797.057 75.7 794.873 76.252 792.497 76.252ZM792.497 69.7C794.297 69.7 795.713 69.112 796.745 67.936C797.801 66.76 798.329 65.188 798.329 63.22C798.329 61.204 797.801 59.62 796.745 58.468C795.713 57.292 794.297 56.704 792.497 56.704C790.673 56.704 789.245 57.292 788.213 58.468C787.181 59.62 786.665 61.204 786.665 63.22C786.665 65.212 787.181 66.796 788.213 67.972C789.245 69.124 790.673 69.7 792.497 69.7ZM838.292 50.62V76H831.236V61.996L826.448 76H820.544L815.72 61.888V76H808.664V50.62H817.196L823.568 67.108L829.796 50.62H838.292ZM849.365 56.272V60.412H857.465V65.776H849.365V70.348H858.545V76H842.309V50.62H858.545V56.272H849.365ZM906.55 70.024H895.102L892.906 76H890.242L899.422 51.16H902.266L911.41 76H908.746L906.55 70.024ZM905.794 67.936L900.826 54.328L895.858 67.936H905.794ZM927.226 63.004C928.642 63.268 929.842 63.988 930.826 65.164C931.81 66.34 932.302 67.708 932.302 69.268C932.302 70.54 931.978 71.692 931.33 72.724C930.706 73.732 929.782 74.536 928.558 75.136C927.334 75.712 925.87 76 924.166 76H915.454V50.836H923.914C926.458 50.836 928.39 51.424 929.71 52.6C931.054 53.776 931.726 55.3 931.726 57.172C931.726 58.732 931.306 60.004 930.466 60.988C929.626 61.948 928.546 62.62 927.226 63.004ZM917.974 61.96H923.842C925.546 61.96 926.854 61.564 927.766 60.772C928.702 59.956 929.17 58.84 929.17 57.424C929.17 56.032 928.702 54.94 927.766 54.148C926.854 53.356 925.51 52.96 923.734 52.96H917.974V61.96ZM923.986 73.876C925.81 73.876 927.226 73.444 928.234 72.58C929.266 71.716 929.782 70.528 929.782 69.016C929.782 67.504 929.242 66.304 928.162 65.416C927.106 64.504 925.678 64.048 923.878 64.048H917.974V73.876H923.986ZM948.239 76.252C945.911 76.252 943.799 75.712 941.903 74.632C940.007 73.528 938.507 72.004 937.403 70.06C936.323 68.092 935.783 65.872 935.783 63.4C935.783 60.928 936.323 58.72 937.403 56.776C938.507 54.808 940.007 53.284 941.903 52.204C943.799 51.1 945.911 50.548 948.239 50.548C950.591 50.548 952.715 51.1 954.611 52.204C956.507 53.284 957.995 54.808 959.075 56.776C960.155 58.72 960.695 60.928 960.695 63.4C960.695 65.872 960.155 68.092 959.075 70.06C957.995 72.004 956.507 73.528 954.611 74.632C952.715 75.712 950.591 76.252 948.239 76.252ZM948.239 74.056C950.111 74.056 951.791 73.624 953.279 72.76C954.767 71.896 955.943 70.66 956.807 69.052C957.671 67.42 958.103 65.536 958.103 63.4C958.103 61.264 957.671 59.392 956.807 57.784C955.943 56.176 954.767 54.94 953.279 54.076C951.791 53.212 950.111 52.78 948.239 52.78C946.367 52.78 944.687 53.212 943.199 54.076C941.711 54.94 940.535 56.176 939.671 57.784C938.807 59.392 938.375 61.264 938.375 63.4C938.375 65.536 938.807 67.42 939.671 69.052C940.535 70.66 941.711 71.896 943.199 72.76C944.687 73.624 946.367 74.056 948.239 74.056ZM967.718 50.836V66.676C967.718 69.172 968.306 71.02 969.482 72.22C970.682 73.42 972.314 74.02 974.378 74.02C976.442 74.02 978.05 73.432 979.202 72.256C980.378 71.056 980.966 69.196 980.966 66.676V50.836H983.486V66.64C983.486 69.832 982.634 72.232 980.93 73.84C979.25 75.448 977.054 76.252 974.342 76.252C971.63 76.252 969.422 75.448 967.718 73.84C966.038 72.232 965.198 69.832 965.198 66.64V50.836H967.718ZM1003.83 50.836V52.924H996.847V76H994.327V52.924H987.307V50.836H1003.83ZM1051.05 50.836V52.924H1039.97V62.32H1049.33V64.408H1039.97V76H1037.45V50.836H1051.05ZM1066.5 76.252C1064.18 76.252 1062.06 75.712 1060.17 74.632C1058.27 73.528 1056.77 72.004 1055.67 70.06C1054.59 68.092 1054.05 65.872 1054.05 63.4C1054.05 60.928 1054.59 58.72 1055.67 56.776C1056.77 54.808 1058.27 53.284 1060.17 52.204C1062.06 51.1 1064.18 50.548 1066.5 50.548C1068.86 50.548 1070.98 51.1 1072.88 52.204C1074.77 53.284 1076.26 54.808 1077.34 56.776C1078.42 58.72 1078.96 60.928 1078.96 63.4C1078.96 65.872 1078.42 68.092 1077.34 70.06C1076.26 72.004 1074.77 73.528 1072.88 74.632C1070.98 75.712 1068.86 76.252 1066.5 76.252ZM1066.5 74.056C1068.38 74.056 1070.06 73.624 1071.54 72.76C1073.03 71.896 1074.21 70.66 1075.07 69.052C1075.94 67.42 1076.37 65.536 1076.37 63.4C1076.37 61.264 1075.94 59.392 1075.07 57.784C1074.21 56.176 1073.03 54.94 1071.54 54.076C1070.06 53.212 1068.38 52.78 1066.5 52.78C1064.63 52.78 1062.95 53.212 1061.46 54.076C1059.98 54.94 1058.8 56.176 1057.94 57.784C1057.07 59.392 1056.64 61.264 1056.64 63.4C1056.64 65.536 1057.07 67.42 1057.94 69.052C1058.8 70.66 1059.98 71.896 1061.46 72.76C1062.95 73.624 1064.63 74.056 1066.5 74.056ZM1094.88 76.252C1092.55 76.252 1090.44 75.712 1088.54 74.632C1086.64 73.528 1085.14 72.004 1084.04 70.06C1082.96 68.092 1082.42 65.872 1082.42 63.4C1082.42 60.928 1082.96 58.72 1084.04 56.776C1085.14 54.808 1086.64 53.284 1088.54 52.204C1090.44 51.1 1092.55 50.548 1094.88 50.548C1097.23 50.548 1099.35 51.1 1101.25 52.204C1103.14 53.284 1104.63 54.808 1105.71 56.776C1106.79 58.72 1107.33 60.928 1107.33 63.4C1107.33 65.872 1106.79 68.092 1105.71 70.06C1104.63 72.004 1103.14 73.528 1101.25 74.632C1099.35 75.712 1097.23 76.252 1094.88 76.252ZM1094.88 74.056C1096.75 74.056 1098.43 73.624 1099.92 72.76C1101.4 71.896 1102.58 70.66 1103.44 69.052C1104.31 67.42 1104.74 65.536 1104.74 63.4C1104.74 61.264 1104.31 59.392 1103.44 57.784C1102.58 56.176 1101.4 54.94 1099.92 54.076C1098.43 53.212 1096.75 52.78 1094.88 52.78C1093 52.78 1091.32 53.212 1089.84 54.076C1088.35 54.94 1087.17 56.176 1086.31 57.784C1085.44 59.392 1085.01 61.264 1085.01 63.4C1085.01 65.536 1085.44 67.42 1086.31 69.052C1087.17 70.66 1088.35 71.896 1089.84 72.76C1091.32 73.624 1093 74.056 1094.88 74.056ZM1126.67 50.836V52.924H1119.68V76H1117.16V52.924H1110.14V50.836H1126.67ZM1133.17 52.888V62.284H1142.71V64.372H1133.17V73.912H1143.79V76H1130.65V50.8H1143.79V52.888H1133.17ZM1162.14 76L1155.92 65.488H1151.27V76H1148.75V50.836H1156.31C1159.12 50.836 1161.24 51.508 1162.68 52.852C1164.15 54.196 1164.88 55.96 1164.88 58.144C1164.88 59.968 1164.35 61.528 1163.3 62.824C1162.26 64.096 1160.73 64.924 1158.69 65.308L1165.17 76H1162.14ZM1151.27 63.436H1156.35C1158.32 63.436 1159.79 62.956 1160.78 61.996C1161.78 61.036 1162.29 59.752 1162.29 58.144C1162.29 56.488 1161.81 55.216 1160.85 54.328C1159.89 53.416 1158.38 52.96 1156.31 52.96H1151.27V63.436Z" fill="white"/>
</svg>
