<svg width="80" height="80" viewBox="0 0 80 80" fill="none" xmlns="http://www.w3.org/2000/svg">
<path d="M71.4375 0.0415039H8.64576C3.91854 0.0415039 0.083252 3.87679 0.083252 8.60401V71.3958C0.083252 76.123 3.91854 79.9583 8.64576 79.9583H71.4375C76.1647 79.9583 80 76.123 80 71.3958V8.60401C80 3.87679 76.1647 0.0415039 71.4375 0.0415039ZM62.7144 28.3691C62.7501 28.8686 62.7501 29.3859 62.7501 29.8854C62.7501 45.3515 50.9767 63.1722 29.4634 63.1722C22.8274 63.1722 16.6731 61.2456 11.4999 57.9276C12.4454 58.0347 13.3551 58.0703 14.3184 58.0703C19.7949 58.0703 24.8253 56.2151 28.839 53.0755C23.7015 52.9685 19.3846 49.597 17.904 44.959C19.7057 45.2266 21.329 45.2266 23.1842 44.7449C17.8326 43.6568 13.8189 38.9474 13.8189 33.2569V33.1142C15.3709 33.9883 17.1904 34.5234 19.0992 34.5948C17.4945 33.5274 16.179 32.0793 15.2701 30.3798C14.3612 28.6803 13.8871 26.7822 13.8903 24.8549C13.8903 22.6786 14.4611 20.6807 15.4779 18.9504C21.2398 26.0501 29.8915 30.6882 39.5957 31.1876C37.9367 23.2495 43.8769 16.8098 51.0123 16.8098C54.3838 16.8098 57.4164 18.219 59.557 20.5023C62.1971 20.0029 64.7302 19.0217 66.9779 17.6838C66.1038 20.3953 64.2664 22.6786 61.8404 24.1236C64.195 23.8738 66.4784 23.2138 68.5833 22.304C66.9957 24.6409 64.9978 26.7102 62.7144 28.3691Z" fill="#17171A"/>
</svg>
